<?xml version="1.0" standalone="no"?>
<!DOCTYPE svg PUBLIC "-//W3C//DTD SVG 1.1//EN" "http://www.w3.org/Graphics/SVG/1.1/DTD/svg11.dtd" >
<svg>
<metadata>
Created by FontForge 20090622 at Thu Nov 19 15:17:55 2015
 By deploy user
KhmerOS - font for the Khmer language of Cambodia
Copyright 2007 Danh Hong
 
This font is free software; you can redistribute it and/or modify it under the terms of the GNU Lesser General Public License as published by the Free Software Foundation; either version 2.1 of the License, or (at your option) any later version.

This library is distributed in the hope that it will be useful, but WITHOUT ANY WARRANTY; without even the implied warranty of MERCHANTABILITY or FITNESS FOR A PARTICULAR PURPOSE.? See the GNU Lesser General Public License for more details.

You should have received a copy of the GNU Lesser General Public License along with this font; if not, write to the Free Software Foundation, Inc., 51 Franklin Street, Fifth Floor, Boston, MA 02110-1301  USA or visit http://www.gnu.org/licenses/lgpl.html
</metadata>
<defs>
<font id="KhmerOSmuol" horiz-adv-x="0" >
  <font-face 
    font-family="Khmer OS Muol"
    font-weight="400"
    font-stretch="normal"
    units-per-em="2048"
    panose-1="2 0 5 0 0 0 0 2 0 4"
    ascent="1638"
    descent="-410"
    x-height="1073"
    cap-height="1493"
    bbox="-2301 -1310 5500 2901"
    underline-thickness="48"
    underline-position="-140"
    unicode-range="U+0020-U+FB02"
  />
<missing-glyph 
 />
    <glyph glyph-name=".notdef" 
 />
    <glyph glyph-name="space" unicode=" " horiz-adv-x="600" 
 />
    <glyph glyph-name="space" unicode="&#xa0;" horiz-adv-x="600" 
 />
    <glyph glyph-name="exclam" unicode="!" horiz-adv-x="569" 
d="M425 1493v-692l-45 -457h-80l-45 457v692h170zM425 213v-213h-172v213h172z" />
    <glyph glyph-name="quotedbl" unicode="&#x22;" horiz-adv-x="727" 
d="M106 1452h190v-227l-55 -275h-80l-55 275v227zM434 1452h190v-227l-55 -275h-80l-55 275v227z" />
    <glyph glyph-name="numbersign" unicode="#" horiz-adv-x="1138" 
d="M993 1427l-74 -401h190v-139h-217l-63 -357h215v-139h-240l-80 -431h-155l77 431h-253l-80 -431h-156l78 431h-207v139h233l64 357h-221v139h248l73 401h156l-74 -401h256l72 401h158zM737 887h-254l-66 -357h256z" />
    <glyph glyph-name="dollar" unicode="$" horiz-adv-x="1138" 
d="M501 1577h121v-111q258 -18 354 -209q39 -77 43 -174v-20h-161q-2 158 -119 227q-41 23 -90 31q-13 2 -27 2v-510q205 -63 268 -98q174 -99 174 -316q0 -213 -139 -338q-22 -20 -49 -36q-100 -59 -254 -72v-211h-121v211q-315 21 -403 260q-33 94 -27 213h162
q14 -152 43 -201q4 -6 8 -14q72 -98 217 -117v557q-190 58 -258 107q-145 104 -145 299q0 299 286 385q54 16 117 24v111zM501 829v492q-196 -27 -231 -182q-6 -29 -6 -62q0 -184 237 -248zM622 633v-539q125 15 188 76q86 82 86 205q0 125 -96 186q-59 37 -178 72z" />
    <glyph glyph-name="percent" unicode="%" horiz-adv-x="1820" 
d="M407 1403q172 0 277 -135l37 -58q36 -75 36 -161q0 -162 -129 -267q-96 -80 -219 -80q-166 0 -272 129q-78 99 -78 222q0 166 129 272q96 78 219 78zM407 1260q-110 0 -172 -95l-24 -47q-11 -33 -11 -65q0 -109 92 -172q54 -35 117 -35q111 0 172 92q35 51 35 113
q0 116 -98 178q-49 31 -111 31zM1247 1452h135l-809 -1492h-135zM1409 659q174 0 278 -135q72 -94 72 -217q0 -162 -129 -266q-96 -79 -219 -79q-166 0 -273 128q-78 98 -78 221q0 166 132 271q96 77 217 77zM1409 516q-111 0 -172 -92q-35 -51 -35 -113q0 -112 96 -174
q51 -33 113 -33q110 0 172 93q35 51 35 110q0 117 -99 178l-47 21q-31 10 -63 10z" />
    <glyph glyph-name="ampersand" unicode="&#x26;" horiz-adv-x="1366" 
d="M1009 684h164q0 -192 -119 -375l250 -309h-223l-127 160q-100 -99 -158 -133q-115 -74 -270 -74q-238 0 -352 168q-68 100 -68 239q0 166 106 275q74 74 226 162q-144 180 -162 278q-4 27 -4 55q0 158 133 254q94 68 217 68q184 0 279 -135l30 -57q19 -43 23 -93
q2 -18 2 -37q0 -141 -113 -241q-59 -53 -170 -115l273 -334q65 115 63 244zM583 883q166 104 197 180q14 31 14 72q0 106 -92 153q-39 21 -86 21q-123 0 -164 -103q-12 -32 -12 -73q0 -68 51 -140zM856 281l-328 409q-193 -123 -234 -225q-16 -41 -16 -90q0 -133 111 -211
q71 -51 157 -51q138 0 277 133q16 16 33 35z" />
    <glyph glyph-name="quotesingle" unicode="'" horiz-adv-x="391" 
d="M98 1452h193v-227l-56 -275h-82l-55 275v227z" />
    <glyph glyph-name="parenleft" unicode="(" horiz-adv-x="681" 
d="M483 1493h112q-253 -410 -278 -879q-2 -43 -2 -84q0 -477 250 -912q14 -27 30 -52h-112q-232 303 -307 696q-27 139 -27 268q0 367 190 734q64 125 144 229z" />
    <glyph glyph-name="parenright" unicode=")" horiz-adv-x="681" 
d="M190 -434h-113q254 410 279 878q2 43 2 84q0 478 -250 914q-15 26 -31 51h113q231 -303 307 -696q26 -140 26 -269q0 -366 -190 -732q-63 -125 -143 -230z" />
    <glyph glyph-name="asterisk" unicode="*" horiz-adv-x="796" 
d="M327 1493h129l-10 -229l217 77l39 -120l-222 -62l144 -182l-105 -74l-127 191l-129 -191l-102 74l141 182l-221 62l39 120l217 -77z" />
    <glyph glyph-name="plus" unicode="+" horiz-adv-x="1196" 
d="M1093 547v-144h-424v-423h-143v423h-424v144h424v424h143v-424h424z" />
    <glyph glyph-name="comma" unicode="," horiz-adv-x="569" 
d="M178 213h215v-245q0 -269 -215 -269v78q88 4 109 68q14 39 14 119v36h-123v213z" />
    <glyph glyph-name="hyphen" unicode="-" horiz-adv-x="681" 
d="M581 639v-147h-487v147h487z" />
    <glyph glyph-name="period" unicode="." horiz-adv-x="569" 
d="M391 213v-213h-213v213h213z" />
    <glyph glyph-name="slash" unicode="/" horiz-adv-x="569" 
d="M469 1493h113l-485 -1533h-113z" />
    <glyph glyph-name="zero" unicode="0" horiz-adv-x="1138" 
d="M563 1452q224 0 342 -168q118 -169 131 -506q2 -43 2 -88q0 -277 -70 -451q-71 -174 -212 -245q-86 -41 -193 -41q-180 0 -292 111q-112 110 -156 331q-27 135 -27 307q0 400 141 590q111 146 305 160h29zM563 1292q-145 0 -218 -148t-73 -444q0 -299 72 -448
q72 -150 215 -150q121 0 192 99q72 98 93 295q10 94 10 211q0 293 -73 439q-72 146 -218 146z" />
    <glyph glyph-name="one" unicode="1" horiz-adv-x="1138" 
d="M530 1034h-322v129q209 27 270 74q62 45 105 190l8 25h119v-1452h-180v1034z" />
    <glyph glyph-name="two" unicode="2" horiz-adv-x="1138" 
d="M581 1452q248 0 379 -164l39 -61q47 -90 47 -201q0 -270 -307 -438l-205 -111q-186 -108 -236 -209q-18 -41 -26 -90h764v-178h-967q14 262 117 399q86 113 291 230l188 106q197 113 197 287q0 147 -123 227q-72 45 -164 45q-154 0 -236 -116l-14 -25q-35 -66 -43 -205
h-180q6 205 78 316q122 188 401 188z" />
    <glyph glyph-name="three" unicode="3" horiz-adv-x="1138" 
d="M544 -47q-201 0 -319 94q-117 95 -150 283q-6 43 -10 92h180q9 -135 67 -211q58 -75 165 -92q34 -6 73 -6q107 0 176 40q70 41 103 121q22 58 22 129q0 133 -75 199t-226 66l-75 -2h-23v153q231 4 301 68q55 51 55 160q0 174 -143 229q-49 18 -113 18q-159 0 -231 -108
l-12 -21q-31 -59 -33 -182h-180q4 215 101 332q98 117 288 135q31 2 65 2q144 0 242 -48q99 -48 152 -144q49 -89 49 -207q0 -222 -203 -301q190 -66 231 -222q15 -53 15 -124q0 -252 -193 -375q-123 -78 -299 -78z" />
    <glyph glyph-name="four" unicode="4" horiz-adv-x="1138" 
d="M669 348h-612v191l659 913h134v-942h215v-162h-215v-348h-181v348zM669 510v635l-454 -635h454z" />
    <glyph glyph-name="five" unicode="5" horiz-adv-x="1138" 
d="M974 1452v-178h-604l-57 -406q120 88 268 88q246 0 377 -178q92 -125 92 -305q0 -264 -178 -412q-131 -108 -320 -108q-229 0 -362 137q-17 19 -31 37q-55 68 -88 229h180q32 -121 106 -182q75 -61 191 -61q207 0 285 166q33 73 33 170q0 223 -156 309q-70 39 -162 39
q-131 0 -223 -88q-21 -21 -43 -47h-166l109 790h749z" />
    <glyph glyph-name="six" unicode="6" horiz-adv-x="1138" 
d="M575 -47q-243 0 -365 177q-122 178 -122 532q0 378 131 583q115 172 320 203q34 4 69 4q236 0 348 -190q47 -82 64 -189h-180q-37 180 -187 213q-26 6 -57 6q-113 0 -188 -74q-74 -73 -109 -221q-27 -110 -27 -256q119 162 334 162q227 0 354 -170q91 -121 91 -291
q0 -243 -168 -383q-127 -106 -308 -106zM584 743q-174 0 -256 -135q-45 -73 -45 -170q0 -176 124 -270q74 -55 170 -55q156 0 238 129q51 82 51 186q0 209 -145 285q-60 30 -137 30z" />
    <glyph glyph-name="seven" unicode="7" horiz-adv-x="1138" 
d="M1065 1452v-152q-207 -274 -344 -550q-137 -275 -205 -553q-25 -97 -41 -197h-193q103 446 293 797q113 207 303 477h-784v178h971z" />
    <glyph glyph-name="eight" unicode="8" horiz-adv-x="1138" 
d="M800 764q250 -119 250 -363q0 -229 -176 -354q-129 -94 -312 -94q-254 0 -391 168q-96 119 -96 282q0 242 248 361q-148 92 -180 190q-17 47 -17 111q0 203 166 311q113 76 270 76q238 0 359 -156q78 -98 78 -231q0 -139 -93 -223l-65 -54q-18 -12 -41 -24zM562 1292
q-163 0 -225 -118l-20 -54l-6 -57q0 -143 124 -201q56 -26 127 -26q164 0 226 116q26 49 26 109q0 153 -133 209q-51 22 -119 22zM562 684q-182 0 -262 -131q-41 -68 -41 -154q0 -168 135 -245q70 -41 164 -41q187 0 267 133q41 67 41 153q0 168 -138 246q-71 39 -166 39z
" />
    <glyph glyph-name="nine" unicode="9" horiz-adv-x="1138" 
d="M552 1452q244 0 367 -177q122 -177 123 -532q0 -378 -134 -583q-108 -166 -307 -200q-41 -7 -82 -7q-235 0 -348 190q-47 82 -63 189h180q19 -90 65 -143q47 -53 121 -70q27 -6 58 -6q114 0 188 74t109 221q26 110 26 256q-143 -158 -332 -162q-229 0 -356 170
q-90 121 -90 291q0 243 168 383q127 106 307 106zM550 1294q-156 0 -237 -131l-31 -61l-17 -72q-4 -26 -4 -53q0 -104 37 -176q36 -71 109 -109q59 -30 137 -30q170 0 254 133q47 73 47 172q0 178 -125 272q-76 55 -170 55z" />
    <glyph glyph-name="colon" unicode=":" horiz-adv-x="569" 
d="M438 213v-213h-213v213h213zM438 1073v-213h-213v213h213z" />
    <glyph glyph-name="semicolon" unicode=";" horiz-adv-x="569" 
d="M440 1073v-213h-213v213h213zM225 213h215v-245q0 -269 -215 -269v78q88 4 109 68q14 39 14 119v36h-123v213z" />
    <glyph glyph-name="less" unicode="&#x3c;" horiz-adv-x="1196" 
d="M92 406v141l1001 424v-162l-806 -330l806 -336v-161z" />
    <glyph glyph-name="equal" unicode="=" horiz-adv-x="1196" 
d="M1093 723v-143h-991v143h991zM1093 371v-144h-991v144h991z" />
    <glyph glyph-name="greater" unicode="&#x3e;" horiz-adv-x="1196" 
d="M1103 547v-141l-1001 -424v161l807 330l-807 336v162z" />
    <glyph glyph-name="question" unicode="?" horiz-adv-x="1138" 
d="M675 408h-184v112q0 103 57 178q35 45 107 113l49 43q151 135 153 270q0 144 -125 205l-63 21q-35 8 -74 8q-168 0 -229 -119q-35 -70 -35 -201h-174q0 216 92 335q93 119 277 140q39 5 80 5q258 0 372 -170l33 -62q31 -74 31 -162q0 -143 -105 -264q-39 -47 -100 -102
q-129 -119 -150 -174q-12 -31 -12 -80v-96zM675 213v-213h-184v213h184z" />
    <glyph glyph-name="at" unicode="@" horiz-adv-x="2078" 
d="M1361 1026h170l-184 -573q-25 -72 -25 -103q0 -55 60 -82q20 -8 43 -8q131 0 239 148q105 145 105 323q0 246 -199 428q-203 189 -491 201h-31q-301 0 -533 -209l-69 -70q-203 -231 -203 -522q0 -289 215 -487q221 -205 553 -205q162 0 395 66l58 -137q-230 -86 -463 -86
q-369 0 -637 219q-250 204 -289 505q-6 47 -6 94q0 316 195 582q57 80 129 143q221 201 530 252q76 13 152 13q340 0 591 -207q238 -193 275 -469q6 -43 6 -86q0 -248 -176 -457q-156 -182 -381 -182q-197 0 -225 157q-135 -147 -291 -147q-168 0 -264 141q-70 101 -70 234
q0 223 162 395q158 170 364 172q172 0 250 -178zM1054 938q-135 0 -237 -145q-93 -129 -93 -293q0 -138 97 -207q49 -35 106 -35q119 0 209 133q68 98 100 271q9 45 11 79q6 111 -84 168q-50 29 -109 29z" />
    <glyph glyph-name="A" unicode="A" horiz-adv-x="1366" 
d="M970 449h-576l-157 -449h-203l532 1493h246l525 -1493h-213zM917 608l-230 680l-245 -680h475z" />
    <glyph glyph-name="B" unicode="B" horiz-adv-x="1366" 
d="M161 0v1493h606q211 0 324 -104q119 -107 119 -275q0 -229 -207 -326q215 -83 258 -247q12 -41 14 -88v-27q0 -180 -115 -301q-116 -125 -325 -125h-674zM351 850h369q148 0 217 53q82 64 82 185q0 120 -82 184q-69 53 -217 53h-369v-475zM1085 424q0 178 -146 235
q-53 23 -123 23h-465v-514h465q133 0 199 72q70 73 70 184z" />
    <glyph glyph-name="C" unicode="C" horiz-adv-x="1478" 
d="M1355 1030h-194q-31 154 -109 225q-110 91 -295 95q-262 0 -387 -236q-82 -153 -82 -383q0 -348 195 -510q121 -100 291 -100q223 0 328 158q12 16 20 34q45 86 68 232h196q-67 -592 -614 -592q-289 0 -457 174q-217 223 -217 602q0 375 209 602q168 187 473 187
q487 0 575 -488z" />
    <glyph glyph-name="D" unicode="D" horiz-adv-x="1478" 
d="M182 0v1493h575q334 0 496 -270l45 -88q68 -166 68 -387q0 -429 -238 -623q-149 -125 -371 -125h-575zM372 168h353q356 0 432 371q18 92 18 206q0 504 -344 570q-51 10 -106 10h-353v-1157z" />
    <glyph glyph-name="E" unicode="E" horiz-adv-x="1366" 
d="M374 680v-512h881v-168h-1071v1493h1034v-168h-844v-477h814v-168h-814z" />
    <glyph glyph-name="F" unicode="F" horiz-adv-x="1251" 
d="M374 680v-680h-190v1493h1001v-168h-811v-477h713v-168h-713z" />
    <glyph glyph-name="G" unicode="G" horiz-adv-x="1593" 
d="M1452 788v-796h-121l-47 198q-213 -237 -510 -237q-313 0 -506 233q-178 213 -178 545q0 361 209 586q29 31 61 57q174 144 447 144q366 0 532 -242q68 -100 92 -236h-194q-43 201 -238 275q-86 35 -194 35q-271 0 -416 -213q-109 -160 -109 -396q0 -258 125 -430l33 -39
q148 -147 377 -151q233 0 369 164q100 123 100 295v41h-455v167h623z" />
    <glyph glyph-name="H" unicode="H" horiz-adv-x="1478" 
d="M1127 680h-765v-680h-193v1493h190v-645h768v645h191v-1493h-191v680z" />
    <glyph glyph-name="I" unicode="I" horiz-adv-x="569" 
d="M397 1493v-1493h-193v1493h193z" />
    <glyph glyph-name="J" unicode="J" horiz-adv-x="1024" 
d="M681 1493h191v-1120q0 -254 -185 -363q-100 -57 -237 -57q-254 0 -361 176q-55 94 -55 219v131h195v-96q0 -227 165 -264q27 -6 58 -6q119 0 182 92q47 69 47 237v1051z" />
    <glyph glyph-name="K" unicode="K" horiz-adv-x="1366" 
d="M351 522v-522h-190v1493h190v-756l744 756h246l-609 -608l615 -885h-225l-527 766z" />
    <glyph glyph-name="L" unicode="L" horiz-adv-x="1138" 
d="M353 1493v-1325h738v-168h-928v1493h190z" />
    <glyph glyph-name="M" unicode="M" horiz-adv-x="1705" 
d="M958 0h-201l-424 1251v-1251h-180v1493h264l443 -1300l434 1300h264v-1493h-180v1251z" />
    <glyph glyph-name="N" unicode="N" horiz-adv-x="1478" 
d="M1322 1493v-1493h-215l-772 1210v-1210h-180v1493h207l780 -1221v1221h180z" />
    <glyph glyph-name="O" unicode="O" horiz-adv-x="1593" 
d="M796 1518q356 0 555 -252l53 -78q115 -197 115 -465q0 -303 -168 -518q-41 -53 -90 -94q-187 -158 -463 -158q-342 0 -543 240q-178 213 -178 542q0 377 227 596q195 187 492 187zM796 1350q-266 0 -414 -209q-115 -164 -115 -406q0 -323 195 -493q137 -121 336 -121
q264 0 412 205q118 161 118 401q0 338 -200 508q-136 115 -332 115z" />
    <glyph glyph-name="P" unicode="P" horiz-adv-x="1366" 
d="M376 633v-633h-190v1493h616q330 0 426 -242q35 -84 35 -196q0 -199 -129 -316q-119 -106 -289 -106h-469zM376 801h398q209 0 270 151q21 49 21 111q0 184 -162 242l-70 16q-29 4 -59 4h-398v-524z" />
    <glyph glyph-name="Q" unicode="Q" horiz-adv-x="1593" 
d="M1500 -2l-96 -118l-215 177q-176 -104 -391 -104q-342 0 -543 240q-178 213 -178 542q0 377 227 596q197 187 494 187q340 0 541 -238q180 -213 180 -541q0 -352 -211 -583zM984 420l183 -150q161 183 161 467q0 322 -192 492q-139 121 -338 121q-268 0 -416 -209
q-115 -164 -115 -406q0 -325 195 -495q137 -119 334 -119q123 0 246 57l-152 127z" />
    <glyph glyph-name="R" unicode="R" horiz-adv-x="1478" 
d="M380 643v-643h-190v1493h688q348 0 432 -246q23 -67 23 -153q0 -201 -148 -306q-39 -26 -88 -51q127 -55 166 -137q35 -76 37 -252q4 -196 39 -252q18 -26 51 -49v-47h-231q-43 98 -43 244l2 133q0 223 -164 258q-37 8 -82 8h-492zM380 811h461q248 0 285 176q8 35 8 80
q0 135 -78 201q-65 57 -215 57h-461v-514z" />
    <glyph glyph-name="S" unicode="S" horiz-adv-x="1366" 
d="M1220 1055h-180q-2 227 -225 286q-66 17 -148 17q-213 0 -297 -127l-24 -49q-12 -35 -12 -76q0 -115 110 -172q51 -27 135 -49l375 -101q246 -67 303 -266q15 -51 15 -108q0 -172 -119 -301q-23 -23 -45 -41q-150 -115 -420 -115q-346 0 -502 213q-86 117 -88 309h180
q-2 -92 33 -162q18 -34 45 -67q104 -125 344 -125q182 0 275 63q90 64 104 178q2 15 2 29q0 156 -225 227l-49 15l-371 98q-293 76 -293 348q0 254 213 369q131 70 317 70q361 0 490 -228q57 -100 57 -235z" />
    <glyph glyph-name="T" unicode="T" horiz-adv-x="1251" 
d="M725 1325v-1325h-190v1325h-492v168h1171v-168h-489z" />
    <glyph glyph-name="U" unicode="U" horiz-adv-x="1478" 
d="M1130 1493h191v-1049q0 -266 -213 -399q-148 -92 -363 -92q-338 0 -487 207q-84 119 -84 284v1049h190v-1049q0 -239 226 -303q69 -20 155 -20q254 0 347 164q38 69 38 159v1049z" />
    <glyph glyph-name="V" unicode="V" horiz-adv-x="1366" 
d="M802 0h-204l-537 1493h205l438 -1264l414 1264h203z" />
    <glyph glyph-name="W" unicode="W" horiz-adv-x="1933" 
d="M1524 0h-209l-344 1227l-334 -1227h-209l-383 1493h213l281 -1212l331 1212h205l340 -1212l275 1212h213z" />
    <glyph glyph-name="X" unicode="X" horiz-adv-x="1366" 
d="M801 766l528 -766h-235l-408 623l-410 -623h-231l528 766l-495 727h231l383 -586l385 586h228z" />
    <glyph glyph-name="Y" unicode="Y" horiz-adv-x="1366" 
d="M792 586v-586h-191v586l-575 907h236l438 -727l426 727h227z" />
    <glyph glyph-name="Z" unicode="Z" horiz-adv-x="1251" 
d="M1190 1493v-172l-893 -1153h897v-168h-1137v168l897 1157h-840v168h1076z" />
    <glyph glyph-name="bracketleft" unicode="[" horiz-adv-x="569" 
d="M512 1493v-147h-211v-1632h211v-148h-381v1927h381z" />
    <glyph glyph-name="backslash" unicode="\" horiz-adv-x="569" 
d="M97 1493l485 -1533h-113l-485 1533h113z" />
    <glyph glyph-name="bracketright" unicode="]" horiz-adv-x="569" 
d="M47 -434v148h211v1632h-211v147h381v-1927h-381z" />
    <glyph glyph-name="asciicircum" unicode="^" horiz-adv-x="960" 
d="M403 1452h150l317 -778h-141l-250 614l-248 -614h-141z" />
    <glyph glyph-name="underscore" unicode="_" horiz-adv-x="1138" 
d="M1184 -258v-102h-1229v102h1229z" />
    <glyph glyph-name="glyph65" unicode="`" horiz-adv-x="681" 
d="M276 1516l197 -304h-123l-305 304h231z" />
    <glyph glyph-name="a" unicode="a" horiz-adv-x="1138" 
d="M1096 100v-128q-72 -19 -117 -19q-145 0 -172 129l-4 29q-178 -156 -365 -158q-225 0 -313 153q-39 72 -39 164q0 209 188 287q74 31 267 55q32 4 77 11q150 18 173 77q6 17 6 41v45q0 132 -166 156q-35 4 -74 4q-211 0 -246 -153q-4 -19 -6 -37h-172q6 147 74 223
q112 125 356 125q361 0 400 -238q4 -26 4 -55v-631q0 -84 92 -84q18 0 37 4zM797 338v192q-66 -30 -234 -53q-18 -2 -41 -6q-217 -31 -250 -141q-8 -25 -8 -56q0 -133 137 -163q33 -9 74 -9q148 0 254 97q66 59 68 139z" />
    <glyph glyph-name="b" unicode="b" horiz-adv-x="1138" 
d="M110 1493h170v-565q117 176 332 176q262 0 383 -221q76 -140 76 -342q0 -330 -187 -488q-117 -100 -280 -100q-220 0 -340 184v-137h-154v1493zM579 944q-170 0 -250 -172q-49 -102 -49 -244q0 -256 141 -362q68 -53 158 -53q172 0 258 161q55 105 55 248q0 260 -147 369
q-76 51 -166 53z" />
    <glyph glyph-name="c" unicode="c" horiz-adv-x="1024" 
d="M964 713h-172q-27 198 -199 229l-55 4q-192 0 -264 -205q-33 -94 -33 -223q0 -280 162 -373q59 -34 139 -34q219 0 262 258h172q-22 -281 -235 -375q-88 -41 -203 -41q-264 0 -391 215q-84 143 -84 350q0 328 188 486q121 100 289 100q217 0 336 -139l16 -21
q60 -88 72 -231z" />
    <glyph glyph-name="d" unicode="d" horiz-adv-x="1138" 
d="M1014 1493v-1493h-152v141q-119 -169 -295 -186q-22 -2 -47 -2q-266 0 -389 229q-78 146 -78 357q0 315 182 469q117 96 279 96q221 0 330 -166v555h170zM542 944q-174 0 -258 -168q-41 -78 -51 -182q-2 -33 -2 -66q0 -249 144 -360q73 -55 170 -55q170 0 249 168
q50 102 50 243q0 269 -148 373q-68 47 -154 47z" />
    <glyph glyph-name="e" unicode="e" horiz-adv-x="1138" 
d="M1050 479h-791q2 -147 58 -229q88 -139 258 -139q208 0 280 215h172q-45 -248 -258 -336q-90 -37 -201 -37q-278 0 -407 225q-80 139 -80 344q0 324 193 482q122 100 299 100q235 0 368 -168q41 -51 66 -115q43 -112 43 -342zM263 618h602q2 5 2 13q0 164 -120 256
q-78 59 -177 59q-174 0 -258 -153q-41 -74 -49 -175z" />
    <glyph glyph-name="f" unicode="f" horiz-adv-x="569" 
d="M528 1073v-139h-179v-934h-170v934h-143v139h143v182q0 181 152 230q45 14 100 14q47 0 97 -10v-141q-39 2 -60 2q-119 0 -119 -109v-168h179z" />
    <glyph glyph-name="g" unicode="g" horiz-adv-x="1138" 
d="M843 1073h158v-897q0 -315 -84 -446q-14 -20 -29 -39q-98 -123 -321 -135q-23 -2 -45 -2q-283 0 -385 180q-35 64 -43 144h174q12 -80 65 -123q74 -58 195 -58q166 0 238 101q61 84 61 292v55q-121 -167 -270 -188l-56 -4q-170 0 -295 131l-12 12q-135 158 -135 422
q0 313 174 475q117 111 283 111q200 0 327 -186v155zM534 946q-180 0 -256 -184q-41 -98 -41 -234q0 -284 160 -381q59 -36 139 -36q182 0 254 188q37 94 37 223q0 307 -168 396q-55 28 -125 28z" />
    <glyph glyph-name="h" unicode="h" horiz-adv-x="1138" 
d="M143 1493h170v-567q111 143 246 170q43 8 98 8q225 0 305 -152q33 -61 33 -141v-811h-170v743q0 113 -70 162q-65 49 -151 49q-172 0 -248 -157q-43 -86 -43 -205v-592h-170v1493z" />
    <glyph glyph-name="i" unicode="i" horiz-adv-x="426" 
d="M307 1073v-1073h-170v1073h170zM307 1493v-215h-172v215h172z" />
    <glyph glyph-name="j" unicode="j" horiz-adv-x="433" 
d="M144 1073h170v-1296q0 -211 -262 -223h-31q-26 0 -57 6v146q35 -2 41 -2q106 0 129 65q10 29 10 76v1228zM314 1493v-215h-170v215h170z" />
    <glyph glyph-name="k" unicode="k" horiz-adv-x="1024" 
d="M288 1493v-875l455 455h219l-373 -371l438 -702h-211l-362 582l-166 -164v-418h-170v1493h170z" />
    <glyph glyph-name="l" unicode="l" horiz-adv-x="433" 
d="M311 1493v-1493h-172v1493h172z" />
    <glyph glyph-name="m" unicode="m" horiz-adv-x="1651" 
d="M143 1073h158v-151q110 155 262 178q31 4 67 4q183 0 271 -133q10 -15 18 -31q111 133 240 156q41 8 90 8q250 0 301 -201q10 -45 10 -98v-805h-172v739q0 166 -129 205q-33 10 -69 10q-125 0 -201 -110q-51 -76 -51 -170v-674h-172v739q0 179 -146 209q-24 6 -53 6
q-127 0 -203 -114q-49 -74 -49 -166v-674h-172v1073z" />
    <glyph glyph-name="n" unicode="n" horiz-adv-x="1097" 
d="M143 1073h158v-180q110 174 266 203q41 8 90 8q215 0 301 -143q39 -66 39 -150v-811h-170v743q0 144 -121 193q-43 18 -100 18q-172 0 -248 -157q-43 -86 -43 -205v-592h-172v1073z" />
    <glyph glyph-name="o" unicode="o" horiz-adv-x="1097" 
d="M556 1104q312 0 428 -264q60 -133 60 -320q0 -342 -209 -487q-115 -80 -277 -80q-295 0 -417 244q-68 137 -68 331q0 357 215 500q113 76 268 76zM558 946q-190 0 -268 -188q-39 -99 -39 -230q0 -280 160 -378q63 -39 147 -39q185 0 265 180q43 96 43 231q0 297 -168 391
q-62 33 -140 33z" />
    <glyph glyph-name="p" unicode="p" horiz-adv-x="1138" 
d="M110 -446v1519h158v-162q121 193 342 193q260 0 383 -227q78 -146 78 -359q0 -315 -183 -469q-80 -67 -186 -87q-43 -9 -90 -9q-199 0 -330 160v-559h-172zM581 944q-170 0 -250 -172q-49 -102 -49 -244q0 -256 141 -362q68 -53 158 -53q172 0 258 166q53 102 53 243
q0 260 -145 369q-72 53 -166 53z" />
    <glyph glyph-name="q" unicode="q" horiz-adv-x="1138" 
d="M1014 -446h-170v569q-117 -170 -332 -170q-262 0 -383 221q-76 139 -76 342q0 330 186 488q117 100 281 100q219 0 342 -174v143h152v-1519zM545 944q-173 0 -259 -166q-55 -104 -55 -250q0 -249 144 -360q73 -55 170 -55q167 0 249 166q50 102 50 243q0 269 -146 373
q-67 49 -153 49z" />
    <glyph glyph-name="r" unicode="r" horiz-adv-x="730" 
d="M141 1073h158v-194q118 190 237 219q27 6 56 6q22 0 65 -6v-174q-147 -2 -211 -45q-6 -5 -12 -9q-121 -88 -121 -313v-557h-172v1073z" />
    <glyph glyph-name="s" unicode="s" horiz-adv-x="1024" 
d="M896 774h-180q-6 172 -215 172q-168 0 -215 -100q-12 -29 -12 -62q0 -92 135 -137q29 -8 63 -16l164 -39q242 -57 289 -201q14 -43 14 -98q0 -197 -184 -287q-106 -53 -258 -53q-397 0 -426 332q-2 16 -2 34h180q13 -96 49 -137q68 -71 213 -71q172 0 230 96q20 33 20 72
q0 94 -110 133l-56 16l-159 39q-244 59 -308 164q-32 57 -32 145q0 191 172 277q100 51 239 51q297 0 369 -207q20 -55 20 -123z" />
    <glyph glyph-name="t" unicode="t" horiz-adv-x="569" 
d="M520 1073v-139h-177v-735q0 -78 45 -90q19 -7 50 -7q51 0 82 9v-143q-80 -15 -140 -15q-182 0 -205 137q-2 14 -2 33v811h-145v139h145v295h170v-295h177z" />
    <glyph glyph-name="u" unicode="u" horiz-adv-x="1138" 
d="M987 0h-154v150q-114 -162 -266 -188q-41 -9 -92 -9q-219 0 -303 143q-39 66 -39 150v827h170v-760q0 -143 121 -192q45 -19 100 -19q174 0 252 160q41 86 41 203v608h170v-1073z" />
    <glyph glyph-name="v" unicode="v" horiz-adv-x="1024" 
d="M583 0h-186l-377 1073h193l286 -870l303 870h193z" />
    <glyph glyph-name="w" unicode="w" horiz-adv-x="1478" 
d="M1134 0h-194l-217 842l-207 -842h-193l-311 1073h188l220 -835l204 835h209l211 -835l213 835h193z" />
    <glyph glyph-name="x" unicode="x" horiz-adv-x="1024" 
d="M597 555l371 -555h-199l-268 412l-272 -412h-195l379 547l-359 526h195l258 -389l258 389h193z" />
    <glyph glyph-name="y" unicode="y" horiz-adv-x="1024" 
d="M794 1073h184l-477 -1298q-45 -117 -117 -170q-70 -51 -160 -51q-63 0 -114 27v153q55 -12 90 -12q92 0 129 82q4 10 8 22l65 170l-362 1077h182l275 -835z" />
    <glyph glyph-name="z" unicode="z" horiz-adv-x="1024" 
d="M907 1073v-151l-637 -772h665v-150h-872v154l641 770h-598v149h801z" />
    <glyph glyph-name="braceleft" unicode="{" horiz-adv-x="1000" 
d="M451 200q0 250 -76 275l-225 76v99l226 76q75 25 75 274q0 450 349 451h101v-151h-103q-198 0 -198 -299q0 -301 -199 -401q199 -101 200 -400q0 -300 200 -300h100v-150h-101q-349 0 -349 450z" />
    <glyph glyph-name="bar" unicode="|" horiz-adv-x="450" 
d="M150 -100v1400h150v-1400h-150z" />
    <glyph glyph-name="braceright" unicode="}" horiz-adv-x="1000" 
d="M550 1000q0 -250 76 -275l225 -76v-99l-226 -76q-75 -26 -75 -274q0 -450 -349 -451h-101v151h103q198 0 198 299q0 301 199 401q-200 101 -200 400q0 300 -200 300h-100v150h101q349 0 349 -450z" />
    <glyph glyph-name="asciitilde" unicode="~" horiz-adv-x="1200" 
d="M800 250q-149 0 -224 125l-38 63q-38 62 -138 62q-99 0 -99 -100v-150h-151v151q0 249 247 249h3q149 0 226 -125l37 -62q37 -63 138 -63q99 0 99 100v150h150v-150q0 -249 -250 -250z" />
    <glyph glyph-name="Adieresis" unicode="&#xc4;" horiz-adv-x="1100" 
d="M1062 0h-157l-127 400h-451l-123 -400h-156l402 1300h200zM731 550l-181 574l-176 -574h357zM450 1476q0 -75 -74 -75q-75 -1 -75 74t75 75q74 1 74 -74zM651 1476q0 75 75 75q74 -1 74 -75q0 -75 -75 -75t-74 75z" />
    <glyph glyph-name="Aring" unicode="&#xc5;" horiz-adv-x="1100" 
d="M350 1500q0 200 200 200t200 -200q0 -195 -190 -200h90l412 -1300h-157l-127 400h-451l-123 -400h-156l402 1300h90q-190 5 -190 200zM731 550l-181 574l-176 -574h357zM650 1500q0 100 -100 100t-100 -100t100 -100t100 100z" />
    <glyph glyph-name="Ccedilla" unicode="&#xc7;" horiz-adv-x="1150" 
d="M150 651q0 650 500 650q249 0 401 -101v-200q-99 150 -401 150q-350 0 -350 -500t350 -500q301 0 400 150v-199q-152 -101 -400 -101h-2l-48 -100q200 0 200 -175q1 -175 -249 -175q-100 0 -150 99l150 1q149 0 149 75q0 74 -99 74l-150 1l100 207q-401 61 -401 644z" />
    <glyph glyph-name="Eacute" unicode="&#xc9;" horiz-adv-x="1049" 
d="M950 1300v-150h-650v-350h600v-150h-600v-500h650v-150h-800v1300h800zM550 1400h-100l200 400h150z" />
    <glyph glyph-name="Ntilde" unicode="&#xd1;" horiz-adv-x="1100" 
d="M300 976v-976h-150v1300h151l499 -972v972h150v-1300h-151zM706 1400q-98 0 -175 50t-125 50q-49 0 -49 -100h-101q0 200 150 200q98 0 175 -50t125 -50q50 0 50 100h100q0 -200 -150 -200z" />
    <glyph glyph-name="Odieresis" unicode="&#xd6;" horiz-adv-x="1300" 
d="M150 650q0 650 500 650t500 -650t-500 -650t-500 650zM300 650q0 -500 350 -500t350 500t-350 500t-350 -500zM550 1476q0 -75 -74 -75q-75 -1 -75 74t75 75q74 1 74 -74zM751 1476q0 75 75 75q74 -1 74 -75q0 -75 -75 -75t-74 75z" />
    <glyph glyph-name="Udieresis" unicode="&#xdc;" horiz-adv-x="1200" 
d="M600 0q-450 0 -450 400v900h150v-900q0 -250 300 -250t300 250v900h150v-900q0 -400 -450 -400zM500 1476q0 -75 -74 -75q-75 -1 -75 74t75 75q74 1 74 -74zM701 1476q0 75 75 75q74 -1 74 -75q0 -75 -75 -75t-74 75z" />
    <glyph glyph-name="aacute" unicode="&#xe1;" horiz-adv-x="1050" 
d="M100 300q0 350 550 350h101v51q0 150 -251 150q-163 0 -349 -50v150q188 50 350 50q400 0 400 -300v-700h-150v159l-13 -10q-188 -150 -338 -150q-300 0 -300 300zM251 300q0 -149 150 -149q99 0 224 99l125 100v150h-100q-399 0 -399 -200zM500 1150h-100l200 400h150z
" />
    <glyph glyph-name="agrave" unicode="&#xe0;" horiz-adv-x="1050" 
d="M100 300q0 350 550 350h101v51q0 150 -251 150q-163 0 -349 -50v150q188 50 350 50q400 0 400 -300v-700h-150v159l-13 -10q-188 -150 -338 -150q-300 0 -300 300zM251 300q0 -149 150 -149q99 0 224 99l125 100v150h-100q-399 0 -399 -200zM700 1150h-100l-300 350h150z
" />
    <glyph glyph-name="acircumflex" unicode="&#xe2;" horiz-adv-x="1050" 
d="M100 300q0 350 550 350h101v51q0 150 -251 150q-161 0 -349 -50v150q189 50 350 50q400 0 400 -300v-700h-150v159l-13 -10q-188 -150 -338 -150q-300 0 -300 300zM651 500q-400 0 -400 -200q0 -149 150 -149q99 0 224 99l125 100l1 -3v153h-100zM751 1151l-200 199
l-201 -199h-100l301 399l300 -399h-100z" />
    <glyph glyph-name="adieresis" unicode="&#xe4;" horiz-adv-x="1050" 
d="M100 300q0 350 550 350h101v51q0 150 -251 150q-161 0 -349 -50v150q189 50 350 50q400 0 400 -300v-700h-150v159l-13 -10q-188 -150 -338 -150q-300 0 -300 300zM651 500q-400 0 -400 -200q0 -149 150 -149q99 0 224 99l125 100l1 -3v153h-100zM450 1226q0 -75 -74 -75
q-75 -1 -75 74t75 75q74 1 74 -74zM651 1226q0 75 75 75q74 -1 74 -75q0 -75 -75 -75t-74 75z" />
    <glyph glyph-name="atilde" unicode="&#xe3;" horiz-adv-x="1050" 
d="M100 300q0 350 550 350h101v51q0 150 -251 150q-161 0 -349 -50v150q189 50 350 50q400 0 400 -300v-700h-150v159l-13 -10q-188 -150 -338 -150q-300 0 -300 300zM651 500q-400 0 -400 -200q0 -149 150 -149q99 0 224 99l125 100l1 -3v153h-100zM676 1150q-98 0 -175 50
t-125 50q-49 0 -49 -100h-101q0 200 150 200q98 0 175 -50t125 -50q50 0 50 100h100q0 -200 -150 -200z" />
    <glyph glyph-name="aring" unicode="&#xe5;" horiz-adv-x="1050" 
d="M100 300q0 350 550 350h101v51q0 150 -251 150q-161 0 -349 -50v150q189 50 350 50q400 0 400 -300v-700h-150v159l-13 -10q-188 -150 -338 -150q-300 0 -300 300zM651 500q-400 0 -400 -200q0 -149 150 -149q99 0 224 99l125 100l1 -3v153h-100zM650 1250
q0 100 -100 100t-100 -100t100 -100t100 100zM350 1250q0 200 200 200t200 -200t-200 -200t-200 200z" />
    <glyph glyph-name="ccedilla" unicode="&#xe7;" horiz-adv-x="1050" 
d="M150 500q0 500 451 500q202 0 350 -100v-200q-99 150 -351 150q-299 0 -299 -350q0 -349 300 -350q251 0 350 150v-199q-134 -89 -303 -100l-48 -101q200 0 200 -175q1 -175 -249 -175q-100 0 -150 99l150 1q149 0 149 75q0 74 -99 74l-150 1l97 202q-398 28 -398 498z
" />
    <glyph glyph-name="eacute" unicode="&#xe9;" horiz-adv-x="1050" 
d="M501 1001q400 0 400 -400v-151h-650q18 -300 249 -300q249 0 401 150v-199q-151 -100 -401 -100h-2q-397 0 -397 496v4q0 500 400 500zM501 851q-210 0 -245 -251h494v3q0 246 -249 248zM500 1150h-100l200 400h150z" />
    <glyph glyph-name="egrave" unicode="&#xe8;" horiz-adv-x="1050" 
d="M501 1001q400 0 400 -400v-151h-650q18 -300 249 -300q249 0 401 150v-199q-151 -100 -401 -100h-2q-397 0 -397 496v4q0 500 400 500zM501 851q-210 0 -245 -251h494v3q0 246 -249 248zM700 1150h-100l-300 350h150z" />
    <glyph glyph-name="ecircumflex" unicode="&#xea;" horiz-adv-x="1050" 
d="M501 1001q400 0 400 -400v-151h-650q18 -300 249 -300q249 0 401 150v-199q-151 -100 -401 -100h-2q-397 0 -397 496v4q0 500 400 500zM501 851q-210 0 -245 -251h494v3q0 246 -249 248zM751 1151l-200 199l-201 -199h-100l301 399l300 -399h-100z" />
    <glyph glyph-name="edieresis" unicode="&#xeb;" horiz-adv-x="1050" 
d="M501 1001q400 0 400 -400v-151h-650q18 -300 249 -300q249 0 401 150v-199q-151 -100 -401 -100h-2q-397 0 -397 496v4q0 500 400 500zM501 851q-210 0 -245 -251h494v3q0 246 -249 248zM450 1226q0 -75 -74 -75q-75 -1 -75 74t75 75q74 1 74 -74zM651 1226q0 75 75 75
q74 -1 74 -75q0 -75 -75 -75t-74 75z" />
    <glyph glyph-name="iacute" unicode="&#xed;" horiz-adv-x="450" 
d="M150 1000h150v-1000h-150v1000zM250 1150h-100l200 400h150z" />
    <glyph glyph-name="igrave" unicode="&#xec;" horiz-adv-x="450" 
d="M150 1000h150v-1000h-150v1000zM300 1150h-100l-300 350h150z" />
    <glyph glyph-name="icircumflex" unicode="&#xee;" horiz-adv-x="450" 
d="M150 1000h150v-1000h-150v1000zM424 1101l-200 199l-201 -199h-100l301 399l300 -399h-100z" />
    <glyph glyph-name="idieresis" unicode="&#xef;" horiz-adv-x="450" 
d="M150 1000h150v-1000h-150v1000zM375 1300q75 0 75 -75t-75 -75t-75 75t75 75zM75 1300q75 0 75 -75t-75 -75t-75 75t75 75z" />
    <glyph glyph-name="ntilde" unicode="&#xf1;" horiz-adv-x="1100" 
d="M300 900q100 100 250 100q400 0 400 -400v-600h-150v600q0 250 -250 250t-250 -250v-600h-150v1000h150v-100zM706 1150q-98 0 -175 50t-125 50q-49 0 -49 -100h-101q0 200 150 200q98 0 175 -50t125 -50q50 0 50 100h100q0 -200 -150 -200z" />
    <glyph glyph-name="oacute" unicode="&#xf3;" horiz-adv-x="1100" 
d="M551 1001q400 0 400 -500q-2 -500 -401 -500h-2q-397 0 -397 496v4q0 500 400 500zM550 150q250 0 250 350v4q0 346 -250 346t-250 -350t250 -350zM500 1150h-100l200 400h150z" />
    <glyph glyph-name="ograve" unicode="&#xf2;" horiz-adv-x="1100" 
d="M551 1001q400 0 400 -500q-2 -500 -401 -500h-2q-397 0 -397 496v4q0 500 400 500zM550 150q250 0 250 350v4q0 346 -250 346t-250 -350t250 -350zM700 1150h-100l-300 350h150z" />
    <glyph glyph-name="ocircumflex" unicode="&#xf4;" horiz-adv-x="1100" 
d="M551 1001q400 0 400 -500q-2 -500 -401 -500h-2q-397 0 -397 496v4q0 500 400 500zM550 150q250 0 250 350v4q0 346 -250 346t-250 -350t250 -350zM751 1151l-200 199l-201 -199h-100l301 399l300 -399h-100z" />
    <glyph glyph-name="odieresis" unicode="&#xf6;" horiz-adv-x="1100" 
d="M551 1001q400 0 400 -500q-2 -500 -401 -500h-2q-397 0 -397 496v4q0 500 400 500zM550 150q250 0 250 350v4q0 346 -250 346t-250 -350t250 -350zM450 1226q0 -75 -74 -75q-75 -1 -75 74t75 75q74 1 74 -74zM651 1226q0 75 75 75q74 -1 74 -75q0 -75 -75 -75t-74 75z
" />
    <glyph glyph-name="otilde" unicode="&#xf5;" horiz-adv-x="1100" 
d="M551 1001q400 0 400 -500q-2 -500 -401 -500h-2q-397 0 -397 496v4q0 500 400 500zM550 150q250 0 250 350v4q0 346 -250 346t-250 -350t250 -350zM700 1150q-98 0 -175 50t-125 50q-49 0 -49 -100h-101q0 200 150 200q98 0 175 -50t125 -50q50 0 50 100h100
q0 -200 -150 -200z" />
    <glyph glyph-name="uacute" unicode="&#xfa;" horiz-adv-x="1100" 
d="M550 150q250 0 250 250v600h150v-1000h-150v100q-100 -100 -250 -100q-400 0 -400 400v600h150v-600q0 -250 250 -250zM500 1150h-100l200 400h150z" />
    <glyph glyph-name="ugrave" unicode="&#xf9;" horiz-adv-x="1100" 
d="M550 150q250 0 250 250v600h150v-1000h-150v100q-100 -100 -250 -100q-400 0 -400 400v600h150v-600q0 -250 250 -250zM700 1150h-100l-300 350h150z" />
    <glyph glyph-name="ucircumflex" unicode="&#xfb;" horiz-adv-x="1100" 
d="M550 150q250 0 250 250v600h150v-1000h-150v100q-100 -100 -250 -100q-400 0 -400 400v600h150v-600q0 -250 250 -250zM751 1151l-200 199l-201 -199h-100l301 399l300 -399h-100z" />
    <glyph glyph-name="udieresis" unicode="&#xfc;" horiz-adv-x="1100" 
d="M550 150q250 0 250 250v600h150v-1000h-150v100q-100 -100 -250 -100q-400 0 -400 400v600h150v-600q0 -250 250 -250zM450 1226q0 -75 -74 -75q-75 -1 -75 74t75 75q74 1 74 -74zM651 1226q0 75 75 75q74 -1 74 -75q0 -75 -75 -75t-74 75z" />
    <glyph glyph-name="dagger" unicode="&#x2020;" horiz-adv-x="1050" 
d="M50 850v150h400v400h150v-400h400v-150h-400v-850h-150v850h-400z" />
    <glyph glyph-name="degree" unicode="&#xb0;" horiz-adv-x="1100" 
d="M800 950q0 250 -250 250t-250 -250t250 -250t250 250zM201 950q0 350 349 350q350 0 350 -350t-350 -350q-349 0 -349 350z" />
    <glyph glyph-name="cent" unicode="&#xa2;" horiz-adv-x="1051" 
d="M903 1134l-69 -174q62 -23 117 -60v-200q-59 88 -170 125l-262 -667q37 -8 82 -8q251 0 350 150v-199q-152 -101 -350 -101q-76 0 -139 14l-72 -184l-92 37l70 179q-217 106 -217 454q0 500 450 500q72 0 137 -13l72 183zM601 850q-300 0 -300 -350q0 -227 125 -306
l256 651q-38 5 -81 5z" />
    <glyph glyph-name="sterling" unicode="&#xa3;" horiz-adv-x="600" 
d="M300 700v-450l300 -100v100h100v-100q0 -150 -100 -150l-300 100l-150 -100q-150 0 -150 125t150 125v450h-121v150h121v200q0 350 300 350h150v-150h-150q-150 0 -150 -199v-201h250v-150h-250z" />
    <glyph glyph-name="section" unicode="&#xa7;" horiz-adv-x="1050" 
d="M551 151q249 0 249 135q0 134 -249 134q-401 0 -401 290q0 142 96 215q-96 73 -96 215q0 291 400 291q251 0 351 -100v-201q-101 150 -350 150q-250 0 -250 -140q0 -131 219 -139h30v-1h1q399 0 399 -285q0 -145 -96 -219q96 -71 96 -211q0 -285 -399 -285
q-253 0 -401 100v200q152 -149 401 -149zM301 710q0 -140 250 -140h12q237 3 237 146q0 134 -249 134h-14q-236 -4 -236 -140z" />
    <glyph glyph-name="bullet" unicode="&#x2022;" horiz-adv-x="1100" 
d="M200 550q0 350 349 350q350 0 350 -350t-350 -350q-349 0 -349 350z" />
    <glyph glyph-name="paragraph" unicode="&#xb6;" horiz-adv-x="1050" 
d="M600 1800h450v-100h-100v-1700h-100v1700h-150v-1700h-100v800q-499 1 -499 497v4q0 500 499 499z" />
    <glyph glyph-name="germandbls" unicode="&#xdf;" horiz-adv-x="1050" 
d="M700 975q0 175 -200 175t-200 -150v-750q0 -250 -250 -250v150q100 0 100 100v750q0 300 350 300t350 -325q0 -151 -75 -232q175 -94 175 -343q0 -400 -450 -400h-100v150h100q300 0 300 250q0 128 -68.5 189t-231.5 61h-100v150h100q200 0 200 175z" />
    <glyph glyph-name="registered" unicode="&#xae;" horiz-adv-x="1500" 
d="M750 1300q650 0 650 -650t-650 -650t-650 650t650 650zM750 100q550 0 550 550t-550 550t-550 -550t550 -550zM688 1094q309 0 309 -275q0 -198 -162 -254l266 -364h-128l-250 344q-1 -1 -9 -1h-163v-343h-103v893h240zM894 819q0 172 -206 172h-137v-343h137
q206 0 206 171z" />
    <glyph glyph-name="copyright" unicode="&#xa9;" horiz-adv-x="1500" 
d="M750 1300q650 0 650 -650t-650 -650t-650 650t650 650zM750 100q550 0 550 550t-550 550t-550 -550t550 -550zM397 651q0 450 346 450q173 0 278 -70v-138q-69 103 -278 103q-242 0 -242 -346t242 -346q209 0 277 104v-138q-105 -70 -277 -70q-346 0 -346 451z" />
    <glyph glyph-name="trademark" unicode="&#x2122;" horiz-adv-x="1550" 
d="M50 1196v104h657v-104h-277v-795h-103v795h-277zM1364 1095l-242 -417l-242 417v-694h-104v899h104l242 -416l242 416h104v-899h-104v694z" />
    <glyph glyph-name="glyph139" unicode="&#xb4;" 
d="M50 1300h-100l200 400h150z" />
    <glyph glyph-name="dieresis" unicode="&#xa8;" 
d="M-100 1376q0 -75 -74 -75q-75 -1 -75 74t75 75q74 1 74 -74zM101 1376q0 75 75 75q74 -1 74 -75q0 -75 -75 -75t-74 75z" />
    <glyph glyph-name="AE" unicode="&#xc6;" horiz-adv-x="1400" 
d="M1350 1300v-150h-650v-350h600v-150h-600v-500h650v-150h-800v400h-223l-123 -400h-156l402 1300h900zM550 550v574l-176 -574h176z" />
    <glyph glyph-name="Oslash" unicode="&#xd8;" horiz-adv-x="1300" 
d="M1069 1392l-97 -198q178 -157 178 -544q0 -650 -500 -650q-138 0 -238 49l-91 -186l-89 44l97 198q-179 156 -179 545q0 650 500 650q138 0 238 -50l91 186zM300 650q0 -271 102 -395l417 855q-71 40 -169 40q-350 0 -350 -500zM650 150q350 0 350 500q0 269 -102 393
l-417 -853q70 -40 169 -40z" />
    <glyph glyph-name="plusminus" unicode="&#xb1;" horiz-adv-x="1250" 
d="M700 699v-399h-150v400h-400v150h400v400h150v-400h400v-151h-400zM150 0v150h950v-151z" />
    <glyph glyph-name="yen" unicode="&#xa5;" horiz-adv-x="1101" 
d="M100 250v100h376v200h-376v100h363l-398 650h176l309 -509l322 509h176l-411 -650h363v-100h-375v-200h375v-100h-375v-250h-149v250h-376z" />
    <glyph glyph-name="mu" unicode="&#xb5;" horiz-adv-x="1100" 
d="M550 150q250 0 250 250v600h150v-1000h-150v100q-100 -100 -250 -100q-155 0 -250 60v-410h-150v1350h150v-600q0 -250 250 -250z" />
    <glyph glyph-name="ordfeminine" unicode="&#xaa;" horiz-adv-x="1050" 
d="M100 915q0 193 303 193h56v28q0 82 -138 82q-90 0 -193 -27v82q104 28 193 28q221 0 221 -165v-385h-83v87l-7 -5q-104 -83 -186 -83q-166 0 -166 165zM183 915q0 -82 83 -82q55 0 124 55l69 55v82h-56q-220 0 -220 -110zM100 700h450v-50h-450v50z" />
    <glyph glyph-name="ordmasculine" unicode="&#xba;" horiz-adv-x="1050" 
d="M100 700h450v-50h-450v50zM325 1300q225 0 225 -275q-1 -275 -226 -275h-1q-223 0 -223 273v2q0 275 225 275zM324 832q141 0 141 192v3q0 190 -141 190q-140 0 -140 -193q0 -192 140 -192z" />
    <glyph glyph-name="ae" unicode="&#xe6;" horiz-adv-x="1650" 
d="M1151 1001q400 0 400 -400v-151h-650q18 -300 249 -300q249 0 401 150v-199q-151 -100 -401 -100h-2q-252 0 -344 199l-66 -50q-188 -150 -338 -150q-300 0 -300 300q0 350 550 350h101v51q0 150 -251 150q-163 0 -349 -50v150q188 50 350 50q258 0 350 -125
q100 125 300 125zM251 300q0 -149 150 -149q99 0 224 99l125 100v150h-100q-399 0 -399 -200zM1151 851q-210 0 -245 -251h494v3q0 246 -249 248z" />
    <glyph glyph-name="oslash" unicode="&#xf8;" horiz-adv-x="1100" 
d="M853 1134l-76 -192q174 -112 174 -441q-2 -500 -401 -500h-2q-74 0 -134 17l-74 -188l-92 37l75 191q-172 112 -172 439v4q0 500 400 500q75 0 135 -18l74 187zM550 850q-250 0 -250 -350q0 -203 83 -288l247 627q-37 11 -80 11zM550 150q250 0 250 350v4q0 199 -83 284
l-247 -628q36 -10 80 -10z" />
    <glyph glyph-name="questiondown" unicode="&#xbf;" horiz-adv-x="1100" 
d="M151 400q0 350 350 350v250h150v-400h-150q-200 0 -200 -201q0 -250 250 -250t250 151h150q0 -300 -400 -300h-3q-397 0 -397 400zM576 1300q75 0 75 -75t-75 -75t-75 75t75 75z" />
    <glyph glyph-name="exclamdown" unicode="&#xa1;" horiz-adv-x="450" 
d="M301 100q0 -100 -50 -100h-50q-50 0 -50 100t12.5 324t37.5 576h50q25 -352 37.5 -576t12.5 -324zM150 1224q0 32 22 54t53 22q32 0 54 -22t22 -54t-22 -54t-54 -22q-31 0 -53 22t-22 54z" />
    <glyph glyph-name="logicalnot" unicode="&#xac;" horiz-adv-x="1001" 
d="M1 850v150h1000v-500h-150v350h-850z" />
    <glyph glyph-name="florin" unicode="&#x192;" horiz-adv-x="600" 
d="M300 850v-500q0 -350 -300 -350h-150v150h150q150 0 150 199v501h-121v150h121v50q0 350 300 350h150v-150h-150q-150 0 -150 -199v-51h250v-150h-250z" />
    <glyph glyph-name="guillemotleft" unicode="&#xab;" horiz-adv-x="950" 
d="M499 601l-199 -200l199 -201v-100l-399 301l399 300v-100zM849 601l-199 -200l199 -201v-100l-399 301l399 300v-100z" />
    <glyph glyph-name="guillemotright" unicode="&#xbb;" horiz-adv-x="950" 
d="M451 199l199 200l-199 201v100l399 -301l-399 -300v100zM101 199l199 200l-199 201v100l399 -301l-399 -300v100z" />
    <glyph glyph-name="ellipsis" unicode="&#x2026;" horiz-adv-x="1750" 
d="M1600 75q0 -31 -22 -53t-53 -22t-53 22t-22 53t22 53t53 22t53 -22t22 -53zM952 75q0 -31 -22 -53t-53 -22t-53 22t-22 53t22 53t53 22t53 -22t22 -53zM300 75q0 -31 -22 -53t-53 -22t-53 22t-22 53t22 53t53 22t53 -22t22 -53z" />
    <glyph glyph-name="zerowidthspace" unicode="&#x200b;" 
 />
    <glyph glyph-name="Agrave" unicode="&#xc0;" horiz-adv-x="1100" 
d="M1062 0h-157l-127 400h-451l-123 -400h-156l402 1300h200zM731 550l-181 574l-176 -574h357zM700 1400h-100l-300 350h150z" />
    <glyph glyph-name="Atilde" unicode="&#xc3;" horiz-adv-x="1100" 
d="M1062 0h-157l-127 400h-451l-123 -400h-156l402 1300h200zM731 550l-181 574l-176 -574h357zM706 1400q-98 0 -175 50t-125 50q-49 0 -49 -100h-101q0 200 150 200q98 0 175 -50t125 -50q50 0 50 100h100q0 -200 -150 -200z" />
    <glyph glyph-name="Otilde" unicode="&#xd5;" horiz-adv-x="1300" 
d="M150 650q0 650 500 650t500 -650t-500 -650t-500 650zM300 650q0 -500 350 -500t350 500t-350 500t-350 -500zM796 1400q-98 0 -175 50t-125 50q-49 0 -49 -100h-101q0 200 150 200q98 0 175 -50t125 -50q50 0 50 100h100q0 -200 -150 -200z" />
    <glyph glyph-name="OE" unicode="&#x152;" horiz-adv-x="1600" 
d="M1500 1300v-150h-650v-350h600v-150h-600v-500h650v-150h-850q-500 0 -500 651q0 649 500 649h850zM300 650q0 -500 350 -500h50v1000h-50q-350 0 -350 -500z" />
    <glyph glyph-name="oe" unicode="&#x153;" horiz-adv-x="1700" 
d="M1200 1001q400 0 400 -400v-151h-650q18 -300 249 -300q249 0 401 150v-199q-151 -100 -401 -100h-2q-226 0 -323 160q-98 -160 -324 -160h-2q-397 0 -397 496v4q0 500 400 500q226 0 324 -161q98 161 325 161zM550 150q249 0 250 347v4v3q0 346 -250 346t-250 -350
t250 -350zM1200 851q-210 0 -245 -251h494v3q0 246 -249 248z" />
    <glyph glyph-name="endash" unicode="&#x2013;" horiz-adv-x="1100" 
d="M0 550v150h1100v-150h-1100z" />
    <glyph glyph-name="emdash" unicode="&#x2014;" horiz-adv-x="1800" 
d="M0 850h1800v-150h-1800v150z" />
    <glyph glyph-name="quotedblleft" unicode="&#x201c;" horiz-adv-x="650" 
d="M333 939l-47 -21q-160 228 -182 276q-31 66 38 98q67 31 98 -36l1 -3q16 -34 39 -112t53 -202zM593 939l-47 -21q-160 228 -182 276q-31 66 38 98q67 31 98 -36l1 -3q16 -34 39 -112t53 -202z" />
    <glyph glyph-name="quotedblright" unicode="&#x201d;" horiz-adv-x="650" 
d="M133 954l-39 33q137 242 171 283q47 56 105 7q57 -47 10 -104l-3 -2q-24 -29 -84.5 -83t-159.5 -134zM411 953l-39 33q137 243 171 283q47 56 105 8q57 -48 9 -104l-2 -3q-24 -29 -84.5 -83t-159.5 -134z" />
    <glyph glyph-name="quoteleft" unicode="&#x2018;" horiz-adv-x="448" 
d="M332 939l-47 -21q-160 228 -182 276q-31 66 38 98q67 31 98 -36l1 -3q16 -34 39 -112t53 -202z" />
    <glyph glyph-name="quoteright" unicode="&#x2019;" horiz-adv-x="495" 
d="M132 954l-39 33q137 242 171 283q47 56 105 7q57 -47 10 -104l-3 -2q-24 -29 -84.5 -83t-159.5 -134z" />
    <glyph glyph-name="divide" unicode="&#xf7;" horiz-adv-x="1150" 
d="M1000 450h-850v150h850v-150zM650 225q0 -31 -22 -53t-53 -22t-53 22t-22 53t22 53t53 22t53 -22t22 -53zM650 825q0 -31 -22 -53t-53 -22t-53 22t-22 53t22 53t53 22t53 -22t22 -53z" />
    <glyph glyph-name="ydieresis" unicode="&#xff;" horiz-adv-x="1100" 
d="M258 -400l209 489l-377 911h162l298 -716l306 716h163l-598 -1400h-163zM450 1226q0 -75 -74 -75q-75 -1 -75 74t75 75q74 1 74 -74zM651 1226q0 75 75 75q74 -1 74 -75q0 -75 -75 -75t-74 75z" />
    <glyph glyph-name="Ydieresis" unicode="&#x178;" horiz-adv-x="1101" 
d="M65 1300h176l309 -509l322 509h176l-423 -670v-630h-149v629zM450 1476q0 -75 -74 -75q-75 -1 -75 74t75 75q74 1 74 -74zM651 1476q0 75 75 75q74 -1 74 -75q0 -75 -75 -75t-74 75z" />
    <glyph glyph-name="currency" unicode="&#xa4;" horiz-adv-x="1100" 
d="M266 905l60 -61q84 56 223 56q140 0 224 -56l60 59l71 -70l-61 -60q56 -84 56 -223t-55 -223l59 -59l-71 -71l-59 59q-84 -56 -224 -56q-139 0 -223 55l-59 -59l-71 71l59 59q-56 84 -56 224t56 224l-59 60zM799 550q0 250 -250 250t-250 -250t250 -250t250 250z" />
    <glyph glyph-name="guilsinglleft" unicode="&#x2039;" horiz-adv-x="600" 
d="M500 600l-200 -200l200 -200v-100l-400 300l400 300v-100z" />
    <glyph glyph-name="guilsinglright" unicode="&#x203a;" horiz-adv-x="600" 
d="M100 200l199 200l-199 200v100l400 -300l-400 -300v100z" />
    <glyph glyph-name="daggerdbl" unicode="&#x2021;" horiz-adv-x="1250" 
d="M700 -1v-399h-150v400h-400v150h400v450h-400v150h400v400h150v-400h400v-151h-400v-449h400v-151h-400z" />
    <glyph glyph-name="periodcentered" unicode="&#xb7;" horiz-adv-x="600" 
d="M500 500q0 -200 -200 -200t-200 200t200 200t200 -200z" />
    <glyph glyph-name="quotesinglbase" unicode="&#x201a;" horiz-adv-x="450" 
d="M344 10q0 -21 -13 -43l-135 -234l-88 29l50 280q6 25 27.5 41t47.5 16q39 0 73 -25q38 -27 38 -64z" />
    <glyph glyph-name="quotedblbase" unicode="&#x201e;" horiz-adv-x="800" 
d="M344 10q0 -21 -13 -43l-135 -234l-88 29l50 280q6 25 27.5 41t47.5 16q39 0 73 -25q38 -27 38 -64zM686 10q0 -21 -13 -43l-135 -234l-88 29l50 280q6 25 27.5 41t47.5 16q39 0 73 -25q38 -27 38 -64z" />
    <glyph glyph-name="perthousand" unicode="&#x2030;" horiz-adv-x="2050" 
d="M294 -204l-144 80l895 1616l145 -79zM975 451q225 0 225 -225t-224 -225q-225 0 -225 225v3q0 222 224 222zM1050 225q0 75 -75 75t-75 -75t75 -75t75 75zM375 1301q225 0 225 -225t-224 -225q-225 0 -225 225v3q0 222 224 222zM450 1075q0 75 -75 75t-75 -75t75 -75
t75 75zM1675 451q225 0 225 -225t-224 -225q-225 0 -225 225v3q0 222 224 222zM1750 225q0 75 -75 75t-75 -75t75 -75t75 75z" />
    <glyph glyph-name="Acircumflex" unicode="&#xc2;" horiz-adv-x="1100" 
d="M1062 0h-157l-127 400h-451l-123 -400h-156l402 1300h200zM731 550l-181 574l-176 -574h357zM751 1401l-200 199l-201 -199h-100l301 399l300 -399h-100z" />
    <glyph glyph-name="Ecircumflex" unicode="&#xca;" horiz-adv-x="1049" 
d="M950 1300v-150h-650v-350h600v-150h-600v-500h650v-150h-800v1300h800zM751 1401l-200 199l-201 -199h-100l301 399l300 -399h-100z" />
    <glyph glyph-name="Aacute" unicode="&#xc1;" horiz-adv-x="1100" 
d="M1062 0h-157l-127 400h-451l-123 -400h-156l402 1300h200zM731 550l-181 574l-176 -574h357zM550 1400h-100l200 400h150z" />
    <glyph glyph-name="Edieresis" unicode="&#xcb;" horiz-adv-x="1049" 
d="M950 1300v-150h-650v-350h600v-150h-600v-500h650v-150h-800v1300h800zM450 1476q0 -75 -74 -75q-75 -1 -75 74t75 75q74 1 74 -74zM651 1476q0 75 75 75q74 -1 74 -75q0 -75 -75 -75t-74 75z" />
    <glyph glyph-name="Egrave" unicode="&#xc8;" horiz-adv-x="1049" 
d="M950 1300v-150h-650v-350h600v-150h-600v-500h650v-150h-800v1300h800zM700 1400h-100l-300 350h150z" />
    <glyph glyph-name="Iacute" unicode="&#xcd;" horiz-adv-x="650" 
d="M100 150h150v1000h-150v150h450v-150h-150v-1000h150v-150h-450v150zM350 1400h-100l200 400h150z" />
    <glyph glyph-name="Icircumflex" unicode="&#xce;" horiz-adv-x="650" 
d="M100 150h150v1000h-150v150h450v-150h-150v-1000h150v-150h-450v150zM526 1399l-200 199l-201 -199h-100l301 399l300 -399h-100z" />
    <glyph glyph-name="Idieresis" unicode="&#xcf;" horiz-adv-x="650" 
d="M100 150h150v1000h-150v150h450v-150h-150v-1000h150v-150h-450v150zM250 1476q0 -75 -74 -75q-75 -1 -75 74t75 75q74 1 74 -74zM401 1476q0 75 75 75q74 -1 74 -75q0 -75 -75 -75t-74 75z" />
    <glyph glyph-name="Igrave" unicode="&#xcc;" horiz-adv-x="650" 
d="M100 150h150v1000h-150v150h450v-150h-150v-1000h150v-150h-450v150zM400 1400h-100l-300 350h150z" />
    <glyph glyph-name="Oacute" unicode="&#xd3;" horiz-adv-x="1300" 
d="M150 650q0 650 500 650t500 -650t-500 -650t-500 650zM300 650q0 -500 350 -500t350 500t-350 500t-350 -500zM600 1400h-100l200 400h150z" />
    <glyph glyph-name="Ocircumflex" unicode="&#xd4;" horiz-adv-x="1300" 
d="M150 650q0 650 500 650t500 -650t-500 -650t-500 650zM300 650q0 -500 350 -500t350 500t-350 500t-350 -500zM850 1401l-200 199l-201 -199h-100l301 399l300 -399h-100z" />
    <glyph glyph-name="Ograve" unicode="&#xd2;" horiz-adv-x="1300" 
d="M150 650q0 650 500 650t500 -650t-500 -650t-500 650zM300 650q0 -500 350 -500t350 500t-350 500t-350 -500zM750 1400h-100l-300 350h150z" />
    <glyph glyph-name="Uacute" unicode="&#xda;" horiz-adv-x="1200" 
d="M600 0q-450 0 -450 400v900h150v-900q0 -250 300 -250t300 250v900h150v-900q0 -400 -450 -400zM600 1400h-100l200 400h150z" />
    <glyph glyph-name="Ucircumflex" unicode="&#xdb;" horiz-adv-x="1200" 
d="M600 0q-450 0 -450 400v900h150v-900q0 -250 300 -250t300 250v900h150v-900q0 -400 -450 -400zM801 1401l-200 199l-201 -199h-100l301 399l300 -399h-100z" />
    <glyph glyph-name="Ugrave" unicode="&#xd9;" horiz-adv-x="1200" 
d="M600 0q-450 0 -450 400v900h150v-900q0 -250 300 -250t300 250v900h150v-900q0 -400 -450 -400zM750 1400h-100l-300 350h150z" />
    <glyph glyph-name="circumflex" unicode="&#x2c6;" 
d="M200 1400l-200 200l-200 -200h-100l300 400l300 -400h-100z" />
    <glyph glyph-name="glyph196" unicode="&#x2dc;" 
d="M150 1400q-98 0 -175 50t-125 50q-49 0 -49 -100h-101q0 200 150 200q98 0 175 -50t125 -50q50 0 50 100h100q0 -200 -150 -200z" />
    <glyph glyph-name="macron" unicode="&#xaf;" 
d="M-400 1300v150h800v-150h-800z" />
    <glyph glyph-name="cedilla" unicode="&#xb8;" 
d="M150 100l-100 -200q200 0 200 -175t-250 -175q-100 0 -150 100h150q150 0 150 75t-100 75h-150l150 300h100z" />
    <glyph glyph-name="notequal" unicode="&#x2260;" horiz-adv-x="1100" 
d="M821 1185l-100 -236h230v-149h-294l-105 -249h399v-151h-463l-116 -274l-91 39l99 235h-230v151h294l106 249h-400v149h463l117 275z" />
    <glyph glyph-name="infinity" unicode="&#x221e;" horiz-adv-x="1700" 
d="M200 350q0 350 350 350q218 0 300 -136q82 136 300 136q350 0 350 -350t-350 -350q-218 0 -300 135q-82 -135 -300 -135q-350 0 -350 350zM1400 350q0 250 -250 250t-250 -250t250 -250t250 250zM800 350v12q-7 238 -250 238q-250 0 -250 -250t250 -250t250 250z" />
    <glyph glyph-name="lessequal" unicode="&#x2264;" horiz-adv-x="1250" 
d="M1101 249l-951 455v100l951 452l35 -145l-753 -357l753 -357zM150 1v149l1001 1v-150h-1001z" />
    <glyph glyph-name="greaterequal" unicode="&#x2265;" horiz-adv-x="1250" 
d="M150 0v150h1000v-150h-1000zM201 242l-35 147l765 362l-765 352l35 145l949 -452v-100z" />
    <glyph glyph-name="partialdiff" unicode="&#x2202;" horiz-adv-x="1100" 
d="M630 847q153 -27 235 -107l29 163q43 246 -104 272q-197 34 -183 108.5t210 39.5q295 -54 226 -446l-92 -518h-1q-73 -418 -467 -349q-394 70 -320 489q73 418 467 348zM509 158q246 -43 294 227q48 271 -199 315q-246 43 -294 -228q-47 -271 199 -314z" />
    <glyph glyph-name="summation" unicode="&#x2211;" horiz-adv-x="1100" 
d="M150 1500h800v-150h-650l400 -700l-400 -700h650v-150h-800v150l400 700l-400 700v150z" />
    <glyph glyph-name="product" unicode="&#x220f;" horiz-adv-x="1150" 
d="M150 1300h850v-1300h-150v1150h-550v-1150h-150v1300z" />
    <glyph glyph-name="pi" unicode="&#x3c0;" horiz-adv-x="1150" 
d="M150 1300h850v-1300h-150v1150h-550v-1150h-150v1300z" />
    <glyph glyph-name="integral" unicode="&#x222b;" horiz-adv-x="650" 
d="M600 1300q-200 0 -200 -200v-900q0 -350 -350 -350v150q200 0 200 200v900q0 350 350 350v-150z" />
    <glyph glyph-name="Omega" unicode="&#x3a9;" horiz-adv-x="1300" 
d="M1151 149l-1 -150h-400v501q250 0 250 350q0 300 -350 300t-350 -300q0 -350 250 -350v-500v-1h-400l1 150h250v222q-251 83 -251 479q0 450 500 450t500 -450q0 -395 -250 -478v-223h251z" />
    <glyph glyph-name="radical" unicode="&#x221a;" horiz-adv-x="1100" 
d="M456 0l-204 650l-203 88h330l175 -562l342 1124h154l-397 -1300h-197z" />
    <glyph glyph-name="approxequal" unicode="&#x2248;" horiz-adv-x="1100" 
d="M150 800v149q200 100 300 50t200.5 -50t300.5 70v-149q-200 -70 -300.5 -70t-200.5 50t-300 -50zM150 400v151q200 100 300 50t200.5 -50t300.5 70v-151q-200 -70 -300.5 -70t-200.5 50t-300 -50z" />
    <glyph glyph-name="Delta" unicode="&#x394;" horiz-adv-x="1100" 
d="M1062 0h-1014l402 1300h200zM550 1124l-300 -974h607z" />
    <glyph glyph-name="lozenge" unicode="&#x25ca;" horiz-adv-x="1600" 
d="M101 700l699 700l700 -700l-700 -700zM800 210l490 490l-490 490l-489 -490z" />
    <glyph glyph-name="fraction" unicode="&#x2044;" horiz-adv-x="1000" 
d="M177 -67l-128 78l775 1285l128 -77z" />
    <glyph glyph-name="fi" unicode="&#xfb01;" horiz-adv-x="950" 
d="M300 850v-850h-150v850h-121v150h121v50q0 350 300 350h350v-150h-350q-150 0 -150 -199v-51h500v-1000h-150v850h-350z" />
    <glyph glyph-name="fl" unicode="&#xfb02;" horiz-adv-x="950" 
d="M300 850v-850h-150v850h-121v150h121v50q0 350 300 350h350v-1400h-150v1250h-200q-150 0 -150 -199v-51h250v-150h-250z" />
    <glyph glyph-name="dotlessi" unicode="&#x131;" horiz-adv-x="450" 
d="M150 1000h150v-1000h-150v1000z" />
    <glyph glyph-name="breve" unicode="&#x2d8;" 
d="M-1 1400q-251 0 -300 349h100q51 -199 201 -199q151 0 200 199h100q-49 -349 -301 -349z" />
    <glyph glyph-name="dotaccent" unicode="&#x2d9;" 
d="M-100 1350q0 100 100 100t100 -100t-100 -100t-100 100z" />
    <glyph glyph-name="ring" unicode="&#x2da;" 
d="M-100 1350q0 -100 100 -100t100 100t-100 100t-100 -100zM0 1150q-200 0 -200 200t200 200t200 -200t-200 -200z" />
    <glyph glyph-name="hungarumlaut" unicode="&#x2dd;" horiz-adv-x="797" 
d="M132 954l-39 33q137 242 171 283q47 56 105 7q57 -47 10 -104l-3 -2q-24 -29 -84.5 -83t-159.5 -134zM432 954l-39 33q137 242 171 283q47 56 105 7q57 -47 10 -104l-3 -2q-24 -29 -84.5 -83t-159.5 -134z" />
    <glyph glyph-name="ogonek" unicode="&#x2db;" 
d="M150 100l-100 -200l-50 -100l-25 -50q-55 -100 25 -100q150 0 150 50t50 50h50q0 -200 -250 -200q-100 0 -125 75t25 175l150 300h100z" />
    <glyph glyph-name="caron" unicode="&#x2c7;" 
d="M-200 1800l200 -200l200 200h100l-300 -400l-300 400h100z" />
    <glyph glyph-name="Itilde" unicode="&#x128;" horiz-adv-x="650" 
d="M100 150h150v1000h-150v150h450v-150h-150v-1000h150v-150h-450v150zM476 1400q-98 0 -175 50t-125 50q-49 0 -49 -100h-101q0 200 150 200q98 0 175 -50t125 -50q50 0 50 100h100q0 -200 -150 -200z" />
    <glyph glyph-name="itilde" unicode="&#x129;" horiz-adv-x="450" 
d="M150 1000h150v-1000h-150v1000zM376 1200q-98 0 -175 50t-125 50q-49 0 -49 -100h-101q0 200 150 200q98 0 175 -50t125 -50q50 0 50 100h100q0 -200 -150 -200z" />
    <glyph glyph-name="Scaron" unicode="&#x160;" horiz-adv-x="1100" 
d="M551 151q248 0 250 249q0 200 -246 200h-4q-401 0 -401 350q0 351 400 351q251 0 351 -100v-201q-101 150 -350 150q-250 0 -250 -200t250 -200h3q396 0 396 -349q0 -400 -399 -401q-253 0 -401 100v200q152 -149 401 -149zM350 1800l200 -200l200 200h100l-300 -400
l-300 400h100z" />
    <glyph glyph-name="scaron" unicode="&#x161;" horiz-adv-x="1050" 
d="M551 151q249 0 249 135q0 134 -249 134q-401 0 -401 290q0 291 400 291q251 0 351 -100v-201q-101 150 -350 150q-250 0 -250 -140t250 -140q399 0 399 -285t-399 -285q-253 0 -401 100v200q152 -149 401 -149zM350 1550l200 -200l200 200h100l-300 -400l-300 400h100z
" />
    <glyph glyph-name="brokenbar" unicode="&#xa6;" horiz-adv-x="450" 
d="M150 0v800h150v-800h-150zM150 1000v800h150v-800h-150z" />
    <glyph glyph-name="Dstroke" unicode="&#x110;" horiz-adv-x="1149" 
d="M-1 600v150h150v550h400q500 0 500 -650t-500 -650h-400v600h-150zM899 650q0 500 -350 500h-250v-400h300v-150h-300v-450h250q350 0 350 500z" />
    <glyph glyph-name="eth" unicode="&#xf0;" horiz-adv-x="1100" 
d="M-94 1176l482 177l-255 420l128 78l271 -446l510 188l52 -141l-483 -177l254 -418q14 -18 24 -40h1q62 -119 62 -316q-2 -500 -401 -500h-2q-397 0 -397 496v4q0 500 400 500q27 0 52 -3l-136 224l-510 -187zM551 150q250 0 250 350v4q0 346 -250 346t-250 -350t250 -350
z" />
    <glyph glyph-name="Yacute" unicode="&#xdd;" horiz-adv-x="1106" 
d="M65 1300h176l309 -509l322 509h176l-423 -670v-630h-149v629zM600 1400h-100l200 400h150z" />
    <glyph glyph-name="yacute" unicode="&#xfd;" horiz-adv-x="1100" 
d="M258 -400l209 489l-377 911h162l298 -716l306 716h163l-598 -1400h-163zM500 1150h-100l200 400h150z" />
    <glyph glyph-name="Thorn" unicode="&#xde;" horiz-adv-x="1050" 
d="M150 1300h150v-250h200q450 0 450 -400t-450 -400h-200v-250h-150v1300zM800 650q0 250 -300 250h-200v-500h200q300 0 300 250z" />
    <glyph glyph-name="thorn" unicode="&#xfe;" horiz-adv-x="1050" 
d="M300 925q94 76 251 76q400 0 400 -500q-2 -500 -401 -500h-6q-149 0 -244 74v-475h-150v1700h150v-375zM550 150q250 0 250 350t-250 350t-250 -350t250 -350z" />
    <glyph glyph-name="minus" unicode="&#xad;" horiz-adv-x="1100" 
d="M150 400v150h800v-150h-800z" />
    <glyph glyph-name="multiply" unicode="&#xd7;" horiz-adv-x="1100" 
d="M656 574l282 -282l-106 -106l-283 283l-283 -283l-106 106l283 283l-283 283l106 106l283 -283l283 283l107 -107z" />
    <glyph glyph-name="onesuperior" unicode="&#xb9;" horiz-adv-x="400" 
d="M154 1092h-104v104q69 0 104 104h104v-796h104v-104h-312v104h104v588z" />
    <glyph glyph-name="twosuperior" unicode="&#xb2;" horiz-adv-x="850" 
d="M703 1033q0 -76 -106 -193l-305 -336h411v-104h-553v101l362 399q87 96 87 132q0 164 -173 164q-172 0 -172 -173h-104q0 277 276 277q277 0 277 -267z" />
    <glyph glyph-name="threesuperior" unicode="&#xb3;" horiz-adv-x="850" 
d="M427 1301q277 0 277 -248q0 -130 -83 -189q83 -67 83 -215q0 -249 -277 -249q-276 0 -276 243h104q0 -139 172 -139t172 145q0 167 -172 167h-69v104h69q91 0 131.5 35t40.5 98q0 144 -172 144t-172 -138h-104q0 242 276 242z" />
    <glyph glyph-name="onehalf" unicode="&#xbd;" horiz-adv-x="1550" 
d="M154 1092h-104v104q69 0 104 104h104v-796h104v-104h-312v104h104v588zM1450 633q0 -76 -106 -193l-305 -336h411v-104h-553v101l362 399q87 96 87 132q0 164 -172 164q-173 0 -173 -173h-104q0 277 277 277q276 0 276 -267zM1129 1301l-781 -1302h-116l780 1301z" />
    <glyph glyph-name="onequarter" unicode="&#xbc;" horiz-adv-x="1450" 
d="M154 1092h-104v104q69 0 104 104h104v-796h104v-104h-312v104h104v588zM1129 1301l-781 -1302h-116l780 1301zM1314 278v-278h-104v278h-450v90l450 532h104v-519h85v-103h-85zM1210 739l-303 -358h303v358z" />
    <glyph glyph-name="threequarters" unicode="&#xbe;" horiz-adv-x="1700" 
d="M1379 1301l-781 -1302h-116l780 1301zM1564 278v-278h-104v278h-450v90l450 532h104v-519h85v-103h-85zM1460 739l-303 -358h303v358zM427 1301q277 0 277 -248q0 -130 -83 -189q83 -67 83 -215q0 -249 -277 -249q-276 0 -276 243h104q0 -139 172 -139t172 145
q0 167 -172 167h-69v104h69q91 0 131.5 35t40.5 98q0 144 -172 144t-172 -138h-104q0 242 276 242z" />
    <glyph glyph-name="Lslash" unicode="&#x141;" horiz-adv-x="900" 
d="M-50 600l200 61v639h150v-593l300 93v-99l-300 -93v-458h500v-150h-650v562l-200 -62v100z" />
    <glyph glyph-name="lslash" unicode="&#x142;" horiz-adv-x="450" 
d="M-50 600l200 61v639h150v-593l300 93v-99l-300 -93v-608h-150v562l-200 -62v100z" />
    <glyph glyph-name="Zcaron" unicode="&#x17d;" horiz-adv-x="1100" 
d="M350 1800l200 -200l200 200h100l-300 -400l-300 400h100zM150 124l611 1026h-611v150h800v-126l-610 -1024h610v-150h-800v124z" />
    <glyph glyph-name="zcaron" unicode="&#x17e;" horiz-adv-x="1100" 
d="M150 131h1l590 719h-591v150h800v-133h-1l-589 -717h590v-150h-800v131zM350 1550l200 -200l200 200h100l-300 -400l-300 400h100z" />
    <glyph glyph-name="Euro" unicode="&#x20ac;" horiz-adv-x="1150" 
d="M50 850h114q69 451 486 451q249 0 401 -101v-200q-99 150 -401 150q-271 0 -333 -300h283v-100h-296q-4 -47 -4 -100t4 -100h296v-100h-283q61 -300 333 -300q301 0 400 150v-199q-152 -101 -400 -101q-416 0 -486 450h-113l-1 100h103q-3 48 -3 101q0 51 3 99h-102z" />
    <glyph glyph-name="Adotbelow" unicode="&#x1ea0;" horiz-adv-x="1100" 
d="M1062 0h-157l-127 400h-451l-123 -400h-156l402 1300h200zM731 550l-181 574l-176 -574h357zM476 -150h149v-150h-149v150z" />
    <glyph glyph-name="adotbelow" unicode="&#x1ea1;" horiz-adv-x="1050" 
d="M100 300q0 350 550 350h101v51q0 150 -251 150q-163 0 -349 -50v150q188 50 350 50q400 0 400 -300v-700h-150v159l-13 -10q-188 -150 -338 -150q-300 0 -300 300zM251 300q0 -149 150 -149q99 0 224 99l125 100v150h-100q-399 0 -399 -200zM476 -150h149v-150h-149v150z
" />
    <glyph glyph-name="Ahookabove" unicode="&#x1ea2;" horiz-adv-x="1100" 
d="M1062 0h-157l-127 400h-451l-123 -400h-156l402 1300h200zM731 550l-181 574l-176 -574h357zM600 1600q100 49 100 100q0 100 -125 100t-125 -50h-100q0 150 225 150t225 -200q0 -101 -100 -150l-50 -25q-50 -26 -50 -125h-100q0 151 100 200z" />
    <glyph glyph-name="ahookabove" unicode="&#x1ea3;" horiz-adv-x="1050" 
d="M100 300q0 350 550 350h101v51q0 150 -251 150q-163 0 -349 -50v150q188 50 350 50q400 0 400 -300v-700h-150v159l-13 -10q-188 -150 -338 -150q-300 0 -300 300zM251 300q0 -149 150 -149q99 0 224 99l125 100v150h-100q-399 0 -399 -200zM600 1350q100 49 100 100
q0 100 -125 100t-125 -50h-100q0 150 225 150t225 -200q0 -101 -100 -150l-50 -25q-50 -26 -50 -125h-100q0 151 100 200z" />
    <glyph glyph-name="Acircumflexacute" unicode="&#x1ea4;" horiz-adv-x="1100" 
d="M1062 0h-157l-127 400h-451l-123 -400h-156l402 1300h200zM800 1600h-99l150 -199h-100l-200 199l-201 -199h-100l301 399l149 -199l200 399h150zM731 550l-181 574l-176 -574h357z" />
    <glyph glyph-name="acircumflexacute" unicode="&#x1ea5;" horiz-adv-x="1050" 
d="M100 300q0 350 550 350h101v51q0 150 -251 150q-161 0 -349 -50v150q189 50 350 50q400 0 400 -300v-700h-150v159l-13 -10q-188 -150 -338 -150q-300 0 -300 300zM651 500q-400 0 -400 -200q0 -149 150 -149q99 0 224 99l125 100l1 -3v153h-100zM751 1151l-200 199
l-201 -199h-100l301 399l300 -399h-100zM800 1400h-100l200 400h150z" />
    <glyph glyph-name="Acircumflexgrave" unicode="&#x1ea6;" horiz-adv-x="1100" 
d="M1062 0h-157l-127 400h-451l-123 -400h-156l402 1300h200zM731 550l-181 574l-176 -574h357zM751 1401l-200 199l-201 -199h-100l301 399l300 -399h-100zM1000 1600h-100l-300 350h150z" />
    <glyph glyph-name="acircumflexgrave" unicode="&#x1ea7;" horiz-adv-x="1050" 
d="M100 300q0 350 550 350h101v51q0 150 -251 150q-161 0 -349 -50v150q189 50 350 50q400 0 400 -300v-700h-150v159l-13 -10q-188 -150 -338 -150q-300 0 -300 300zM651 500q-400 0 -400 -200q0 -149 150 -149q99 0 224 99l125 100l1 -3v153h-100zM751 1151l-200 199
l-201 -199h-100l301 399l300 -399h-100zM1000 1350h-100l-300 350h150z" />
    <glyph glyph-name="Acircumflexhookabove" unicode="&#x1ea8;" horiz-adv-x="1100" 
d="M1062 0h-157l-127 400h-451l-123 -400h-156l402 1300h200zM731 550l-181 574l-176 -574h357zM751 1401l-200 199l-201 -199h-100l301 399l300 -399h-100zM850 1800q100 49 100 100q0 100 -125 100t-125 -50h-100q0 150 225 150t225 -200q0 -101 -100 -150l-50 -25
q-50 -26 -50 -125h-100q0 151 100 200z" />
    <glyph glyph-name="acircumflexhookabove" unicode="&#x1ea9;" horiz-adv-x="1050" 
d="M100 300q0 350 550 350h101v51q0 150 -251 150q-161 0 -349 -50v150q189 50 350 50q400 0 400 -300v-700h-150v159l-13 -10q-188 -150 -338 -150q-300 0 -300 300zM651 500q-400 0 -400 -200q0 -149 150 -149q99 0 224 99l125 100l1 -3v153h-100zM751 1151l-200 199
l-201 -199h-100l301 399l300 -399h-100zM850 1550q100 49 100 100q0 100 -125 100t-125 -50h-100q0 150 225 150t225 -200q0 -101 -100 -150l-50 -25q-50 -26 -50 -125h-100q0 151 100 200z" />
    <glyph glyph-name="Acircumflexhooktilde" unicode="&#x1eaa;" horiz-adv-x="1100" 
d="M1062 0h-157l-127 400h-451l-123 -400h-156l402 1300h200zM731 550l-181 574l-176 -574h357zM751 1401l-200 199l-201 -199h-100l301 399l300 -399h-100zM706 1850q-98 0 -175 50t-125 50q-49 0 -49 -100h-101q0 200 150 200q98 0 175 -50t125 -50q50 0 50 100h100
q0 -200 -150 -200z" />
    <glyph glyph-name="acircumflextilde" unicode="&#x1eab;" horiz-adv-x="1050" 
d="M100 300q0 350 550 350h101v51q0 150 -251 150q-161 0 -349 -50v150q189 50 350 50q400 0 400 -300v-700h-150v159l-13 -10q-188 -150 -338 -150q-300 0 -300 300zM651 500q-400 0 -400 -200q0 -149 150 -149q99 0 224 99l125 100l1 -3v153h-100zM751 1151l-200 199
l-201 -199h-100l301 399l300 -399h-100zM706 1600q-98 0 -175 50t-125 50q-49 0 -49 -100h-101q0 200 150 200q98 0 175 -50t125 -50q50 0 50 100h100q0 -200 -150 -200z" />
    <glyph glyph-name="Acircumflexdotbelow" unicode="&#x1eac;" horiz-adv-x="1100" 
d="M1062 0h-157l-127 400h-451l-123 -400h-156l402 1300h200zM731 550l-181 574l-176 -574h357zM751 1401l-200 199l-201 -199h-100l301 399l300 -399h-100zM476 -150h149v-150h-149v150z" />
    <glyph glyph-name="acircumflexdotbelow" unicode="&#x1ead;" horiz-adv-x="1050" 
d="M100 300q0 350 550 350h101v51q0 150 -251 150q-161 0 -349 -50v150q189 50 350 50q400 0 400 -300v-700h-150v159l-13 -10q-188 -150 -338 -150q-300 0 -300 300zM651 500q-400 0 -400 -200q0 -149 150 -149q99 0 224 99l125 100l1 -3v153h-100zM751 1151l-200 199
l-201 -199h-100l301 399l300 -399h-100zM476 -150h149v-150h-149v150z" />
    <glyph glyph-name="Abreveacute" unicode="&#x1eae;" horiz-adv-x="1100" 
d="M1062 0h-157l-127 400h-451l-123 -400h-156l402 1300h200zM731 550l-181 574l-176 -574h357zM600 1700h-100l200 400h150zM549 1400q-251 0 -300 349h100q51 -199 201 -199q151 0 200 199h100q-49 -349 -301 -349z" />
    <glyph glyph-name="abreveacute" unicode="&#x1eaf;" horiz-adv-x="1050" 
d="M100 300q0 350 550 350h101v51q0 150 -251 150q-161 0 -349 -50v150q189 50 350 50q400 0 400 -300v-700h-150v159l-13 -10q-188 -150 -338 -150q-300 0 -300 300zM651 500q-400 0 -400 -200q0 -149 150 -149q99 0 224 99l125 100l1 -3v153h-100zM549 1100
q-251 0 -300 349h100q51 -199 201 -199q151 0 200 199h100q-49 -349 -301 -349zM600 1400h-100l200 400h150z" />
    <glyph glyph-name="Abrevegrave" unicode="&#x1eb0;" horiz-adv-x="1100" 
d="M1062 0h-157l-127 400h-451l-123 -400h-156l402 1300h200zM731 550l-181 574l-176 -574h357zM549 1400q-251 0 -300 349h100q51 -199 201 -199q151 0 200 199h100q-49 -349 -301 -349zM700 1700h-100l-300 350h150z" />
    <glyph glyph-name="abrevegrave" unicode="&#x1eb1;" horiz-adv-x="1050" 
d="M100 300q0 350 550 350h101v51q0 150 -251 150q-161 0 -349 -50v150q189 50 350 50q400 0 400 -300v-700h-150v159l-13 -10q-188 -150 -338 -150q-300 0 -300 300zM651 500q-400 0 -400 -200q0 -149 150 -149q99 0 224 99l125 100l1 -3v153h-100zM549 1100
q-251 0 -300 349h100q51 -199 201 -199q151 0 200 199h100q-49 -349 -301 -349zM700 1400h-100l-300 350h150z" />
    <glyph glyph-name="Abrevehookabove" unicode="&#x1eb2;" horiz-adv-x="1100" 
d="M1062 0h-157l-127 400h-451l-123 -400h-156l402 1300h200zM731 550l-181 574l-176 -574h357zM549 1400q-251 0 -300 349h100q51 -199 201 -199q151 0 200 199h100q-49 -349 -301 -349zM600 1900q100 49 100 100q0 100 -125 100t-125 -50h-100q0 150 225 150t225 -200
q0 -101 -100 -150l-50 -25q-50 -26 -50 -125h-100q0 151 100 200z" />
    <glyph glyph-name="abrevehookabove" unicode="&#x1eb3;" horiz-adv-x="1050" 
d="M100 300q0 350 550 350h101v51q0 150 -251 150q-161 0 -349 -50v150q189 50 350 50q400 0 400 -300v-700h-150v159l-13 -10q-188 -150 -338 -150q-300 0 -300 300zM651 500q-400 0 -400 -200q0 -149 150 -149q99 0 224 99l125 100l1 -3v153h-100zM549 1100
q-251 0 -300 349h100q51 -199 201 -199q151 0 200 199h100q-49 -349 -301 -349zM600 1600q100 49 100 100q0 100 -125 100t-125 -50h-100q0 150 225 150t225 -200q0 -101 -100 -150l-50 -25q-50 -26 -50 -125h-100q0 151 100 200z" />
    <glyph glyph-name="Abrevetilde" unicode="&#x1eb4;" horiz-adv-x="1100" 
d="M1062 0h-157l-127 400h-451l-123 -400h-156l402 1300h200zM731 550l-181 574l-176 -574h357zM549 1400q-251 0 -300 349h100q51 -199 201 -199q151 0 200 199h100q-49 -349 -301 -349zM706 1850q-98 0 -175 50t-125 50q-49 0 -49 -100h-101q0 200 150 200q98 0 175 -50
t125 -50q50 0 50 100h100q0 -200 -150 -200z" />
    <glyph glyph-name="abrevetilde" unicode="&#x1eb5;" horiz-adv-x="1050" 
d="M100 300q0 350 550 350h101v51q0 150 -251 150q-161 0 -349 -50v150q189 50 350 50q400 0 400 -300v-700h-150v159l-13 -10q-188 -150 -338 -150q-300 0 -300 300zM651 500q-400 0 -400 -200q0 -149 150 -149q99 0 224 99l125 100l1 -3v153h-100zM549 1100
q-251 0 -300 349h100q51 -199 201 -199q151 0 200 199h100q-49 -349 -301 -349zM706 1550q-98 0 -175 50t-125 50q-49 0 -49 -100h-101q0 200 150 200q98 0 175 -50t125 -50q50 0 50 100h100q0 -200 -150 -200z" />
    <glyph glyph-name="Abrevedotbelove" unicode="&#x1eb6;" horiz-adv-x="1100" 
d="M1062 0h-157l-127 400h-451l-123 -400h-156l402 1300h200zM731 550l-181 574l-176 -574h357zM549 1400q-251 0 -300 349h100q51 -199 201 -199q151 0 200 199h100q-49 -349 -301 -349zM476 -150h149v-150h-149v150z" />
    <glyph glyph-name="abrevedotbelove" unicode="&#x1eb7;" horiz-adv-x="1050" 
d="M100 300q0 350 550 350h101v51q0 150 -251 150q-161 0 -349 -50v150q189 50 350 50q400 0 400 -300v-700h-150v159l-13 -10q-188 -150 -338 -150q-300 0 -300 300zM651 500q-400 0 -400 -200q0 -149 150 -149q99 0 224 99l125 100l1 -3v153h-100zM549 1100
q-251 0 -300 349h100q51 -199 201 -199q151 0 200 199h100q-49 -349 -301 -349zM476 -150h149v-150h-149v150z" />
    <glyph glyph-name="Edotbelow" unicode="&#x1eb8;" horiz-adv-x="1050" 
d="M950 1300v-150h-650v-350h600v-150h-600v-500h650v-150h-800v1300h800zM476 -150h149v-150h-149v150z" />
    <glyph glyph-name="edotbelow" unicode="&#x1eb9;" horiz-adv-x="1050" 
d="M501 1001q400 0 400 -400v-151h-650q18 -300 249 -300q249 0 401 150v-199q-151 -100 -401 -100h-2q-397 0 -397 496v4q0 500 400 500zM501 851q-210 0 -245 -251h494v3q0 246 -249 248zM476 -150h149v-150h-149v150z" />
    <glyph glyph-name="Ehookabove" unicode="&#x1eba;" horiz-adv-x="1050" 
d="M950 1300v-150h-650v-350h600v-150h-600v-500h650v-150h-800v1300h800zM600 1600q100 49 100 100q0 100 -125 100t-125 -50h-100q0 150 225 150t225 -200q0 -101 -100 -150l-50 -25q-50 -26 -50 -125h-100q0 151 100 200z" />
    <glyph glyph-name="ehookabove" unicode="&#x1ebb;" horiz-adv-x="1050" 
d="M501 1001q400 0 400 -400v-151h-650q18 -300 249 -300q249 0 401 150v-199q-151 -100 -401 -100h-2q-397 0 -397 496v4q0 500 400 500zM501 851q-210 0 -245 -251h494v3q0 246 -249 248zM600 1350q100 49 100 100q0 100 -125 100t-125 -50h-100q0 150 225 150t225 -200
q0 -101 -100 -150l-50 -25q-50 -26 -50 -125h-100q0 151 100 200z" />
    <glyph glyph-name="Etilde" unicode="&#x1ebc;" horiz-adv-x="1050" 
d="M950 1300v-150h-650v-350h600v-150h-600v-500h650v-150h-800v1300h800zM706 1450q-98 0 -175 50t-125 50q-49 0 -49 -100h-101q0 200 150 200q98 0 175 -50t125 -50q50 0 50 100h100q0 -200 -150 -200z" />
    <glyph glyph-name="etilde" unicode="&#x1ebd;" horiz-adv-x="1050" 
d="M501 1001q400 0 400 -400v-151h-650q18 -300 249 -300q249 0 401 150v-199q-151 -100 -401 -100h-2q-397 0 -397 496v4q0 500 400 500zM501 851q-210 0 -245 -251h494v3q0 246 -249 248zM706 1200q-98 0 -175 50t-125 50q-49 0 -49 -100h-101q0 200 150 200q98 0 175 -50
t125 -50q50 0 50 100h100q0 -200 -150 -200z" />
    <glyph glyph-name="Ecircumflexacute" unicode="&#x1ebe;" horiz-adv-x="1049" 
d="M950 1300v-150h-650v-350h600v-150h-600v-500h650v-150h-800v1300h800zM751 1401l-200 199l-201 -199h-100l301 399l300 -399h-100zM800 1600h-100l200 400h150z" />
    <glyph glyph-name="ecircumflexacute" unicode="&#x1ebf;" horiz-adv-x="1050" 
d="M501 1001q400 0 400 -400v-151h-650q18 -300 249 -300q249 0 401 150v-199q-151 -100 -401 -100h-2q-397 0 -397 496v4q0 500 400 500zM501 851q-210 0 -245 -251h494v3q0 246 -249 248zM751 1151l-200 199l-201 -199h-100l301 399l300 -399h-100zM800 1390h-100l200 400
h150z" />
    <glyph glyph-name="Ecircumflexgrave" unicode="&#x1ec0;" horiz-adv-x="1050" 
d="M950 1300v-150h-650v-350h600v-150h-600v-500h650v-150h-800v1300h800zM751 1401l-200 199l-201 -199h-100l301 399l300 -399h-100zM1000 1600h-100l-300 350h150z" />
    <glyph glyph-name="ecircumflexgrave" unicode="&#x1ec1;" horiz-adv-x="1050" 
d="M501 1001q400 0 400 -400v-151h-650q18 -300 249 -300q249 0 401 150v-199q-151 -100 -401 -100h-2q-397 0 -397 496v4q0 500 400 500zM501 851q-210 0 -245 -251h494v3q0 246 -249 248zM751 1151l-200 199l-201 -199h-100l301 399l300 -399h-100zM1000 1350h-100
l-300 350h150z" />
    <glyph glyph-name="Ecircumflexhookabove" unicode="&#x1ec2;" horiz-adv-x="1049" 
d="M950 1300v-150h-650v-350h600v-150h-600v-500h650v-150h-800v1300h800zM751 1401l-200 199l-201 -199h-100l301 399l300 -399h-100zM850 1800q100 49 100 100q0 100 -125 100t-125 -50h-100q0 150 225 150t225 -200q0 -101 -100 -150l-50 -25q-50 -26 -50 -125h-100
q0 151 100 200z" />
    <glyph glyph-name="ecircumflexhookabove" unicode="&#x1ec3;" horiz-adv-x="1050" 
d="M501 1001q400 0 400 -400v-151h-650q18 -300 249 -300q249 0 401 150v-199q-151 -100 -401 -100h-2q-397 0 -397 496v4q0 500 400 500zM501 851q-210 0 -245 -251h494v3q0 246 -249 248zM751 1151l-200 199l-201 -199h-100l301 399l300 -399h-100zM850 1550
q100 49 100 100q0 100 -125 100t-125 -50h-100q0 150 225 150t225 -200q0 -101 -100 -150l-50 -25q-50 -26 -50 -125h-100q0 151 100 200z" />
    <glyph glyph-name="Ecircumflextilde" unicode="&#x1ec4;" horiz-adv-x="1049" 
d="M950 1300v-150h-650v-350h600v-150h-600v-500h650v-150h-800v1300h800zM751 1401l-200 199l-201 -199h-100l301 399l300 -399h-100zM706 1850q-98 0 -175 50t-125 50q-49 0 -49 -100h-101q0 200 150 200q98 0 175 -50t125 -50q50 0 50 100h100q0 -200 -150 -200z" />
    <glyph glyph-name="ecircumflextilde" unicode="&#x1ec5;" horiz-adv-x="1050" 
d="M501 1001q400 0 400 -400v-151h-650q18 -300 249 -300q249 0 401 150v-199q-151 -100 -401 -100h-2q-397 0 -397 496v4q0 500 400 500zM501 851q-210 0 -245 -251h494v3q0 246 -249 248zM751 1151l-200 199l-201 -199h-100l301 399l300 -399h-100zM706 1600
q-98 0 -175 50t-125 50q-49 0 -49 -100h-101q0 200 150 200q98 0 175 -50t125 -50q50 0 50 100h100q0 -200 -150 -200z" />
    <glyph glyph-name="Ecircumflexdotbelow" unicode="&#x1ec6;" horiz-adv-x="1050" 
d="M950 1300v-150h-650v-350h600v-150h-600v-500h650v-150h-800v1300h800zM476 -150h149v-150h-149v150zM751 1401l-200 199l-201 -199h-100l301 399l300 -399h-100z" />
    <glyph glyph-name="ecircumflexdotbelow" unicode="&#x1ec7;" horiz-adv-x="1050" 
d="M501 1001q400 0 400 -400v-151h-650q18 -300 249 -300q249 0 401 150v-199q-151 -100 -401 -100h-2q-397 0 -397 496v4q0 500 400 500zM501 851q-210 0 -245 -251h494v3q0 246 -249 248zM476 -150h149v-150h-149v150zM751 1151l-200 199l-201 -199h-100l301 399l300 -399
h-100z" />
    <glyph glyph-name="Ihookabove" unicode="&#x1ec8;" horiz-adv-x="650" 
d="M250 150v1000h-150v150h450v-150h-150v-1000h150v-150h-450v150h150zM370 1600q100 49 100 100q0 100 -125 100t-125 -50h-100q0 150 225 150t225 -200q0 -101 -100 -150l-50 -25q-50 -26 -50 -125h-100q0 151 100 200z" />
    <glyph glyph-name="ihookabove" unicode="&#x1ec9;" horiz-adv-x="450" 
d="M300 1000v-1000h-150v1000h150zM250 1350q100 49 100 100q0 100 -125 100t-125 -50h-100q0 150 225 150t225 -200q0 -101 -100 -150l-50 -25q-50 -26 -50 -125h-100q0 151 100 200z" />
    <glyph glyph-name="Idotbelow" unicode="&#x1eca;" horiz-adv-x="650" 
d="M250 150v1000h-150v150h450v-150h-150v-1000h150v-150h-450v150h150zM250 -150h150v-150h-150v150z" />
    <glyph glyph-name="idotbelow" unicode="&#x1ecb;" horiz-adv-x="450" 
d="M150 1000h150v-1000h-150v1000zM150 1300h150v-150h-150v150zM150 -150h150v-150h-150v150z" />
    <glyph glyph-name="Abreve" unicode="&#x102;" horiz-adv-x="1100" 
d="M1062 0h-157l-127 400h-451l-123 -400h-156l402 1300h200zM731 550l-181 574l-176 -574h357zM549 1400q-251 0 -300 349h100q51 -199 201 -199q151 0 200 199h100q-49 -349 -301 -349z" />
    <glyph glyph-name="abreve" unicode="&#x103;" horiz-adv-x="1050" 
d="M100 300q0 350 550 350h101v51q0 150 -251 150q-161 0 -349 -50v150q189 50 350 50q400 0 400 -300v-700h-150v159l-13 -10q-188 -150 -338 -150q-300 0 -300 300zM651 500q-400 0 -400 -200q0 -149 150 -149q99 0 224 99l125 100l1 -3v153h-100zM549 1100
q-251 0 -300 349h100q51 -199 201 -199q151 0 200 199h100q-49 -349 -301 -349z" />
    <glyph glyph-name="dtroke" unicode="&#x111;" horiz-adv-x="1050" 
d="M501 1000q155 0 250 -74v175h-199v149h199v100h150v-100h100v-149h-100v-1101h-150v76q-96 -75 -250 -76q-400 0 -400 500t400 500zM501 150q249 0 250 350q0 350 -249 350q-251 0 -251 -350t250 -350z" />
    <glyph glyph-name="Ohorn" unicode="&#x1a0;" horiz-adv-x="1300" 
d="M150 650q0 650 500 650q195 0 314 -100v1h53q95 0 97 99q-100 0 -101 76q0 75 100 75t100 -150q0 -182 -164 -200q101 -160 101 -451q0 -650 -500 -650t-500 650zM300 650q0 -500 350 -500t350 500t-350 500t-350 -500z" />
    <glyph glyph-name="ohorn" unicode="&#x1a1;" horiz-adv-x="1100" 
d="M953 1151q100 0 100 -150q0 -179 -159 -199q56 -117 56 -302q0 -500 -400 -500t-400 500t400 500q178 0 276 -99h31q95 0 97 99q-100 0 -101 76q0 75 100 75zM550 150q250 0 250 350t-250 350t-250 -350t250 -350z" />
    <glyph glyph-name="Uhorn" unicode="&#x1af;" horiz-adv-x="1200" 
d="M1200 1500q100 0 100 -150q0 -200 -200 -200h-50v-750q0 -400 -450 -400t-450 400v900h150v-900q0 -250 300 -250t300 250v900h150v-50h50q100 0 100 100q-100 0 -100 75t100 75z" />
    <glyph glyph-name="uhorn" unicode="&#x1b0;" horiz-adv-x="1100" 
d="M1100 1200q100 0 100 -150q0 -200 -200 -200h-50v-850h-150v100q-100 -100 -250 -100q-400 0 -400 400v600h150v-600q0 -250 250 -250t250 250v600h150v-50h50q100 0 100 100q-100 0 -100 75t100 75z" />
    <glyph glyph-name="acute" unicode="&#x301;" 
d="M-50 1300l200 400h150l-250 -400h-100z" />
    <glyph glyph-name="grave" unicode="&#x300;" 
d="M-50 1300l-300 350h150l250 -350h-100z" />
    <glyph glyph-name="hookabove" unicode="&#x309;" 
d="M50 1500q100 49 100 100q0 100 -125 100t-125 -50h-100q0 150 225 150t225 -200q0 -101 -100 -150l-50 -25q-50 -26 -50 -125h-100q0 151 100 200z" />
    <glyph glyph-name="tilde" unicode="&#x303;" 
d="M150 1300q-98 0 -175 50t-125 50q-49 0 -49 -100h-101q0 200 150 200q98 0 175 -50t125 -50q50 0 50 100h100q0 -200 -150 -200z" />
    <glyph glyph-name="dotbelow" unicode="&#x323;" 
d="M-75 -500h151v-150h-151v150z" />
    <glyph glyph-name="Odotbelow" unicode="&#x1ecc;" horiz-adv-x="1300" 
d="M150 650q0 650 500 650t500 -650t-500 -650t-500 650zM300 650q0 -500 350 -500t350 500t-350 500t-350 -500zM575 -150h150v-150h-150v150z" />
    <glyph glyph-name="odotbelow" unicode="&#x1ecd;" horiz-adv-x="1100" 
d="M550 1000q400 0 400 -500t-400 -500t-400 500t400 500zM550 150q250 0 250 350t-250 350t-250 -350t250 -350zM475 -150h150v-150h-150v150z" />
    <glyph glyph-name="Ohookabove" unicode="&#x1ece;" horiz-adv-x="1300" 
d="M150 650q0 650 500 650t500 -650t-500 -650t-500 650zM300 650q0 -500 350 -500t350 500t-350 500t-350 -500zM700 1600q100 49 100 100q0 100 -125 100t-125 -50h-100q0 150 225 150t225 -200q0 -101 -100 -150l-50 -25q-50 -26 -50 -125h-100q0 151 100 200z" />
    <glyph glyph-name="ohookabove" unicode="&#x1ecf;" horiz-adv-x="1100" 
d="M551 1001q400 0 400 -500q-2 -500 -401 -500h-2q-397 0 -397 496v4q0 500 400 500zM550 150q250 0 250 350v4q0 346 -250 346t-250 -350t250 -350zM600 1350q100 49 100 100q0 100 -125 100t-125 -50h-100q0 150 225 150t225 -200q0 -101 -100 -150l-50 -25
q-50 -26 -50 -125h-100q0 151 100 200z" />
    <glyph glyph-name="Ocircumflexacute" unicode="&#x1ed0;" horiz-adv-x="1300" 
d="M150 650q0 650 500 650t500 -650t-500 -650t-500 650zM300 650q0 -500 350 -500t350 500t-350 500t-350 -500zM850 1401l-200 199l-201 -199h-100l301 399l300 -399h-100zM900 1600h-100l200 400h150z" />
    <glyph glyph-name="ocircumflexacute" unicode="&#x1ed1;" horiz-adv-x="1100" 
d="M551 1001q400 0 400 -500q-2 -500 -401 -500h-2q-397 0 -397 496v4q0 500 400 500zM550 150q250 0 250 350v4q0 346 -250 346t-250 -350t250 -350zM751 1151l-200 199l-201 -199h-100l301 399l300 -399h-100zM800 1390h-100l200 400h150z" />
    <glyph glyph-name="Ocircumflexgrave" unicode="&#x1ed2;" horiz-adv-x="1300" 
d="M150 650q0 650 500 650t500 -650t-500 -650t-500 650zM300 650q0 -500 350 -500t350 500t-350 500t-350 -500zM850 1401l-200 199l-201 -199h-100l301 399l300 -399h-100zM1050 1600h-100l-300 350h150z" />
    <glyph glyph-name="ocircumflexgrave" unicode="&#x1ed3;" horiz-adv-x="1100" 
d="M551 1001q400 0 400 -500q-2 -500 -401 -500h-2q-397 0 -397 496v4q0 500 400 500zM550 150q250 0 250 350v4q0 346 -250 346t-250 -350t250 -350zM751 1151l-200 199l-201 -199h-100l301 399l300 -399h-100zM1000 1350h-100l-300 350h150z" />
    <glyph glyph-name="Ocircumflexhookabove" unicode="&#x1ed4;" horiz-adv-x="1300" 
d="M150 650q0 650 500 650t500 -650t-500 -650t-500 650zM300 650q0 -500 350 -500t350 500t-350 500t-350 -500zM850 1401l-200 199l-201 -199h-100l301 399l300 -399h-100zM950 1800q100 49 100 100q0 100 -125 100t-125 -50h-100q0 150 225 150t225 -200
q0 -101 -100 -150l-50 -25q-50 -26 -50 -125h-100q0 151 100 200z" />
    <glyph glyph-name="ocircumflexhookabove" unicode="&#x1ed5;" horiz-adv-x="1100" 
d="M551 1001q400 0 400 -500q-2 -500 -401 -500h-2q-397 0 -397 496v4q0 500 400 500zM550 150q250 0 250 350v4q0 346 -250 346t-250 -350t250 -350zM751 1151l-200 199l-201 -199h-100l301 399l300 -399h-100zM850 1550q100 49 100 100q0 100 -125 100t-125 -50h-100
q0 150 225 150t225 -200q0 -101 -100 -150l-50 -25q-50 -26 -50 -125h-100q0 151 100 200z" />
    <glyph glyph-name="Ocircumflextilde" unicode="&#x1ed6;" horiz-adv-x="1300" 
d="M150 650q0 650 500 650t500 -650t-500 -650t-500 650zM300 650q0 -500 350 -500t350 500t-350 500t-350 -500zM850 1401l-200 199l-201 -199h-100l301 399l300 -399h-100zM796 1850q-98 0 -175 50t-125 50q-49 0 -49 -100h-101q0 200 150 200q98 0 175 -50t125 -50
q50 0 50 100h100q0 -200 -150 -200z" />
    <glyph glyph-name="ocircumflextilde" unicode="&#x1ed7;" horiz-adv-x="1100" 
d="M551 1001q400 0 400 -500q-2 -500 -401 -500h-2q-397 0 -397 496v4q0 500 400 500zM550 150q250 0 250 350v4q0 346 -250 346t-250 -350t250 -350zM751 1151l-200 199l-201 -199h-100l301 399l300 -399h-100zM706 1600q-98 0 -175 50t-125 50q-49 0 -49 -100h-101
q0 200 150 200q98 0 175 -50t125 -50q50 0 50 100h100q0 -200 -150 -200z" />
    <glyph glyph-name="Ocircumflexdotbelow" unicode="&#x1ed8;" horiz-adv-x="1300" 
d="M150 650q0 650 500 650t500 -650t-500 -650t-500 650zM300 650q0 -500 350 -500t350 500t-350 500t-350 -500zM850 1401l-200 199l-201 -199h-100l301 399l300 -399h-100zM575 -150h150v-150h-150v150z" />
    <glyph glyph-name="ocircumflexdotbelow" unicode="&#x1ed9;" horiz-adv-x="1100" 
d="M551 1001q400 0 400 -500q-2 -500 -401 -500h-2q-397 0 -397 496v4q0 500 400 500zM550 150q250 0 250 350v4q0 346 -250 346t-250 -350t250 -350zM751 1151l-200 199l-201 -199h-100l301 399l300 -399h-100zM475 -150h150v-150h-150v150z" />
    <glyph glyph-name="Ohornacute" unicode="&#x1eda;" horiz-adv-x="1300" 
d="M1113 1451q100 0 100 -150q0 -191 -180 -201l-69 101h53q95 0 97 99q-100 0 -101 76q0 75 100 75zM150 650q0 650 500 650t500 -650t-500 -650t-500 650zM300 650q0 -500 350 -500t350 500t-350 500t-350 -500zM600 1400h-100l200 400h150z" />
    <glyph glyph-name="ohornacute" unicode="&#x1edb;" horiz-adv-x="1100" 
d="M550 1000q400 0 400 -500t-400 -500t-400 500t400 500zM550 150q250 0 250 350t-250 350t-250 -350t250 -350zM953 1151q100 0 100 -150q0 -191 -180 -201l-69 101h53q95 0 97 99q-100 0 -101 76q0 75 100 75zM500 1150h-100l200 400h150z" />
    <glyph glyph-name="Ohorngrave" unicode="&#x1edc;" horiz-adv-x="1300" 
d="M1113 1451q100 0 100 -150q0 -191 -180 -201l-69 101h53q95 0 97 99q-100 0 -101 76q0 75 100 75zM150 650q0 650 500 650t500 -650t-500 -650t-500 650zM300 650q0 -500 350 -500t350 500t-350 500t-350 -500zM700 1400l-300 350h150l250 -350h-100z" />
    <glyph glyph-name="ohorngrave" unicode="&#x1edd;" horiz-adv-x="1100" 
d="M550 1000q400 0 400 -500t-400 -500t-400 500t400 500zM550 150q250 0 250 350t-250 350t-250 -350t250 -350zM953 1151q100 0 100 -150q0 -191 -180 -201l-69 101h53q95 0 97 99q-100 0 -101 76q0 75 100 75zM700 1150h-100l-300 350h150z" />
    <glyph glyph-name="Ohornhookabove" unicode="&#x1ede;" horiz-adv-x="1300" 
d="M1113 1451q100 0 100 -150q0 -191 -180 -201l-69 101h53q95 0 97 99q-100 0 -101 76q0 75 100 75zM150 650q0 650 500 650t500 -650t-500 -650t-500 650zM300 650q0 -500 350 -500t350 500t-350 500t-350 -500zM700 1600q100 49 100 100q0 100 -125 100t-125 -50h-100
q0 150 225 150t225 -200q0 -101 -100 -150l-50 -25q-50 -26 -50 -125h-100q0 151 100 200z" />
    <glyph glyph-name="ohornhookabove" unicode="&#x1edf;" horiz-adv-x="1100" 
d="M550 1000q400 0 400 -500t-400 -500t-400 500t400 500zM550 150q250 0 250 350t-250 350t-250 -350t250 -350zM953 1151q100 0 100 -150q0 -191 -180 -201l-69 101h53q95 0 97 99q-100 0 -101 76q0 75 100 75zM600 1350q100 49 100 100q0 100 -125 100t-125 -50h-100
q0 150 225 150t225 -200q0 -101 -100 -150l-50 -25q-50 -26 -50 -125h-100q0 151 100 200z" />
    <glyph glyph-name="Ohorntilde" unicode="&#x1ee0;" horiz-adv-x="1300" 
d="M1113 1451q100 0 100 -150q0 -191 -180 -201l-69 101h53q95 0 97 99q-100 0 -101 76q0 75 100 75zM150 650q0 650 500 650t500 -650t-500 -650t-500 650zM300 650q0 -500 350 -500t350 500t-350 500t-350 -500zM796 1450q-98 0 -175 50t-125 50q-49 0 -49 -100h-101
q0 200 150 200q98 0 175 -50t125 -50q50 0 50 100h100q0 -200 -150 -200z" />
    <glyph glyph-name="ohorntilde" unicode="&#x1ee1;" horiz-adv-x="1100" 
d="M550 1000q400 0 400 -500t-400 -500t-400 500t400 500zM550 150q250 0 250 350t-250 350t-250 -350t250 -350zM953 1151q100 0 100 -150q0 -191 -180 -201l-69 101h53q95 0 97 99q-100 0 -101 76q0 75 100 75zM696 1200q-98 0 -175 50t-125 50q-49 0 -49 -100h-101
q0 200 150 200q98 0 175 -50t125 -50q50 0 50 100h100q0 -200 -150 -200z" />
    <glyph glyph-name="Ohorndotbelow" unicode="&#x1ee2;" horiz-adv-x="1300" 
d="M1113 1451q100 0 100 -150q0 -191 -180 -201l-69 101h53q95 0 97 99q-100 0 -101 76q0 75 100 75zM150 650q0 650 500 650t500 -650t-500 -650t-500 650zM300 650q0 -500 350 -500t350 500t-350 500t-350 -500zM575 -150h150v-150h-150v150z" />
    <glyph glyph-name="ohorndotbelow" unicode="&#x1ee3;" horiz-adv-x="1100" 
d="M953 1151q100 0 100 -150q0 -179 -159 -199q56 -117 56 -302q0 -500 -400 -500t-400 500t400 500q178 0 276 -99h31q95 0 97 99q-100 0 -101 76q0 75 100 75zM550 150q250 0 250 350t-250 350t-250 -350t250 -350zM475 -150h150v-150h-150v150z" />
    <glyph glyph-name="Udotbelow" unicode="&#x1ee4;" horiz-adv-x="1200" 
d="M600 0q-450 0 -450 400v900h150v-900q0 -250 300 -250t300 250v900h150v-900q0 -400 -450 -400zM525 -150h150v-150h-150v150z" />
    <glyph glyph-name="udotbelow" unicode="&#x1ee5;" horiz-adv-x="1100" 
d="M550 150q250 0 250 250v600h150v-1000h-150v100q-100 -100 -250 -100q-400 0 -400 400v600h150v-600q0 -250 250 -250zM475 -150h150v-150h-150v150z" />
    <glyph glyph-name="Uhookabove" unicode="&#x1ee6;" horiz-adv-x="1200" 
d="M600 0q-450 0 -450 400v900h150v-900q0 -250 300 -250t300 250v900h150v-900q0 -400 -450 -400zM650 1600q100 49 100 100q0 100 -125 100t-125 -50h-100q0 150 225 150t225 -200q0 -101 -100 -150l-50 -25q-50 -26 -50 -125h-100q0 151 100 200z" />
    <glyph glyph-name="uhookabove" unicode="&#x1ee7;" horiz-adv-x="1100" 
d="M550 150q250 0 250 250v600h150v-1000h-150v100q-100 -100 -250 -100q-400 0 -400 400v600h150v-600q0 -250 250 -250zM600 1350q100 49 100 100q0 100 -125 100t-125 -50h-100q0 150 225 150t225 -200q0 -101 -100 -150l-50 -25q-50 -26 -50 -125h-100q0 151 100 200z
" />
    <glyph glyph-name="Uhornacute" unicode="&#x1ee8;" horiz-adv-x="1200" 
d="M1200 1500q100 0 100 -150q0 -200 -200 -200h-50v-750q0 -400 -450 -400t-450 400v900h150v-900q0 -250 300 -250t300 250v900h150v-50h50q100 0 100 100q-100 0 -100 75t100 75zM550 1400h-100l200 400h150z" />
    <glyph glyph-name="uhornacute" unicode="&#x1ee9;" horiz-adv-x="1100" 
d="M1100 1200q100 0 100 -150q0 -200 -200 -200h-50v-850h-150v100q-100 -100 -250 -100q-400 0 -400 400v600h150v-600q0 -250 250 -250t250 250v600h150v-50h50q100 0 100 100q-100 0 -100 75t100 75zM500 1150h-100l200 400h150z" />
    <glyph glyph-name="Uhorngrave" unicode="&#x1eea;" horiz-adv-x="1200" 
d="M1200 1500q100 0 100 -150q0 -200 -200 -200h-50v-750q0 -400 -450 -400t-450 400v900h150v-900q0 -250 300 -250t300 250v900h150v-50h50q100 0 100 100q-100 0 -100 75t100 75zM700 1400l-300 350h150l250 -350h-100z" />
    <glyph glyph-name="uhorngrave" unicode="&#x1eeb;" horiz-adv-x="1100" 
d="M1100 1200q100 0 100 -150q0 -200 -200 -200h-50v-850h-150v100q-100 -100 -250 -100q-400 0 -400 400v600h150v-600q0 -250 250 -250t250 250v600h150v-50h50q100 0 100 100q-100 0 -100 75t100 75zM700 1150h-100l-300 350h150z" />
    <glyph glyph-name="Uhornhookabove" unicode="&#x1eec;" horiz-adv-x="1200" 
d="M1200 1500q100 0 100 -150q0 -200 -200 -200h-50v-750q0 -400 -450 -400t-450 400v900h150v-900q0 -250 300 -250t300 250v900h150v-50h50q100 0 100 100q-100 0 -100 75t100 75zM650 1600q100 49 100 100q0 100 -125 100t-125 -50h-100q0 150 225 150t225 -200
q0 -101 -100 -150l-50 -25q-50 -26 -50 -125h-100q0 151 100 200z" />
    <glyph glyph-name="uhornhookabove" unicode="&#x1eed;" horiz-adv-x="1100" 
d="M1100 1200q100 0 100 -150q0 -200 -200 -200h-50v-850h-150v100q-100 -100 -250 -100q-400 0 -400 400v600h150v-600q0 -250 250 -250t250 250v600h150v-50h50q100 0 100 100q-100 0 -100 75t100 75zM600 1350q100 49 100 100q0 100 -125 100t-125 -50h-100
q0 150 225 150t225 -200q0 -101 -100 -150l-50 -25q-50 -26 -50 -125h-100q0 151 100 200z" />
    <glyph glyph-name="Uhorntilde" unicode="&#x1eee;" horiz-adv-x="1200" 
d="M1200 1500q100 0 100 -150q0 -200 -200 -200h-50v-750q0 -400 -450 -400t-450 400v900h150v-900q0 -250 300 -250t300 250v900h150v-50h50q100 0 100 100q-100 0 -100 75t100 75zM796 1450q-98 0 -175 50t-125 50q-49 0 -49 -100h-101q0 200 150 200q98 0 175 -50
t125 -50q50 0 50 100h100q0 -200 -150 -200z" />
    <glyph glyph-name="uhorntilde" unicode="&#x1eef;" horiz-adv-x="1100" 
d="M1100 1200q100 0 100 -150q0 -200 -200 -200h-50v-850h-150v100q-100 -100 -250 -100q-400 0 -400 400v600h150v-600q0 -250 250 -250t250 250v600h150v-50h50q100 0 100 100q-100 0 -100 75t100 75zM696 1200q-98 0 -175 50t-125 50q-49 0 -49 -100h-101q0 200 150 200
q98 0 175 -50t125 -50q50 0 50 100h100q0 -200 -150 -200z" />
    <glyph glyph-name="Uhorndotbelow" unicode="&#x1ef0;" horiz-adv-x="1200" 
d="M1200 1500q100 0 100 -150q0 -200 -200 -200h-50v-750q0 -400 -450 -400t-450 400v900h150v-900q0 -250 300 -250t300 250v900h150v-50h50q100 0 100 100q-100 0 -100 75t100 75zM525 -150h150v-150h-150v150z" />
    <glyph glyph-name="uhorndotbelow" unicode="&#x1ef1;" horiz-adv-x="1100" 
d="M1100 1200q100 0 100 -150q0 -200 -200 -200h-50v-850h-150v100q-100 -100 -250 -100q-400 0 -400 400v600h150v-600q0 -250 250 -250t250 250v600h150v-50h50q100 0 100 100q-100 0 -100 75t100 75zM475 -150h150v-150h-150v150z" />
    <glyph glyph-name="Ygrave" unicode="&#x1ef2;" horiz-adv-x="1101" 
d="M65 1300h176l309 -509l322 509h176l-423 -670v-630h-149v629zM650 1400l-300 350h150l250 -350h-100z" />
    <glyph glyph-name="ygrave" unicode="&#x1ef3;" horiz-adv-x="1100" 
d="M258 -400l209 489l-377 911h162l298 -716l306 716h163l-598 -1400h-163zM700 1150h-100l-300 350h150z" />
    <glyph glyph-name="Ydotbelow" unicode="&#x1ef4;" horiz-adv-x="1101" 
d="M65 1300h176l309 -509l322 509h176l-423 -670v-630h-149v629zM475 -150h150v-150h-150v150z" />
    <glyph glyph-name="ydotbelow" unicode="&#x1ef5;" horiz-adv-x="1100" 
d="M258 -400l209 489l-377 911h162l298 -716l306 716h163l-598 -1400h-163zM585 -250h150v-150h-150v150z" />
    <glyph glyph-name="Yhookabove" unicode="&#x1ef6;" horiz-adv-x="1101" 
d="M65 1300h176l309 -509l322 509h176l-423 -670v-630h-149v629zM600 1600q100 49 100 100q0 100 -125 100t-125 -50h-100q0 150 225 150t225 -200q0 -101 -100 -150l-50 -25q-50 -26 -50 -125h-100q0 151 100 200z" />
    <glyph glyph-name="yhookabove" unicode="&#x1ef7;" horiz-adv-x="1100" 
d="M258 -400l209 489l-377 911h162l298 -716l306 716h163l-598 -1400h-163zM600 1350q100 49 100 100q0 100 -125 100t-125 -50h-100q0 150 225 150t225 -200q0 -101 -100 -150l-50 -25q-50 -26 -50 -125h-100q0 151 100 200z" />
    <glyph glyph-name="Ytilde" unicode="&#x1ef8;" horiz-adv-x="1101" 
d="M65 1300h176l309 -509l322 509h176l-423 -670v-630h-149v629zM696 1450q-98 0 -175 50t-125 50q-49 0 -49 -100h-101q0 200 150 200q98 0 175 -50t125 -50q50 0 50 100h100q0 -200 -150 -200z" />
    <glyph glyph-name="ytilde" unicode="&#x1ef9;" horiz-adv-x="1100" 
d="M258 -400l209 489l-377 911h162l298 -716l306 716h163l-598 -1400h-163zM696 1200q-98 0 -175 50t-125 50q-49 0 -49 -100h-101q0 200 150 200q98 0 175 -50t125 -50q50 0 50 100h100q0 -200 -150 -200z" />
    <glyph glyph-name="dong" unicode="&#x20ab;" horiz-adv-x="1050" 
d="M501 1300q155 0 250 -74v175h-199v149h199v100h150v-100h100v-149h-100v-1101h-150v76q-96 -75 -250 -76q-400 0 -400 500t400 500zM501 450q249 0 250 350q0 350 -249 350q-251 0 -251 -350t250 -350zM152 1v149h749v-149h-749z" />
    <glyph glyph-name="Amacron" unicode="&#x100;" horiz-adv-x="1100" 
d="M1062 0h-157l-127 400h-451l-123 -400h-156l402 1300h200zM731 550l-181 574l-176 -574h357zM900 1500h-700v100h700v-100z" />
    <glyph glyph-name="amacron" unicode="&#x101;" horiz-adv-x="1050" 
d="M100 300q0 350 550 350h101v51q0 150 -251 150q-161 0 -349 -50v150q189 50 350 50q400 0 400 -300v-700h-150v159l-13 -10q-188 -150 -338 -150q-300 0 -300 300zM651 500q-400 0 -400 -200q0 -149 150 -149q99 0 224 99l125 100l1 -3v153h-100zM900 1200h-700v100h700
v-100z" />
    <glyph glyph-name="Imacron" unicode="&#x12a;" horiz-adv-x="650" 
d="M250 150v1000h-150v150h450v-150h-150v-1000h150v-150h-450v150h150zM650 1500h-650v100h650v-100z" />
    <glyph glyph-name="imacron" unicode="&#x12b;" horiz-adv-x="450" 
d="M150 1000h150v-1000h-150v1000zM500 1200h-550v100h550v-100z" />
    <glyph glyph-name="Sacute" unicode="&#x15a;" horiz-adv-x="1100" 
d="M551 151q248 0 250 249q0 200 -246 200h-4q-401 0 -401 350q0 351 400 351q251 0 351 -100v-201q-101 150 -350 150q-250 0 -250 -200t250 -200h3q396 0 396 -349q0 -400 -399 -401q-253 0 -401 100v200q152 -149 401 -149zM550 1400h-100l200 400h150z" />
    <glyph glyph-name="sacute" unicode="&#x15b;" horiz-adv-x="1050" 
d="M551 151q249 0 249 135q0 134 -249 134q-401 0 -401 290q0 291 400 291q251 0 351 -100v-201q-101 150 -350 150q-250 0 -250 -140t250 -140q399 0 399 -285t-399 -285q-253 0 -401 100v200q152 -149 401 -149zM500 1150h-100l200 400h150z" />
    <glyph glyph-name="Umacron" unicode="&#x16a;" horiz-adv-x="1200" 
d="M600 0q-450 0 -450 400v900h150v-900q0 -250 300 -250t300 250v900h150v-900q0 -400 -450 -400zM950 1500h-700v100h700v-100z" />
    <glyph glyph-name="umacron" unicode="&#x16b;" horiz-adv-x="1100" 
d="M550 150q250 0 250 250v600h150v-1000h-150v100q-100 -100 -250 -100q-400 0 -400 400v600h150v-600q0 -250 250 -250zM900 1200h-700v100h700v-100z" />
    <glyph glyph-name="Ddotbelow" unicode="&#x1e0c;" horiz-adv-x="1150" 
d="M1050 650q0 -650 -500 -650h-400v1300h400q500 0 500 -650zM900 650q0 500 -350 500h-250v-1000h250q350 0 350 500zM525 -150h150v-150h-150v150z" />
    <glyph glyph-name="ddotbelow" unicode="&#x1e0d;" horiz-adv-x="1050" 
d="M500 1000q155 0 250 -74v374h150v-1300h-150v76q-96 -75 -250 -76q-400 0 -400 500t400 500zM500 150q250 0 250 350t-249 350q-251 0 -251 -350t250 -350zM475 -150h150v-150h-150v150z" />
    <glyph glyph-name="Hdotbelow" unicode="&#x1e24;" horiz-adv-x="1100" 
d="M800 650h-500v-650h-150v1300h150v-500h500v500h150v-1300h-150v650zM475 -150h150v-150h-150v150z" />
    <glyph glyph-name="hdotbelow" unicode="&#x1e25;" horiz-adv-x="1100" 
d="M300 900q100 100 250 100q400 0 400 -400v-600h-150v600q0 250 -250 250t-250 -250v-600h-150v1300h150v-400zM475 -150h150v-150h-150v150z" />
    <glyph glyph-name="Ldotbelow" unicode="&#x1e36;" horiz-adv-x="900" 
d="M150 1300h150v-1150h500v-150h-650v1300zM405 -150h150v-150h-150v150z" />
    <glyph glyph-name="ldotbelow" unicode="&#x1e37;" horiz-adv-x="450" 
d="M150 1300h150v-1300h-150v1300zM150 -150h150v-150h-150v150z" />
    <glyph glyph-name="Ldotbelowmacron" unicode="&#x1e38;" horiz-adv-x="900" 
d="M150 1300h150v-1150h500v-150h-650v1300zM405 -150h150v-150h-150v150zM800 1500h-650v100h650v-100z" />
    <glyph glyph-name="ldotbelowmacron" unicode="&#x1e39;" horiz-adv-x="450" 
d="M500 1500h-550v100h550v-100zM150 1300h150v-1300h-150v1300zM150 -150h150v-150h-150v150z" />
    <glyph glyph-name="Mdotabove" unicode="&#x1e40;" horiz-adv-x="1300" 
d="M1000 1003l-350 -603l-350 603v-1003h-150v1300h150l350 -601l350 601h150v-1300h-150v1003zM725 1450h-150v150h150v-150z" />
    <glyph glyph-name="mdotabove" unicode="&#x1e41;" horiz-adv-x="1550" 
d="M300 913q84 87 200 87q215 0 298 -153q97 153 252 153q350 0 350 -400v-600h-150v600q0 250 -200 250t-200 -250v-600h-150v600q0 250 -200 250t-200 -250v-600h-150v1000h150v-87zM851 1200h-150v150h150v-150z" />
    <glyph glyph-name="Mdotbelow" unicode="&#x1e42;" horiz-adv-x="1300" 
d="M1000 1003l-350 -603l-350 603v-1003h-150v1300h150l350 -601l350 601h150v-1300h-150v1003zM725 -300h-150v150h150v-150z" />
    <glyph glyph-name="mdotbelow" unicode="&#x1e43;" horiz-adv-x="1550" 
d="M300 913q84 87 200 87q215 0 298 -153q97 153 252 153q350 0 350 -400v-600h-150v600q0 250 -200 250t-200 -250v-600h-150v600q0 250 -200 250t-200 -250v-600h-150v1000h150v-87zM851 -300h-150v150h150v-150z" />
    <glyph glyph-name="Ndotabove" unicode="&#x1e44;" horiz-adv-x="1100" 
d="M300 976v-976h-150v1300h151l499 -972v972h150v-1300h-151zM625 1450h-150v150h150v-150z" />
    <glyph glyph-name="ndotabove" unicode="&#x1e45;" horiz-adv-x="1100" 
d="M300 900q100 100 250 100q400 0 400 -400v-600h-150v600q0 250 -250 250t-250 -250v-600h-150v1000h150v-100zM631 1200h-150v150h150v-150z" />
    <glyph glyph-name="Ndotbelow" unicode="&#x1e46;" horiz-adv-x="1100" 
d="M300 976v-976h-150v1300h151l499 -972v972h150v-1300h-151zM625 -300h-150v150h150v-150z" />
    <glyph glyph-name="ndotbelow" unicode="&#x1e47;" horiz-adv-x="1100" 
d="M300 900q100 100 250 100q400 0 400 -400v-600h-150v600q0 250 -250 250t-250 -250v-600h-150v1000h150v-100zM631 -300h-150v150h150v-150z" />
    <glyph glyph-name="Rdotbelow" unicode="&#x1e5a;" horiz-adv-x="1100" 
d="M500 1300q450 0 450 -400q0 -289 -236 -370l387 -530h-186l-365 501q-1 -1 -12 -1h-238v-500h-150v1300h350zM800 900q0 250 -300 250h-200v-500h200q300 0 300 250zM625 -300h-150v150h150v-150z" />
    <glyph glyph-name="rdotbelow" unicode="&#x1e5b;" horiz-adv-x="700" 
d="M300 888q115 112 300 112h100v-150h-100q-300 0 -300 -250v-600h-150v1000h150v-112zM150 -150h150v-150h-150v150z" />
    <glyph glyph-name="Rdotbelowmaron" unicode="&#x1e5c;" horiz-adv-x="1100" 
d="M500 1300q450 0 450 -400q0 -289 -236 -370l387 -530h-186l-365 501q-1 -1 -12 -1h-238v-500h-150v1300h350zM800 900q0 250 -300 250h-200v-500h200q300 0 300 250zM625 -300h-150v150h150v-150zM900 1500h-700v100h700v-100z" />
    <glyph glyph-name="rdotbelowmacron" unicode="&#x1e5d;" horiz-adv-x="700" 
d="M300 888q115 112 300 112h100v-150h-100q-300 0 -300 -250v-600h-150v1000h150v-112zM150 -150h150v-150h-150v150zM700 1200h-550v100h550v-100z" />
    <glyph glyph-name="Sdotbelow" unicode="&#x1e62;" horiz-adv-x="1100" 
d="M551 151q248 0 250 249q0 200 -246 200h-4q-401 0 -401 350q0 351 400 351q251 0 351 -100v-201q-101 150 -350 150q-250 0 -250 -200t250 -200h3q396 0 396 -349q0 -400 -399 -401q-253 0 -401 100v200q152 -149 401 -149zM475 -150h150v-150h-150v150z" />
    <glyph glyph-name="sdotbelow" unicode="&#x1e63;" horiz-adv-x="1050" 
d="M551 151q249 0 249 135q0 134 -249 134q-401 0 -401 290q0 291 400 291q251 0 351 -100v-201q-101 150 -350 150q-250 0 -250 -140t250 -140q399 0 399 -285t-399 -285q-253 0 -401 100v200q152 -149 401 -149zM631 -300h-150v150h150v-150z" />
    <glyph glyph-name="Tdotbelow" unicode="&#x1e6c;" horiz-adv-x="1050" 
d="M50 1150v150h950v-150h-400v-1150h-150v1150h-400zM600 -300h-150v150h150v-150z" />
    <glyph glyph-name="tdotbelow" unicode="&#x1e6d;" horiz-adv-x="601" 
d="M150 1000v300h150v-300h250v-150h-250v-500q0 -200 151 -200h149v-150h-150q-300 0 -300 349v501h-129v150h129zM250 -150h150v-150h-150v150z" />
    <glyph glyph-name="uni1780.sub" 
d="M-514 -431q16 -25 55 -30v65zM-1100 -226q110 176 323 176q1 0 2 -1q170 0 362 -74q64 -24 101 -11q-37 -46 -37 -79v-259q0 -98 -37 -154q-36 -57 -109 -74q0 33 -55 58l-55 24q-110 49 -111 211q13 -33 67 0l162 76q-41 20 -118 37q-76 16 -205 16q-220 0 -290 -100
v-74q0 -123 -38 -184q-37 -62 -112 -62q-100 0 -180 88q-70 88 -70 177q50 -65 150 -65q75 0 112 17q38 17 38 52v40q0 60 -50 60t-50 -80q-75 0 -112 37q-38 38 -38 113q0 80 45 120t135 40q85 0 128 -31q42 -32 42 -94z" />
    <glyph glyph-name="uni1781.sub" 
d="M-1450 -252q0 68 139 135q140 67 440 67q192 0 480 -104q41 -13 41 8v-64q0 -53 -181 -143q-180 -89 -532 -124q54 -21 258 -21q126 0 259 44q137 52 123 91q73 -25 73 -85q0 -86 -126 -169q-127 -83 -387 -83q-294 0 -440 65q-147 65 -147 221q43 -21 161 -15
q119 6 355 41q235 35 235 89q0 46 -248 49q-190 0 -247 -24t-37 -53l30 -29q-133 -46 -191 -4t-58 108z" />
    <glyph glyph-name="uni1782.sub" 
d="M-514 -431q16 -25 55 -30v65zM-1449 -435q0 188 147 285q145 98 441 98q3 0 6 -1q250 0 442 -72q64 -24 101 -11q-37 -46 -37 -79v-259q0 -98 -37 -154q-36 -57 -109 -74q0 33 -55 58l-55 24q-110 49 -111 211q13 -33 67 0l162 76q-41 20 -118 37q-76 16 -265 16
q-216 0 -324 -61q-109 -62 -109 -114q0 -26 37 -37q66 85 143 116.5t150 31.5q147 0 147 -114t-146 -113q-1 101 -82 101q-45 0 -58 -50q-14 -51 66 -51q-37 -130 -148 -130q-108 0 -181.5 63.5t-73.5 202.5z" />
    <glyph glyph-name="uni1783.sub" horiz-adv-x="800" 
d="M150 1351l15 -25q15 -26 67 24l156 150q127 -107 220 -150q92 -43 140 -26q-89 -273 -184 -274q-54 0 -110 25t-109 25q-64 0 -94 -100q150 0 275 -64q124 -65 175 -65q-50 -51 -51 -121v-1050q0 -400 -400 -400q-200 0 -300 100q-148 -100 -296 -100h-3q-229 0 -365 75
t-136 225q160 0 205.5 45t44.5 100q0 35 -50 35t-50 -80q-150 0 -150 100q0 150 175 150t175 -150q0 -100 -100 -250q0 -50 250 -50t250 50t-100 50t-130 -30v280q20 -40 85 30l65 70q150 -80 200 -60q-20 -130 -80 -130q-36 0 -67 12.5t-53 12.5q-25 0 -52 -36
q76 1 154 -34t78 -105q0 -110 250 -110t250 150v750q0 131 -25 175.5t-113 59.5t-212 15v701z" />
    <glyph glyph-name="uni1784.sub" 
d="M-1450 -380q0 115 62 172q63 58 188 58q75 0 112 -35q38 -35 38 -105q0 -55 -37 -82q-37 -28 -112 -28q0 90 -45 90t-45 -45q0 -47 60 -71t180 -24q275 0 437 100t212 300q45 0 45 -68q0 -8 -1 -18q-18 -258 -193 -411t-500 -153q-201 0 -301 80t-100 240z" />
    <glyph glyph-name="uni1785.sub" 
d="M-1450 -350q101 0 226 18q124 19 124 82q0 50 -24 62q-26 13 -76 -12q0 75 38 112q37 38 112 38t112 -32q38 -33 38 -98q0 -76 -62 -131t-187 -89q0 -50 219 -50q336 0 375 64q-97 16 -146 58q-49 41 -49 108q0 85 50 128q50 42 150 42t150 -50t50 -150q-4 -42 -9 -70h16
q171 -15 257 -55t86 -105q0 -60 -62 -90q-63 -30 -188 -30q50 50 50 100q0 60 -184 84q-52 -142 -188 -212q-136 -72 -357 -72q-261 0 -391 87t-130 263zM-517 -300q8 23 7 50q0 50 -40 50q-50 0 -50 -40t83 -60z" />
    <glyph glyph-name="uni1786.sub" 
d="M-1206 -422q19 -44 86 -49v49h-86zM-681 -700q-219 0 -256 31l17 14q18 13 18 44q0 30 -25 110q-25 79 -83 79v-62q0 -93 -48 -147t-134 -70q0 32 -64 55l-64 23q-129 47 -130 232q0 62 147 62h183q-36 62 -178 62q-119 0 -152 -31v248l86 -1q129 0 241.5 -34.5
t149.5 -34.5q-37 -31 -37 -75v-134q66 0 116.5 -32.5t86.5 -97.5q24 -43 125 -43q108 0 164 49q57 50 57 124q0 62 -37 62q-36 0 -36 -16q0 -15 36 -15q-36 -93 -113 -93q-90 0 -135 38q-45 39 -45 117q0 77 55 116q55 38 165 38q74 0 147 -61q73 -62 73 -185
q0 -171 -95 -272q-95 -100 -235 -100z" />
    <glyph glyph-name="uni1787.sub" 
d="M-1450 -51h110q195 0 278 -57q82 -57 82 -138q0 -120 -93 -169q82 -38 300 -38q152 0 258 68q105 78 164 235q0 -291 -130 -421t-390 -130q-323 0 -451 90q-128 89 -128 268q14 -33 37 -33q124 0 201 21t77 50q0 30 -91 33t-224 -26v247z" />
    <glyph glyph-name="uni1788.sub" horiz-adv-x="800" 
d="M150 1351l15 -25q15 -26 67 24l156 150q127 -107 220 -150q92 -43 140 -26q-89 -273 -184 -274q-54 0 -110 25t-109 25q-64 0 -94 -100q150 0 275 -64q124 -65 175 -65q-50 -51 -51 -121v-1050q0 -400 -400 -400q-200 0 -300 100q-148 -100 -296 -100h-3q-229 0 -365 75
t-136 175q110 10 139.5 50t44.5 95q16 55 -273 55q-199 1 -293 -42q-93 -43 -93 -100q0 -75 77 -75q72 1 72 36q0 48 -74 48q37 39 110 39t113 -46q40 -45 40 -134q0 -79 -73 -111t-73 -65q-134 0 -225 83q-92 82 -92 228q1 172 148 255q146 84 357 84q223 0 334 -50
l111 -50q0 -190 -100 -300q0 -50 250 -50q240 0 240 50t-95 50t-125 -30v280q20 -40 85 30l65 70q150 -80 200 -60q-20 -130 -80 -130q-36 0 -67 12.5t-53 12.5q-25 0 -52 -36q76 1 159 -34t83 -105q0 -110 240 -110q250 0 250 150v750q0 131 -25 175.5t-113 59.5t-212 15
v701z" />
    <glyph glyph-name="uni1789.sub" 
d="M-150 -310q0 -170 -103 -255t-309 -85q-293 0 -473 100q-181 100 -335 100q-123 0 -280 -100q47 150 145 225t247 75q217 0 423 -125q207 -125 413 -125q69 0 104 38q35 37 35 112q0 100 -58 100q-61 0 -61 -100q-100 0 -150 38q-50 37 -50 112t51 112q52 38 154 38
q124 0 185 -65q62 -65 62 -195z" />
    <glyph glyph-name="uni1789.sub.alt" 
d="M-855 -392q0 -25 86 -43v68zM-112 -392q0 -25 87 -43v58zM-1005 -356q236 59 236 69q-1 11 -116 24t-239 13q-123 0 -255 -55q-186 54 -270 54q-83 1 -126 -34l-44 -27q0 -43 22 -73.5t67 -30.5q43 0 43 34q0 24 -88 35q45 17 149 17q87 0 144 -27t57 -60q0 -35 -41 -71
q-41 -35 -124 -55q-54 -13 -54 -31q-152 18 -229 70q-76 52 -77 174v53q0 87 157 156l156 70q214 -24 343 -86q103 69 220 86q116 -7 276 -45l120 -28q67 -15 108 3l41 17q81 36 199 53q116 -7 276 -45l120 -28q40 -9 84 -7q-44 -8 -44 -41v-280q0 -52 -43 -80t-131 -42
q0 18 -66 35l-66 18q-175 35 -175 156q35 -17 114 3l157 38l79 17l-124 29q-125 28 -266 28q-106 0 -223 -55v-147q0 -52 -43 -80t-131 -42q0 18 -65 35l-67 18q-175 35 -175 156q35 -17 114 9zM-25 -678q0 -122 -387 -122q-423 0 -662.5 38.5t-400.5 38.5q-282 0 -427 -72
q40 194 523 194q339 0 582.5 -72t384.5 -72q242 0 242 57q0 34 -96 27q0 -52 -98 -52q-144 0 -144 52q0 70 242 70q241 0 241 -87z" />
    <glyph glyph-name="uni178a.sub" 
d="M-515 -431q17 -25 55 -30v65zM-1450 -409q1 162 147 259q146 98 442 98q3 0 6 -1q249 0 441 -72q64 -24 101 -11q-37 -46 -37 -79v-259q0 -97 -37 -153q-36 -57 -109 -74q0 33 -55 58l-55 24q-110 49 -111 210q13 -32 68 0l162 77q-42 20 -119 36q-76 17 -265 17
q-227 0 -340.5 -33t-113.5 -100q0 -55 77 -55q92 1 92 36q0 48 -74 48q37 39 110 39t128 -51q55 -50 55 -129t-73 -112q-73 -31 -73 -64q-184 0 -275 83q-92 82 -92 208z" />
    <glyph glyph-name="uni178b.sub" 
d="M-1500 -380q101 30 213 80q-107 2 -160 40t-53 110q0 75 50 112q50 38 150 38t150 -50t50 -150h550v100q0 100 100 100t100 -100q0 -50 -50 -50q-47 0 -50 45v-95h150q200 0 250 -50q0 -50 -200 -150q0 100 -50 100h-133q25 -53 83 -150q-24 -124 -112 -187
q-88 -62 -238 -62q-50 -1 -125 59l-75 60l-70 -60q-69 -60 -129 -60q-311 99 -401 320zM-500 -400q-36 60 -49 100h-571q-25 -54 -99 -80q40 -50 170 -100q50 0 230 130q159 -130 209 -130q61 0 110 80zM-1400 -150q0 -50 125 -50h45q-1 100 -70 100q-100 0 -100 -50z" />
    <glyph glyph-name="uni178c.sub" 
d="M-1460 -439q43 -21 158.5 -14.5t419.5 84.5t304 106q-87 30 -182 30q-105 0 -216 -58q-158 58 -229 58q-75 0 -85 -37v-20q0 -19 30.5 -19t38.5 8q12 14 -25 14q-1 30 63 30q131 0 131 -74q0 -64 -185 -64q-106 0 -164 42q-59 42 -59 109q0 107 265 194q181 -30 291 -107
q87 85 186 107q99 -9 234 -56l102 -35q34 -11 71 -9q-37 -10 -37 -50q0 -62 -65 -105q-65 -44 -260 -104q-194 -60 -414 -103q14 -22 58.5 -32t157.5 -10q94 0 228 48t184 132q111 0 111 -52v-193q-1 -122 -130 -122q-130 0 -130 87q148 35 149 77v45l-74 -47
q-186 -122 -505 -122q-185 0 -303.5 67.5t-118.5 194.5z" />
    <glyph glyph-name="uni178d.sub" horiz-adv-x="800" 
d="M-374 -479l73 -24v57zM150 1351l15 -25q15 -26 67 24l156 150q127 -107 220 -150q92 -43 140 -26q-89 -273 -184 -274q-54 0 -110 25t-109 25q-64 0 -94 -100q150 0 275 -64q124 -65 175 -65q-50 -51 -51 -121v-1050q0 -400 -400 -400q-180 0 -286 187q-35 62 -155 63
v-99q0 -64 -36 -99t-110 -52q0 21 -55 44l-56 22q-147 43 -147 195q30 -23 96 10l198 97q-194 72 -298 72q-103 0 -214 -68q-156 67 -226 68q-70 0 -106.5 -25t-36.5 -90q0 -53 18.5 -90.5t55.5 -37.5t37 41q0 31 -74 44q37 21 125 21q73 0 121 -33q48 -34 48 -75
q0 -43 -35 -87q-34 -45 -104 -69q-45 -17 -45 -39q-128 22 -192 87t-65 216v65q0 109 131 196l132 86q179 -30 288 -107q86 86 184 107q98 -8 232 -56l101 -35q33 -11 70 -8q-37 -10 -37 -51l-1 -100q162 -1 244 -151q27 -50 198 -49q250 0 250 150v750q0 131 -25 175.5
t-113 59.5t-212 15v701z" />
    <glyph glyph-name="uni178e.sub" 
d="M185 -450q0 -30 88 -54v97zM-1920 -700q-377 0 -381 173v87q41 -13 220 -1q180 13 179 43q0 22 -143 22q-145 0 -256 -22v281l13 -10q14 -12 186 31.5t371 43.5q265 0 514 -53q247 -54 247 -100q0 -106 -155 -193l-155 -86q43 -36 96.5 -51t117.5 -15q73 0 122 30l63 41
l42 -22q41 -23 91 -35q62 -14 162 -14q99 0 148 22.5t49 66.5q-22 18 -94 30q-71 12 -216 12h-93v302l13 -10q13 -12 99 10l86 21q173 44 336 44q168 0 602 -86q62 -12 107 1q-44 -46 -45 -78v-334q0 -64 -44 -99t-133 -52q0 22 -66 44l-68 21q-177 44 -177 194
q35 -21 115 11l160 65q80 32 80 54q0 30 -289 73q-288 43 -352 43q-65 0 -142 -15t-148 -58h44q178 0 265 -43q89 -43 89 -129q0 -110 -133 -185t-257 -75q-98 0 -188 33l-90 33q-86 -66 -179 -66q-218 0 -373 60q-155 59 -155 204q16 -22 44 -22q213 0 350 91q69 45 44 78
q-26 33 -146 54q-239 40 -392 40t-275 -15t-157 -37q231 13 315 -25q83 -39 83 -104q1 -86 -154 -107q-155 -22 -155 -42q0 -23 46 -23q36 -1 36 10t-41 11q39 22 114 22t114.5 -26.5t39.5 -61.5q0 -48 -76 -67q-75 -20 -75 -40z" />
    <glyph glyph-name="uni178f.sub" 
d="M-515 -431q17 -25 55 -30v65zM-1450 -409q1 162 147 259q146 98 442 98q3 0 6 -1q249 0 441 -72q64 -24 101 -11q-37 -46 -37 -79v-259q0 -97 -37 -153q-36 -57 -109 -74q0 33 -55 58l-55 24q-110 49 -111 210q13 -32 68 0l162 77q-42 20 -119 36q-76 17 -265 17
q-227 0 -340.5 -33t-113.5 -100q0 -55 77 -55q92 1 92 36q0 48 -74 48q37 39 110 39t128 -51q55 -50 55 -129t-73 -112q-73 -31 -73 -64q-184 0 -275 83q-92 82 -92 208z" />
    <glyph glyph-name="uni1790.sub" 
d="M-1550 -450q0 175 110 262q110 88 330 88q210 0 389 -84t286 -251q125 -165 185 -165q90 0 150 50q0 -75 -38 -112q-37 -38 -112 -38q-135 0 -239 46q-103 46 -176 139q-87 107 -209 161q-121 54 -236 54q-170 0 -255 -38q-85 -37 -85 -112q0 -120 80 -120q70 0 70 120
q100 0 150 -31t50 -94t-38 -94q-37 -31 -112 -31q-150 0 -225 62q-75 63 -75 188z" />
    <glyph glyph-name="uni1791.sub" 
d="M-1450 -51h110q110 0 219 -34q110 -33 110 -146q0 -112 -103 -183q14 -59 69 -59q62 0 176 130t275 130q91 0 166 -58t75 -180t-64 -185q-64 -64 -155 -64q-92 0 -138 32q-45 33 -45 98t37 97q36 33 109 33q0 -33 37 -33q36 0 36 29q0 88 -109 88q-95 0 -163 -86l-68 -86
q-135 -172 -208 -172q-110 0 -238 90q-128 88 -128 267q14 -32 37 -32q175 0 234 24q58 24 58 59q0 33 -87 33t-242 -19v227z" />
    <glyph glyph-name="uni1792.sub" 
d="M-1450 -375q47 0 368 70q90 24 90 51q0 49 -30.5 49t-60.5 -28q0 92 45 137q46 46 138 46t138 -35q45 -35 45 -104q0 -57 -64 -101.5t-191 -77.5l-248 -62q32 -42 78 -63t105 -21q46 0 87 45l83 106q41 35 87 35q33 0 62 -35l60 -69q33 -35 79 -35t69 35q22 34 22 104
q0 79 -45 148q-46 70 -138 130q161 0 241 -70q80 -69 80 -208q0 -186 -57 -278q-58 -93 -172 -93q-138 0 -183 46l-92 93q-137 -140 -228 -140q-170 0 -269 124t-99 201z" />
    <glyph glyph-name="uni1793.sub" 
d="M-1206 -410q19 -47 86 -52v52h-86zM-680 -699q-220 0 -257 32l18 15q18 14 18 45q0 32 -25 114q-25 83 -84 83v-65q0 -96 -48 -152t-134 -73q0 33 -64 57l-64 24q-129 49 -130 241q37 64 183 64h147q0 64 -146 64q-124 0 -184 -32v231h110q147 0 239 -30q91 -30 91 -135
v-98q66 0 117 -34t80.5 -74t131.5 -40q122 0 190 51.5t68 231.5q73 -32 73 -135q0 -144 -95.5 -264.5t-234.5 -120.5z" />
    <glyph glyph-name="uni1794.sub" horiz-adv-x="800" 
d="M150 1351l15 -25q15 -26 67 24l156 150q127 -107 220 -150q92 -43 140 -26q-89 -273 -184 -274q-54 0 -110 25t-109 25q-64 0 -94 -100q150 0 275 -64q124 -65 175 -65q-50 -51 -51 -121v-1050q0 -50 50 -50l-50 -100q-50 -125 -120 -188q-70 -62 -160 -62q-85 0 -152 38
q-68 37 -118 112q-50 -75 -122 -112q-73 -38 -168 -38q-180 0 -270 75t-90 225t58 225q57 75 172 75q85 0 128 -38q42 -37 42 -112t-50 -112q-50 -38 -150 -38q0 100 -50 100t-50 -60q0 -45 51 -68q51 -22 152 -22q103 0 178 38q74 37 119 112q50 -75 118 -112
q67 -38 152 -38q90 0 135 50t45 150v841q0 19 -113 39t-237 20v701z" />
    <glyph glyph-name="uni1795.sub" 
d="M-1450 -51h110q165 0 248 -57q82 -57 82 -138q0 -129 -103 -168q14 -28 47 -44.5t84 -16.5t92 45l53 62l34 -33q34 -34 86 -54q51 -20 97 -20t102 40q57 40 57 98q0 59 -37 59q-36 0 -36 -16q0 -17 36 -17q-36 -64 -119.5 -64t-128.5 34t-45 95q0 81 55 122t165 41
q74 0 147 -65t73 -188q0 -152 -110 -258t-190 -106q-66 0 -141 49l-74 49q-71 -98 -148 -98q-180 0 -308 90q-128 88 -128 267q14 -32 37 -32q124 0 201 21t77 55t-91 47t-224 -26v227z" />
    <glyph glyph-name="uni1796.sub" 
d="M-534 -450q0 -29 73 -53v97zM-759 -260q-103 0 -214 -68q-156 67 -226 68q-70 0 -106.5 -25t-36.5 -90q0 -53 18.5 -90.5t55.5 -37.5t37 41q0 31 -74 44q37 21 125 21q73 0 121 -33q48 -34 48 -75q0 -43 -35 -87q-34 -45 -104 -69q-45 -17 -45 -39q-128 22 -192 87
t-65 216v65q0 109 131 196l132 86q179 -30 288 -107q86 86 184 107q98 -8 232 -56l101 -35q33 -11 70 -8q-37 -10 -37 -51v-349q0 -64 -36 -99t-110 -52q0 21 -55 44l-56 22q-147 43 -147 195q30 -23 96 10l132 65l66 32q-194 72 -298 72z" />
    <glyph glyph-name="uni1797.sub" 
d="M-514 -431q16 -24 55 -30v65zM-1450 -373q0 146 147 234q146 87 442 87q3 0 6 -1q250 0 442 -72q64 -24 101 -11q-37 -46 -37 -79v-259q0 -97 -37 -153q-36 -57 -109 -74q0 33 -55 58l-55 24q-111 49 -111 210q13 -32 67 0l162 77q-41 20 -118 37q-76 16 -265 16
q-433 0 -433 -33q147 -16 221 -66q73 -50 73 -134q0 -94 -55 -142q-55 -46 -165 -46t-165 39t-55 117q0 67 44 92q44 26 131 9q-29 -6 -29 -35q0 -27 70 -27t70 31q0 62 -125 71t-162 -14v44z" />
    <glyph glyph-name="uni1798.sub" 
d="M-350 -233q-50 0 -75 -19t-25 -57h50q100 0 150 -49q50 -48 50 -146q0 -97 -50 -145q-50 -49 -150 -49q-75 0 -112 48q-38 49 -38 146v108q-75 0 -112 -43q-38 -43 -38 -129q0 -44 50 -44q-49 -86 -200 -86h-50q-100 0 -250 130q-75 64 -200 97q-125 32 -300 32
q0 89 200 89q201 0 350 -73q148 -73 224 -73q76 1 126 94q49 93 200 93q0 129 50 194t150 65v-183zM-401 -592q50 0 50 88q0 108 -49 108h-50v-108q0 -88 49 -88z" />
    <glyph glyph-name="uni1799.sub" horiz-adv-x="800" 
d="M-188 -412q113 -38 288 -38t288 75q112 75 112 225v550q0 131 -25 175.5t-113 59.5t-212 15v701l15 -25q15 -26 67 24l156 150q127 -107 220 -150q92 -43 140 -26q-89 -273 -184 -274q-54 0 -110 25t-109 25q-64 0 -94 -100q150 0 275 -64q124 -65 175 -65
q-50 -51 -51 -121v-1100q-30 -165 -181 -258q-151 -92 -369 -92q-250 0 -400 88q-150 87 -150 262q0 150 75 225t225 75q125 0 188 -38q62 -37 62 -112t-44 -112q-44 -38 -131 -38q-75 0 -125 50q0 50 -50 50t-50 -50q0 -75 112 -112z" />
    <glyph glyph-name="uni179a.sub" horiz-adv-x="800" 
d="M501 591q-51 29 -139 44t-212 15v701l15 -25q15 -26 67 24l156 150q127 -107 220 -150q92 -43 140 -26q-99 -303 -154 -304q-54 0 -125 40t-124 40q-64 0 -94 -100q150 0 275 -64q124 -65 175 -65q-50 -51 -51 -121v-750q0 -130 -70 -187q0 -106 141 -159t324 -54
q317 1 426 93q109 93 129 257q50 0 50 -100q0 -200 -200 -350t-505 -150q-385 0 -569 123q-185 123 -226 377q0 99 100 100q9 -50 50 -50q200 0 200 240z" />
    <glyph glyph-name="uni179b.sub" 
d="M-250 -300q0 -200 -112 -300t-336 -100q-176 0 -267 62q-91 63 -98 188l171 100q-20 50 -76 75t-149 25q-168 0 -252 -50q-85 -50 -85 -150q0 -70 26 -105q27 -35 80 -35q38 0 38 40q-45 0 -68 25q-22 25 -22 75q-1 50 29 75q31 25 91 25q65 0 98 -36q32 -36 32 -109
q0 -103 -50 -154q-49 -51 -148 -51q-101 0 -152 62q-50 63 -50 188q0 200 108 300t325 100q148 0 256 -50q109 -50 177 -150q0 -100 -165 -200q0 -50 151 -50q140 0 244 60q105 59 104 390q50 -50 75 -113q25 -62 25 -137z" />
    <glyph glyph-name="uni179c.sub" 
d="M-350 -48q0 -208 -173 -431q-174 -224 -472 -224q-217 0 -356 92q-148 101 -149 216q0 67 192 84q191 18 479 100q287 83 479 211v-48zM-504 -222q-115 -43 -316 -101t-488 -92q1 -40 117 -64t196 -24q155 0 308 103t183 178z" />
    <glyph glyph-name="uni179d.sub" 
d="M-1449 -435q0 188 147 285q145 98 441 98q3 0 6 -1q250 0 442 -72q64 -24 101 -11q-31 -39 -36 -69q82 26 175 70q-59 -207 -162 -264q-7 -4 -14 -7v-68q0 -98 -37 -154q-36 -57 -109 -74q0 33 -55 58l-55 24q-110 49 -111 211q13 -31 63 -2q-40 27 -54 76q-8 31 4 51
q-68 4 -167 4q-216 0 -324 -61q-109 -62 -109 -114q0 -26 37 -37q66 85 143 116.5t150 31.5q147 0 147 -114t-146 -113q-1 101 -82 101q-45 0 -58 -50q-14 -51 66 -51q-37 -130 -148 -130q-108 0 -181.5 63.5t-73.5 202.5zM-502 -444q16 -13 43 -17v20q-21 -3 -43 -3z" />
    <glyph glyph-name="uni179e.sub" horiz-adv-x="800" 
d="M420 -2q-121 14 -147 107t142 93q41 0 85 6v387q0 19 -113 39t-237 20v701l15 -25q15 -26 67 24l156 150q127 -107 220 -150q92 -43 140 -26q-89 -273 -184 -274q-54 0 -110 25t-109 25q-64 0 -94 -100q150 0 275 -64q124 -65 175 -65q-50 -51 -51 -121v-510
q74 26 157 65q-58 -202 -157 -261v-344q0 -50 50 -50l-50 -100q-50 -125 -120 -188q-70 -62 -160 -62q-85 0 -152 38q-68 37 -118 112q-50 -75 -122 -112q-73 -38 -168 -38q-180 0 -270 75t-90 225t58 225q57 75 172 75q85 0 128 -38q42 -37 42 -112t-50 -112
q-50 -38 -150 -38q0 100 -50 100t-50 -60q0 -45 51 -68q51 -22 152 -22q103 0 178 38q74 37 119 112q50 -75 118 -112q67 -38 152 -38q90 0 135 50t45 150v247q-39 -3 -80 1z" />
    <glyph glyph-name="uni179f.sub" horiz-adv-x="800" 
d="M336 322q82 -87 164 -122v200q0 131 -25 175.5t-113 59.5t-212 15v701l15 -25q15 -26 67 24l156 150q127 -107 220 -150q92 -43 140 -26q-89 -273 -184 -274q-54 0 -110 25t-109 25q-64 0 -94 -100q150 0 275 -64q124 -65 175 -65q-50 -51 -51 -121v-582q82 -8 181 -7
q-60 -109 -181 -147v-344q0 -185 -151 -278q-151 -92 -414 -92t-399 75t-136 225q160 0 205.5 35t44.5 60q0 35 -50 35t-50 -80q-150 0 -150 100q0 150 175 150t175 -150q0 -100 -50 -150q0 -50 240 -50q185 0 298 50q112 50 112 150v246q-111 4 -247 52q98 96 83 274z" />
    <glyph glyph-name="uni17a0.sub" 
d="M-275 -437q0 -15 70 -41v65zM-1698 -49h122q305 0 305 -207q0 -117 -135 -175q49 -49 130.5 -81t217.5 -32q146 0 226 29.5t80 53.5q0 31 -231 30h-75v318l11 -12q10 -13 148 31.5t233 44.5q170 0 518 -88q50 -13 86 1q-36 -52 -36 -88v-306q0 -73 -35.5 -112.5
t-106.5 -58.5q0 24 -53 49l-54 25q-142 49 -142 220q28 -24 156 17.5t128 68.5t-192 68.5t-314 41.5q-123 0 -240 -49h36q142 0 212 -49q71 -49 71 -146q0 -86 -142 -166t-384 -80q-263 0 -401.5 77.5t-138.5 241.5q14 -25 36 -25q135 0 206 38t71 76t-313 38v206z" />
    <glyph glyph-name="uni17a1.sub" 
d="M-1570 -133q11 -22 34 -22t79 26q171 77 318 77q165 0 292 -64q128 -65 128 -146q0 -52 -44 -82t-132 -30q-136 0 -136 64q0 65 102 65q51 0 68 -22q-28 0 -28 -20q0 -21 28 -21q57 0 57 28q0 37 -93 57q-93 21 -250 21q-158 0 -242 -17q-85 -16 -96 -48q86 0 170 -22
q85 -22 85 -97q0 -74 -79 -121q22 -39 65 -39q36 0 124 64q89 65 214 65q71 0 129 -38q58 -39 57 -98q1 -59 -49 -101q-49 -42 -120 -42t-107 21q-35 22 -35 65t28 64q29 22 85 22q0 -22 29 -22q28 0 28 19q0 37 -85 37q-74 0 -126 -52l-53 -51q-105 -103 -161 -103
q-85 0 -185 59q-99 59 -99 177q11 -22 57 -22q108 0 153 17q45 16 45 38q0 23 -67 23q-68 0 -188 -13v284zM-577 -116l8 -11q9 -11 38 11l89 64q72 -46 125 -64q52 -19 79 -12q-50 -117 -104 -117q-31 0 -63 10q-32 11 -62 11q-36 0 -53 -43q85 0 156 -27q70 -28 99 -28
q-28 -22 -29 -52v-494q0 -129 -170 -129q-113 0 -170 64q-57 -64 -170 -64q-199 0 -199 112q91 0 117 23q26 24 25 35q0 10 -28 10q-29 0 -29 -30q-85 0 -85 43q0 65 100 65q99 0 99 -65q0 -43 -29 -81q0 -17 57 -17q91 0 142 60q57 -60 153 -60q102 0 102 55v323
q0 56 -14 75t-64 25q-50 7 -120 7v301z" />
    <glyph glyph-name="uni17a2.sub" 
d="M-515 -430q16 -25 54 -30v65zM-1206 -430q19 -25 86 -30v65zM-985 -205q87 -68 165 -81.5t176 0.5q-34 -67 -128 -100q-93 -32 -230 -1q46 69 17 182zM-1450 -50l86 -1h65q64 0 176 -41q112 -43 150 -43q-38 -33 -38 -78v-260q0 -97 -47 -155q-48 -56 -134 -73
q0 33 -64 58l-64 24q-129 49 -130 243q16 -32 59 -28q41 4 271 88q-73 18 -148 28q-76 10 -182 10v228zM-718 -50l74 -1q110 0 202 -41q91 -43 128 -43q-37 -33 -37 -78v-260q0 -97 -37 -154q-36 -57 -109 -74q0 33 -55 58l-55 24q-110 49 -111 243q14 -32 50 -28
q35 4 122 46l86 42q-38 18 -102 28q-65 10 -156 10v228z" />
    <glyph glyph-name="uni17a3.sub" 
d="M-515 -430q16 -25 54 -30v65zM-1206 -430q19 -25 86 -30v65zM-985 -205q87 -68 165 -81.5t176 0.5q-34 -67 -128 -100q-93 -32 -230 -1q46 69 17 182zM-1450 -50l86 -1h65q64 0 176 -41q112 -43 150 -43q-38 -33 -38 -78v-260q0 -97 -47 -155q-48 -56 -134 -73
q0 33 -64 58l-64 24q-129 49 -130 243q16 -32 59 -28q41 4 271 88q-73 18 -148 28q-76 10 -182 10v228zM-718 -50l74 -1q110 0 202 -41q91 -43 128 -43q-37 -33 -37 -78v-260q0 -97 -37 -154q-36 -57 -109 -74q0 33 -55 58l-55 24q-110 49 -111 243q14 -32 50 -28
q35 4 122 46l86 42q-38 18 -102 28q-65 10 -156 10v228z" />
    <glyph glyph-name="uni17a4.sub" 
d="M-848 -564q10 -18 35 -22v47zM-1293 -564q12 -18 55 -22v47zM-1450 -123l8 -12q9 -12 37 11l87 71q69 -50 121 -71q51 -20 77 -12q-45 -129 -91 -129q-47 0 -75 12q-27 11 -56 11q-36 0 -52 -47h41q42 0 114 -30q72 -31 96 -31q-24 -24 -24 -57v-188q0 -71 -31 -113
q-31 -41 -86 -53q0 24 -41 42l-42 17q-83 36 -83 177q10 -23 38 -20q26 3 175 63q-47 14 -96 21t-117 7v331zM-1150 -401q56 -49 106 -59q50 -9 113 0q-22 -48 -82 -72t-148 -1q29 50 11 132zM-459 -488q0 -33 47 -58v105zM-978 -123l7 -12q7 -12 53 11l45 24q92 47 179 47
q1 1 2 1q90 0 318 -94q33 -13 57 1q-24 -51 -24 -86v-365q0 -70 -23.5 -108.5t-70.5 -56.5q0 24 -36 48l-36 23q-94 48 -94 213q19 -24 61 11l85 71q43 36 43 59q0 34 -142 80q-141 47 -194 47q-39 0 -85 -16q-46 -17 -85 -64q58 0 117 -30q59 -31 83 -31q-24 -24 -24 -57
v-188q0 -71 -24 -112q-23 -42 -70 -54q0 24 -36 42l-35 17q-71 36 -71 177q9 -23 32 -20q22 3 78 33l55 30q-24 14 -65 21q-42 7 -100 7v331z" />
    <glyph glyph-name="uni17a5.sub" 
d="M-1450 -742q1 143 147 229q18 11 37 20q-42 77 -184 95v173q15 -29 44 -29t194 57l166 57q423 -143 468 -143q46 0 46 29q0 35 -61 72q-60 37 -196 37q73 149 165 149q91 0 183 -55q92 -54 92 -117q0 -86 -113 -158t-256 -72q-159 0 -280 37q-122 38 -184 38
q-63 0 -121 -35q92 -25 148 -98q123 30 300 29q250 0 442 -64q64 -21 101 -10q-37 -40 -37 -69v-230q0 -86 -37 -136q-36 -50 -109 -65q0 29 -55 51l-55 21q-111 44 -111 187q13 -29 67 0l162 68q-41 17 -118 32q-76 15 -265 15q-228 0 -341.5 -29.5t-113.5 -88.5
q0 -49 78 -48q91 0 91 31q0 43 -74 43q38 34 110 34q74 0 129 -45q55 -44 55 -114t-74 -99q-73 -28 -73 -57q-184 0 -275 73q-92 73 -92 185zM-514 -762q16 -22 55 -26v57z" />
    <glyph glyph-name="uni17a6.sub" 
d="M-877 -516q0 -27 50 -47v84zM-827 -391q0 33 -75.5 62t-205.5 29q-155 0 -238 -50t-83 -128q0 -20 13 -53q12 -33 38 -33q25 0 25 37q0 26 -51 38q26 19 86 19q50 0 82 -30q33 -29 33 -66t-24 -76q-23 -39 -70 -60q-31 -14 -31 -33q-88 19 -132 76q-43 56 -44 189v56
q1 98 101 172t306 74q170 0 302 -65q43 -14 69 -7q-25 -26 -26 -45v-318q0 -56 -24.5 -87t-74.5 -46q0 19 -38 39l-38 19q-100 38 -100 170q20 -19 65 9l90 57q45 28 45 51zM-950 -890q9 -18 43 -20v20h-43zM-1404 -890q1 61 74 98q74 37 225 37q125 0 221 -20q32 -9 51 -4
q-19 -17 -19 -30v-45q33 0 59 -13q25 -13 40 -26t152 -12q113 0 169 28q57 28 57 85v261q-10 21 -51 31q-41 11 -122 11h-53v265l7 -9q8 -10 42 9l100 56q59 -40 89 -48q38 -10 38 16q0 33 -66 71q-67 38 -160 23q50 109 123 109q53 0 115 -34q63 -34 63 -154
q0 -76 -25 -114q-26 -39 -78 -39q-22 0 -58 13q-36 14 -67 14q-37 0 -72 -46h50q100 0 150 -38q50 -37 50 -117v-374q-25 -57 -100 -86q-76 -28 -201 -28q-196 0 -214 12l9 6q9 5 9 17t-13 43q-12 32 -42 32v-25q0 -36 -24 -57q-24 -22 -67 -28q0 12 -32 22l-32 9
q-65 18 -66 91q19 24 92 24h74q-21 13 -206 13q-114 0 -171 -12.5t-57 -37.5q0 -21 39 -21q46 1 46 14q0 18 -37 18q18 15 55 15q36 0 64 -20q28 -19 28 -48q0 -30 -37 -43q-37 -12 -37 -24q-92 0 -138 31t-46 79z" />
    <glyph glyph-name="uni17a7.sub" 
d="M-1450 -322q0 96 140 185q138 88 435 88q3 0 6 -1q192 0 481 -133q41 -18 41 12v-91q0 -76 -65 -142q-64 -66 -257 -150t-421 -145q14 -31 58.5 -52t125.5 -21q193 0 321 74.5t128 192.5q110 0 110 -73v-322q0 -106 -189 -106q-25 0 -54 1q133 45 133 197v81l-74 -66
q-184 -167 -441 -167q-184 0 -331 92q-147 93 -147 272q43 -30 187 -21t420 116q277 107 276 141q0 37 -126 68q-126 30 -253 30q-250 0 -308 -49q-57 -48 -57 -76q0 -27 44 -27q37 0 52 24q14 25 -22 25q7 42 91 42q100 0 100 -76q0 -136 -157 -136q-131 0 -189 59
q-58 60 -58 154z" />
    <glyph glyph-name="uni17a8.sub" 
d="M-1203 -333q-154 49 -247 28v177q14 -27 43 -27q28 0 90 26l186 78q141 -25 297 -98q103 72 191 98l121 -54q121 -55 199 -39q-86 -140 -149 -140q-85 0 -163 31.5t-131 30.5q-74 0 -186 -62q-108 52 -225 62q-75 0 -131 -26q91 -23 105 -85zM-1450 -536q0 71 140 135
q139 65 441 64q192 0 481 -97q41 -14 41 8v-66q0 -56 -65 -104q-64 -48 -257 -110q-193 -61 -421 -106q14 -22 58.5 -37.5t125.5 -15.5q193 0 321 54.5t128 140.5q110 0 110 -53v-235q0 -79 -192 -79q-24 0 -51 1q133 34 133 144v60l-74 -49q-184 -122 -441 -122
q-184 0 -331 68t-147 199q43 -23 187 -16t420 85q277 78 276 103q0 27 -126 50q-126 22 -253 22q-250 0 -308 -36q-57 -35 -57 -55t44 -20q37 0 52 18q14 18 -22 18q7 30 91 30q100 0 100 -55q0 -100 -157 -100q-131 0 -189 44q-58 43 -58 112z" />
    <glyph glyph-name="uni17a9.sub" 
d="M-244 -936v425l135 62v-487l-68 -62h-134zM-1450 -322q0 96 140 185q138 88 435 88q3 0 6 -1q192 0 481 -133q41 -18 41 12v-91q0 -76 -65 -142q-64 -66 -257 -150t-421 -145q14 -31 58.5 -52t125.5 -21q193 0 321 74.5t128 192.5q110 0 110 -73v-322q0 -106 -189 -106
q-25 0 -54 1q133 45 133 197v81l-74 -66q-184 -167 -441 -167q-184 0 -331 92q-147 93 -147 272q43 -30 187 -21t420 116q277 107 276 141q0 37 -126 68q-126 30 -253 30q-250 0 -308 -49q-57 -48 -57 -76q0 -27 44 -27q37 0 52 24q14 25 -22 25q7 42 91 42q100 0 100 -76
q0 -136 -157 -136q-131 0 -189 59q-58 60 -58 154z" />
    <glyph glyph-name="uni17aa.sub" 
d="M-1264 -374q-41 60 -186 75v130q15 -22 44 -22t194 43l166 43q423 -108 468 -108q46 0 46 22q0 27 -61 55q-60 28 -196 28q73 112 165 112q91 0 183 -41t92 -89q0 -65 -113 -119t-256 -54q-159 0 -280 28q-122 28 -184 28q-63 0 -121 -26q94 -20 150 -77zM-1450 -536
q0 71 140 135q139 65 441 64q192 0 481 -97q41 -14 41 8v-66q0 -56 -65 -104q-64 -48 -257 -110q-193 -61 -421 -106q14 -22 58.5 -37.5t125.5 -15.5q193 0 321 54.5t128 140.5q110 0 110 -53v-235q0 -79 -192 -79q-24 0 -51 1q133 34 133 144v60l-74 -49
q-184 -122 -441 -122q-184 0 -331 68t-147 199q43 -23 187 -16t420 85q277 78 276 103q0 27 -126 50q-126 22 -253 22q-250 0 -308 -36q-57 -35 -57 -55t44 -20q37 0 52 18q14 18 -22 18q7 30 91 30q100 0 100 -55q0 -100 -157 -100q-131 0 -189 44q-58 43 -58 112z" />
    <glyph glyph-name="uni17ab.sub" 
d="M-1450 -114l11 -11q11 -11 60 11l148 65q86 -47 172 -65q87 -19 122 -12q-73 -118 -128 -119q-54 0 -106 15q-53 16 -99 16q-54 0 -106 -53h52q132 0 224 -33q91 -34 91 -98t-103 -112q14 -22 98.5 -37.5t225.5 -15.5q151 0 233.5 26.5t82.5 69.5q0 24 -60 36
q-59 12 -179 12h-77v305l11 -11q11 -11 49 11l115 65q93 -47 162 -65q67 -19 103 -12q-73 -118 -114 -119q-39 0 -91.5 15.5t-91.5 15.5q-47 0 -69 -53h74q147 0 219 -43q74 -44 74 -130q0 -120 -147 -191t-441 -71q-258 0 -386 60q-129 60 -129 180q14 -22 37 -22
q139 0 213 14t74 28t-73 19q-73 4 -251 4v305zM-347 -837q0 -68 -93 -115.5t-279 -47.5q-620 1 -621 248q248 -140 665 -140q87 0 152 14q66 13 66 41q0 54 -60 54q-50 0 -50 -54q-162 0 -162 54q0 40 50 60q50 21 148 21q92 0 138 -34t46 -101z" />
    <glyph glyph-name="uni17ac.sub" 
d="M-1450 -114l11 -11q11 -11 60 11l148 65q86 -47 172 -65q87 -19 122 -12q-73 -118 -128 -119q-54 0 -106 15q-53 16 -99 16q-54 0 -106 -53h52q132 0 224 -33q91 -34 91 -98t-103 -112q14 -22 98.5 -37.5t225.5 -15.5q151 0 233.5 26.5t82.5 69.5q0 24 -60 36
q-59 12 -179 12h-77v305l11 -11q11 -11 49 11l115 65q93 -47 162 -65q67 -19 103 -12q-73 -118 -114 -119q-39 0 -91.5 15.5t-91.5 15.5q-47 0 -69 -53h74q147 0 219 -43q74 -44 74 -130q0 -120 -147 -191t-441 -71q-258 0 -386 60q-129 60 -129 180q14 -22 37 -22
q139 0 213 14t74 28t-73 19q-73 4 -251 4v305zM-347 -837q0 -68 -93 -115q-58 -30 -154 -41l19 -25q25 -30 160 -56q-61 -23 -115 -23q-22 0 -41 4q-69 14 -93 43l-13 17l-27 33h-15q-620 1 -621 248q248 -140 665 -140q87 0 152 14q66 13 66 41q0 54 -60 54q-50 0 -50 -54
q-162 0 -162 54q0 40 50 60q50 21 148 21q92 0 138 -34t46 -101z" />
    <glyph glyph-name="uni17ad.sub" 
d="M-534 -450q0 -29 73 -53v97zM-759 -260q-103 0 -214 -68q-156 67 -226 68q-70 0 -106.5 -25t-36.5 -90q0 -53 18.5 -90.5t55.5 -37.5t37 41q0 31 -74 44q37 21 125 21q73 0 121 -33q48 -34 48 -75q0 -43 -35 -87q-34 -45 -104 -69q-45 -17 -45 -39q-128 22 -192 87
t-65 216v65q0 109 131 196l132 86q179 -30 288 -107q86 86 184 107q98 -8 232 -56l101 -35q33 -11 70 -8q-37 -10 -37 -51v-349q0 -64 -36 -99t-110 -52q0 21 -55 44l-56 22q-147 43 -147 195q30 -23 96 10l132 65l66 32q-194 72 -298 72zM-347 -837q0 -68 -93 -115.5
t-279 -47.5q-620 1 -621 248q248 -140 665 -140q87 0 152 14q66 13 66 41q0 54 -60 54q-50 0 -50 -54q-162 0 -162 54q0 40 50 60q50 21 148 21q92 0 138 -34t46 -101z" />
    <glyph glyph-name="uni17ae.sub" 
d="M-759 -260q-103 0 -214 -68q-156 67 -226 68q-70 0 -106.5 -25t-36.5 -90q0 -53 18.5 -90.5t55.5 -37.5t37 41q0 31 -74 44q37 21 125 21q73 0 121 -33q48 -34 48 -75q0 -43 -35 -87q-34 -45 -104 -69q-45 -17 -45 -39q-128 22 -192 87t-65 216v65q0 109 131 196l132 86
q179 -30 288 -107q86 86 184 107q98 -8 232 -56l101 -35q33 -11 70 -8q-37 -10 -37 -51v-349q0 -64 -36 -99t-110 -52q0 21 -55 44l-56 22q-147 43 -147 195q30 -23 96 10l132 65l66 32q-194 72 -298 72zM-347 -837q0 -68 -93 -115q-58 -30 -154 -41l19 -25q25 -30 160 -56
q-61 -23 -115 -23q-22 0 -41 4q-69 14 -93 43l-13 17l-27 33h-15q-620 1 -621 248q248 -140 665 -140q87 0 152 14q66 13 66 41q0 54 -60 54q-50 0 -50 -54q-162 0 -162 54q0 40 50 60q50 21 148 21q92 0 138 -34t46 -101zM-534 -450q0 -29 73 -53v97z" />
    <glyph glyph-name="uni17af.sub" 
d="M-1233 -693q-232 0 -232 90q0 115 209 115q239 0 239 -153q0 -103 -104 -134q14 -22 47.5 -34.5t85.5 -12.5t95 35l53 49l35 -26q35 -27 87 -42q53 -16 99 -16q47 0 105 31q58 32 58 150v49q1 50 -179 128q-179 79 -299 79q-261 0 -422 -52q-109 0 -109 57q0 51 19 100
q18 48 18 99q0 52 -112 52q54 128 150 128q186 0 186 -144q0 -75 -118 -183q118 46 204 71t213 25q150 1 355 -87l103 -44q96 -43 103 3v-353q0 -120 -112 -204q-112 -83 -194 -83q-68 0 -144 39l-75 38q-73 -77 -151 -77q-184 0 -314 71q-131 70 -131 211q14 -26 37 -26
q127 0 205.5 22t78.5 50q2 36 -41.5 36t-47.5 -57z" />
    <glyph glyph-name="uni17b0.sub" 
d="M-1450 -848q47 0 483 59q267 41 267 60q0 23 -41 33q191 0 191 -46q0 -36 -349 -84l-321 -48q32 -19 78 -29t105 -10q46 0 87 21l83 50q41 16 87 16q33 0 62 -16l60 -33q33 -16 79 -16t69 16q22 16 22 49q0 60 -45 130q183 -42 183 -130q0 -87 -57 -130q-58 -44 -172 -44
q-138 0 -183 22l-92 43q-137 -65 -228 -65q-170 0 -269 58t-99 94zM-534 -450q0 -29 73 -53v97zM-759 -260q-103 0 -214 -68q-156 67 -226 68q-70 0 -106.5 -25t-36.5 -90q0 -53 18.5 -90.5t55.5 -37.5t37 41q0 31 -74 44q37 21 125 21q73 0 121 -33q48 -34 48 -75
q0 -43 -35 -87q-34 -45 -104 -69q-45 -17 -45 -39q-128 22 -192 87t-65 216v65q0 109 131 196l132 86q179 -30 288 -107q86 86 184 107q98 -8 232 -56l101 -35q33 -11 70 -8q-37 -10 -37 -51v-349q0 -64 -36 -99t-110 -52q0 21 -55 44l-56 22q-147 43 -147 195q30 -23 96 10
l132 65l66 32q-194 72 -298 72z" />
    <glyph glyph-name="uni17b1.sub" 
d="M-1450 -536q0 71 140 135q-140 3 -140 106q0 104 95 170t359 66q240 0 406 -64q167 -65 244 -193q16 -25 16 -42q0 -22 -28 -30q-47 -14 -95 38q-71 77 -211 115q-139 39 -332 39q-186 0 -273 -25q-86 -25 -86 -74q78 43 151 43q63 0 98.5 -20.5t36.5 -60.5q0 -6 -2 -12
q90 9 202 8q192 0 481 -97q38 -13 41 5v-63q0 -56 -65 -104q-64 -48 -257 -110q-193 -61 -421 -106q14 -22 58.5 -37.5t125.5 -15.5q193 0 321 54.5t128 140.5q110 0 110 -53v-235q0 -79 -192 -79q-24 0 -51 1q133 34 133 144v60l-74 -49q-184 -122 -441 -122
q-184 0 -331 68t-147 199q43 -23 187 -16t420 85q277 78 276 103q0 27 -126 50q-126 22 -253 22q-250 0 -308 -36q-57 -35 -57 -55t44 -20q37 0 52 18q14 18 -22 18q7 30 91 30q100 0 100 -55q0 -100 -157 -100q-131 0 -189 44q-58 43 -58 112z" />
    <glyph glyph-name="uni17b2.sub" 
d="M-1530 5q224 -5 336 -63q112 -59 112 -169v-98q1 -108 -111 -211q-113 -103 -112 -165q0 -67 131 -93q130 -26 261 -26t243 34q111 34 111 65q1 31 -57 45q-59 14 -241 -66q-1 103 205 204q169 69 169 113q-1 44 -158 44q-156 0 -172 -52q83 0 75 -51.5t-66 -51.5
q-177 0 -134 154q21 77 102 116t221 39q141 0 211 -44q70 -43 70 -131q0 -57 -52 -108q-53 -51 -158 -96q210 -59 210 -162t-168 -168q-168 -64 -403 -64q-236 1 -393 52t-157 247q0 62 56 170t57 265q0 157 -188 271z" />
    <glyph glyph-name="uni17b3.sub" 
d="M-1450 -536q0 71 140 135q16 8 34 14h-24q-150 0 -150 86q0 85 96 138q95 54 361 54q195 0 342 -33q62 121 249 139q28 5 52 5q100 0 144 -85q-224 -6 -287 -112q101 -49 156 -123q36 -48 -37 -77q-40 -16 -97 -12q41 -12 83 -27q38 -13 41 5v-63q0 -56 -65 -104
q-64 -48 -257 -110q-193 -61 -421 -106q14 -22 58.5 -37.5t125.5 -15.5q193 0 321 54.5t128 140.5q110 0 110 -53v-235q0 -79 -192 -79q-24 0 -51 1q133 34 133 144v60l-74 -49q-184 -122 -441 -122q-184 0 -331 68t-147 199q43 -23 187 -16t420 85q277 78 276 103
q0 27 -126 50q-126 22 -253 22q-250 0 -308 -36q-57 -35 -57 -55t44 -20q37 0 52 18q14 18 -22 18q7 30 91 30q100 0 100 -55q0 -100 -157 -100q-131 0 -189 44q-58 43 -58 112zM-1066 -332q0 -7 -3 -13q89 9 200 8q106 0 240 -29q-57 35 -54 99l2 20q-133 26 -311 26
q-188 0 -276 -20q-86 -20 -86 -60q78 35 152 35q63 0 99 -16.5t37 -49.5z" />
    <glyph glyph-name="uni1780.a" horiz-adv-x="2650" 
d="M301 650q-75 0 -113 44q-37 44 -37 111q0 68 67 132q38 36 106 51q-102 62 -174 62v281q20 -61 80 -61q71 0 208 58l412 172q280 -49 641 -209q204 159 341 209q239 -19 454 -123l107 -52q107 -51 158 -21q-50 -107 -51 -181v-775q0 -148 -50 -229q-49 -81 -149 -120
q0 50 -75 101l-76 50q-200 101 -200 450q40 -50 130 25l180 150q90 75 90 125q0 81 -250 166t-436 85q-176 0 -429 -130q-336 129 -585 129q-223 1 -297 -50q85 -44 150 -109q44 -17 85 -65q41 -50 55 -132q36 53 113 107q145 100 345 99q200 0 462 -112q87 -37 138 -17
q-50 -71 -51 -121v-400q0 -150 -50 -237q-49 -88 -149 -114q0 51 -75 89l-75 37q-150 76 -151 325q18 -50 92 0l221 118q-56 31 -161 57q-104 25 -222 25q-134 0 -202 -20t-68 -60q0 -30 21 -50q-100 6 -160 56q-11 9 -20 19v-245q0 -149 -50 -237q-50 -87 -150 -113
q0 51 -75 88q-113 56 -169 114q-57 59 -57 118q0 60 50 118q50 57 150 113q-20 -56 0.5 -78.5t80.5 -22.5q70 0 70 151q0 200 -50 200q-1 -76 -38 -113q-38 -38 -112 -38zM2251 578q0 -70 99 -124v224zM1426 416q22 -38 74 -46v100z" />
    <glyph glyph-name="uni1781.a" horiz-adv-x="2650" 
d="M150 1050q0 159 190 305q190 145 600 144q236 0 581 -180q21 44 62 76q83 65 269 105q219 -19 434 -123l107 -52q107 -51 158 -21q-50 -107 -51 -181v-775q0 -148 -49.5 -229t-149.5 -120q0 50 -75 101l-76 50q-200 101 -200 450q40 -50 130 25l180 150q90 75 90 125
q0 81 -275 190q-275 110 -395 110q-17 0 -30 -2v-49q0 -125 -88 -234q-87 -108 -350 -247q-262 -139 -602 -239q19 -50 134 -85t286 -35q172 0 366 150q97 75 136 158q38 82 18 173q100 -60 100 -201q0 -200 -172 -395q-173 -195 -528 -195q-400 0 -600 152
q-200 153 -200 448q58 -50 254 -35t572 191t375 232q0 61 -171 112q-172 50 -344 50q-341 0 -419 -80t-78 -125t60 -45q50 0 70 40q20 41 -30 41q10 69 125 69q136 0 136 -125q0 -225 -214 -225q-178 0 -257 98t-79 253zM2251 578q0 -70 99 -124v224z" />
    <glyph glyph-name="uni1782.a" horiz-adv-x="2650" 
d="M2100 1066q-250 85 -436 85q-176 0 -429 -130q-336 129 -585 129q-223 1 -297 -50q108 -55 180 -135l-126 -52q-164 101 -257 37v381q20 -61 80 -61q71 0 208 58l412 172q280 -49 641 -209q204 159 341 209q239 -19 454 -123l107 -52q107 -51 158 -21q-50 -107 -51 -181
v-775q0 -148 -50 -229q-49 -81 -149 -120q0 50 -75 101l-76 50q-200 101 -200 450q40 -50 130 25l180 150q90 75 90 125q0 81 -250 166zM151 411q0 289 200 439q200 151 610 150q340 0 602 -112q87 -37 138 -17q-50 -71 -51 -121v-400q0 -150 -50 -237q-49 -88 -149 -114
q0 51 -75 89l-75 37q-150 76 -151 325q18 -50 92 0l221 118q-56 31 -161 57q-104 25 -362 25q-294 0 -442 -95t-148 -175q0 -40 50 -58q91 132 195.5 180.5t204.5 48.5q200 0 200 -176q0 -175 -199 -174q-1 156 -112 156q-61 -1 -79 -78q-18 -78 91 -78q-51 -201 -202 -201
q-148 0 -248 98t-100 313zM2251 578q0 -70 99 -124v224zM1426 416q22 -38 74 -46v100z" />
    <glyph glyph-name="uni1783.a" horiz-adv-x="3350" 
d="M2320 188q-130 -188 -380 -188q-175 0 -342 72q-97 42 -185 102l-13 -11q-200 -163 -550 -163t-525 138q-175 137 -175 412q19 -50 50 -50q190 0 315 112q125 113 125 326q0 106 -47 159q-48 53 -143 53q-149 0 -149 -75t130 -75q69 0 69 50q50 -24 51 -100
q-1 -90 -47 -170t-129 -80q-97 0 -161 88q-64 87 -64 282q0 200 100 315t231 115q145 0 232 -108t87 -324q0 -179 -48 -336q-47 -157 -142 -292q19 -50 134 -85t256 -35q205 0 317.5 60t112.5 160q0 55 -81 82q-81 28 -244 28h-105v701l15 -25q15 -26 82 24l201 150
q117 -107 234 -150q118 -43 166 -26q-99 -273 -174 -274q-74 0 -145 35t-134 35q-74 0 -144 -120h100q200 0 299 -100q100 -100 100 -299q0 -71 -13 -134q47 -44 111 -79q122 -68 252 -68q105 0 218 60q112 60 112 160q0 55 -81 82q-81 28 -244 28h-105v701l15 -25
q15 -26 112 24l97 50q194 100 378 100q189 1 678 -198q70 -28 121 2q-50 -107 -51 -181v-775q0 -148 -49.5 -229t-149.5 -120q0 50 -75 101l-76 50q-200 101 -200 450q40 -50 130 25l180 150q90 75 90 125q0 71 -300 170q-300 100 -412 100q-83 0 -180 -35t-157 -135h50
q200 0 299 -100q100 -100 100 -299q0 -225 -130 -413zM2951 578q0 -70 99 -124v224z" />
    <glyph glyph-name="uni1784.a" horiz-adv-x="2650" 
d="M949 1500q291 0 496 -120q44 -26 79 -55q21 40 59 70q83 65 269 105q219 -19 434 -123l107 -52q107 -51 158 -21q-50 -107 -51 -181v-775q0 -148 -49.5 -229t-149.5 -120q0 50 -75 101l-76 50q-200 101 -200 450q40 -50 130 25l180 150q90 75 90 125q0 81 -275 190
q-275 110 -395 110q-31 0 -51 -7q21 -48 21 -102q0 -165 -99 -278t-247 -113q-254 0 -254 175t171 175q130 1 180 -69q-50 0 -25 -41q25 -40 85 -40q40 0 40 55q0 97 -162 146t-386 49q-291 0 -437.5 -50.5t-165.5 -99.5q176 0 288 -88q112 -87 112 -212q0 -200 -140 -260
q19 -50 134 -85t330 -35q208 0 352 120t224 311q0 -351 -178 -551q-177 -200 -532 -200q-440 0 -615 138q-175 137 -175 412q19 -50 50 -50q170 0 275 32q105 33 105 86q0 52 -124 72t-306 -40v650l15 -25q15 -25 55 -25t125 62q254 188 604 188zM2251 578q0 -70 99 -124
v224z" />
    <glyph glyph-name="uni1785.a" horiz-adv-x="2650" 
d="M150 1331q20 -61 80 -61q71 0 208 58l412 172q280 -49 641 -209q204 159 341 209q239 -19 454 -123l107 -52q107 -51 158 -21q-50 -107 -51 -181v-775q0 -148 -49.5 -229t-149.5 -120q0 50 -75 101l-76 50q-200 101 -200 450q40 -50 130 25l180 150q90 75 90 125
q0 81 -250 166t-456 85q-156 0 -409 -130q-336 129 -585 129q-253 0 -350 -150q201 0 326 -77q124 -77 124 -225t-140 -258q19 -50 134 -85t306 -35q205 0 328 60q122 60 122 220q0 150 -50 150t-50 -50t50 -50q-50 -150 -155 -150q-123 0 -184 62q-61 63 -61 188t75 188
q75 62 201 62q125 0 224 -100q100 -100 100 -299q0 -275 -200 -438t-600 -163q-350 0 -525 138q-175 137 -175 412q19 -50 50 -50q170 0 280 42q110 43 110 80q0 38 -99 43t-341 -15v681zM2251 578q0 -70 99 -124v224z" />
    <glyph glyph-name="uni1786.a" horiz-adv-x="2650" 
d="M650 1150q-253 0 -317 -100q111 0 264 -56t204 -56q-51 -51 -51 -121v-217q90 0 159.5 -52.5t118.5 -157.5q32 -70 170 -70q147 0 224 80q78 80 78 200q0 100 -50 100t-50 -25t50 -25q-50 -150 -155 -150q-123 0 -184 62q-61 63 -61 188t75 188q75 62 225 62
q101 0 200 -100q100 -100 100 -299q0 -275 -130 -438t-320 -163q-300 0 -350 51l24 22q24 22 24 71t-34 178q-34 128 -114 128v-100q0 -150 -65 -238q-66 -87 -183 -113q0 51 -87 89l-88 37q-176 76 -177 375q0 100 200 100h250q-49 100 -242 100q-163 0 -208 -50v681
q20 -61 80 -61q71 0 208 58l412 172q280 -49 641 -209q204 159 341 209q239 -19 454 -123l107 -52q107 -51 158 -21q-50 -107 -51 -181v-775q0 -148 -49.5 -229t-149.5 -120q0 50 -75 101l-76 50q-200 101 -200 450q40 -50 130 25l180 150q90 75 90 125q0 81 -250 166
t-456 85q-156 0 -409 -130q-336 129 -585 129zM2251 578q0 -70 99 -124v224zM483 450q26 -72 117 -80v80h-117z" />
    <glyph glyph-name="uni1787.a" horiz-adv-x="2650" 
d="M150 1301q20 -51 60 -51t140 62l100 63l201 125l293 -150q293 -150 375 -150t82 51q0 60 -83 125q-82 65 -267 64q100 260 225 260q124 0 249 -95q105 -80 121 -171q79 39 206 66q219 -19 434 -123l107 -52q107 -51 158 -21q-50 -107 -51 -181v-775q0 -148 -49.5 -229
t-149.5 -120q0 50 -75 101l-76 50q-200 101 -200 450q40 -50 130 25l180 150q90 75 90 125q0 81 -275 190q-275 110 -395 110t-80 -100q-47 0 -72 24l-22 -24q-143 -150 -300 -150q-205 0 -396 90q-190 90 -275 90q-105 0 -235 -130q226 0 338 -88q112 -87 112 -212
q0 -200 -140 -260q19 -50 134 -85t330 -35q208 0 352 120t224 361q0 -401 -178 -601q-177 -200 -532 -200q-440 0 -615 138q-175 137 -175 412q19 -50 50 -50q170 0 275 32.5t105 84.5q0 53 -124 73t-306 -40v651zM2251 578q0 -70 99 -124v224z" />
    <glyph glyph-name="uni1788.a" horiz-adv-x="4150" 
d="M3120 188q-130 -188 -380 -188q-175 0 -342 72q-82 35 -157 84q-198 -156 -491 -156q-300 0 -510 122.5t-290 467.5q19 -50 50 -50q160 0 330 230q170 211 -100 306q-270 94 -442 94q-173 0 -310 -35t-177 -85q260 30 355 -60q94 -90 94 -239q1 -201 -174 -250t-175 -97
q0 -53 52 -53q41 -1 41 24t-47 25q44 50 129 50t129.5 -61t44.5 -142q0 -111 -86 -156q-85 -45 -85 -91q-425 0 -429 401v200q46 -30 248.5 -0.5t201.5 98.5q0 50 -162 51q-163 0 -288 -50v651l15 -25q15 -26 209 74t418 100q299 1 580 -123q278 -123 278 -230
q0 -247 -290 -577q19 -170 209 -210t338 -40t261 60q112 60 112 160q0 55 -81 82q-81 28 -244 28h-105v701l15 -25q15 -26 67 24l156 150q127 -107 220 -150q92 -43 140 -26q-99 -273 -154 -274q-54 0 -125 35t-124 35q-64 0 -94 -120h100q200 0 299 -100q100 -100 100 -299
q0 -90 -22 -169q32 -23 70 -44q122 -68 252 -68q105 0 218 60q112 60 112 160q0 55 -81 82q-81 28 -244 28h-105v701l15 -25q15 -26 112 24l97 50q194 100 378 100q189 1 678 -198q70 -28 121 2q-50 -107 -51 -181v-775q0 -148 -49.5 -229t-149.5 -120q0 50 -75 101l-76 50
q-200 101 -200 450q40 -50 130 25l180 150q90 75 90 125q0 71 -300 170q-300 100 -412 100q-83 0 -180 -35t-157 -135h50q200 0 299 -100q100 -100 100 -299q0 -225 -130 -413zM3751 578q0 -70 99 -124v224z" />
    <glyph glyph-name="uni1789.a" horiz-adv-x="3500" 
d="M1410 775q90 75 90 105q-1 31 -133 126q-131 95 -273 95q-141 0 -291 -158q-213 155 -309 156q-95 1 -144 -99q-50 -100 -50 -250q0 -124 25 -211t76 -87q50 0 50 97q0 71 -101 101q51 50 170 50q100 0 165 -78q65 -77 65 -174q0 -98 -47 -201t-141 -159q-62 -37 -62 -88
q-174 50 -262 200q-87 150 -88 500v150q0 250 179 450l179 200q244 -68 392 -247q117 197 251 247q133 -19 316 -128l137 -81q76 -44 123 7l47 50q93 102 227 152q133 -19 316 -128l63 -37q20 34 53 60q83 65 269 105q219 -19 434 -123l107 -52q107 -51 158 -21
q-50 -107 -51 -181v-775q0 -148 -49.5 -229t-149.5 -120q0 50 -75 101l-76 50q-200 101 -200 450q40 -50 130 25l180 150q90 75 90 125q0 81 -275 190q-275 110 -395 110q-15 0 -27 -2q-3 -20 -3 -45v-805q0 -148 -49.5 -229t-149.5 -120q0 50 -75 101l-76 50
q-200 101 -200 450q40 -50 130 25l180 150q90 75 90 105q-1 61 -142 141q-142 80 -304 80q-121 0 -254 -158v-595q0 -148 -49.5 -229t-149.5 -120q0 50 -75 101l-76 50q-200 101 -200 450q40 -50 130 25l180 150v0zM2350 -300q0 -350 -442 -350q-84 0 -166 5.5t-165 16.5
q-166 21 -537 178q-163 50 -347 50q-322 0 -442 -150q0 300 552 300q387 0 665 -150q279 -150 440 -150q276 0 276 250q0 150 -110 150q-55 0 -55 -50t55 -50q0 -150 -111 -150q-165 0 -165 150q0 200 276 200t276 -250zM2251 578q0 -70 99 -124v224zM1401 578
q0 -70 99 -124v224zM3101 578q0 -70 99 -124v224z" />
    <glyph glyph-name="uni178a.a" horiz-adv-x="2650" 
d="M1600 1100q-46 0 -71 24q-11 -13 -23 -25q-143 -150 -300 -150q-205 0 -396 90q-190 90 -275 90q-105 0 -235 -130q226 0 338 -88q112 -87 112 -212q0 -200 -140 -260q19 -43 64 -68t118 -25q82 0 137 69l71 96l47 -52q47 -52 103 -82q70 -31 132 -31q63 0 140 61
q172 145 178 492q50 -100 50 -249q0 -325 -150 -488t-260 -163q-90 0 -192 76l-101 75q-97 -151 -202 -151q-245 0 -420 138q-175 137 -175 412q19 -50 50 -50q170 0 275 32.5t105 84.5q0 53 -124 73t-306 -40v651q20 -51 60 -51t140 62l100 63l201 125l293 -150
q293 -150 375 -150t82 51q0 60 -83 125q-82 65 -267 64q100 260 225 260q124 0 249 -95q105 -80 121 -170q79 39 206 66q219 -19 434 -123l107 -52q107 -51 158 -21q-50 -107 -51 -181v-775q0 -148 -49.5 -229t-149.5 -120q0 50 -75 101l-76 50q-200 101 -200 450
q40 -50 130 25l180 150q90 75 90 125q0 81 -275 190q-275 110 -395 110t-80 -100zM2251 578q0 -70 99 -124v224z" />
    <glyph glyph-name="uni178b.a" horiz-adv-x="2650" 
d="M1245 1120q-74 0 -144 -120h100q200 0 299 -100q100 -100 100 -299q0 -275 -200 -438t-550 -163t-525 138q-175 137 -175 412q19 -50 50 -50q190 0 315 112q125 113 125 326q0 106 -47 159q-48 53 -143 53q-149 0 -149 -75t130 -75q69 0 69 50q50 -24 51 -100
q-1 -90 -47 -170t-129 -80q-97 0 -161 88q-64 87 -64 282q0 200 100 315t231 115q145 0 232 -108t87 -324q0 -179 -48 -336q-47 -157 -142 -292q19 -50 134 -85t256 -35q205 0 317.5 60t112.5 160q0 55 -81 82q-81 28 -244 28h-105v701l15 -25q15 -26 82 24l201 150
q117 -107 176 -128q76 -25 76 42q0 87 -132 188q-133 100 -318 60q100 289 245 289q105 0 230 -89q124 -90 125 -406q64 25 152 44q219 -19 434 -123l107 -52q107 -51 158 -21q-50 -107 -51 -181v-775q0 -148 -49.5 -229t-149.5 -120q0 50 -75 101l-76 50q-200 101 -200 450
q40 -50 130 25l180 150q90 75 90 125q0 81 -275 190q-275 110 -395 110h-11q-9 -26 -19 -48q-51 -101 -156 -102q-44 0 -115 35t-134 35zM2251 578q0 -70 99 -124v224z" />
    <glyph glyph-name="uni178c.a" horiz-adv-x="2650" 
d="M976 756q391 187 391 250q-131 95 -273 95q-141 0 -291 -158q-213 156 -309 156q-155 0 -155 -109v-45q0 -45 60 -45q62 0 74 20q16 31 -34 31q-1 69 85 69q176 0 176 -171q0 -149 -249 -149q-143 0 -222 98t-79 253q0 249 358 449q244 -68 392 -247q117 197 251 247
q133 -19 316 -128l63 -37q20 34 53 60q83 65 269 105q219 -19 434 -123l107 -52q107 -51 158 -21q-50 -107 -51 -181v-775q0 -148 -49.5 -229t-149.5 -120q0 50 -75 101l-76 50q-200 101 -200 450q40 -50 130 25l180 150q90 75 90 125q0 81 -275 190q-275 110 -395 110
q-15 0 -27 -2q-3 -20 -3 -45q0 -143 -88 -244q-87 -101 -350 -240q-262 -139 -572 -239q19 -50 79 -85t171 -35q262 0 436 122.5t174 317.5q150 0 150 -120v-629q-1 -201 -175.5 -201.5t-175.5 200.5q200 1 201 200v184l-100 -109q-250 -275 -600 -275q-250 0 -450 152
q-200 153 -200 448q58 -50 254 -35t572 191zM2251 578q0 -70 99 -124v224z" />
    <glyph glyph-name="uni178d.a" horiz-adv-x="3450" 
d="M1409 550q0 -162 91 -180v180h-91zM3051 578q0 -70 99 -124v224zM1650 700q90 0 160 -52q69 -53 110 -190q40 -138 178 -138q147 0 224 80q58 61 58 120q0 72 -81 101t-244 29h-105v701l15 -25q15 -26 112 24l97 50q194 100 378 100q189 1 678 -198q70 -28 121 2
q-50 -107 -51 -181v-775q0 -148 -49.5 -229t-149.5 -120q0 50 -75 101l-76 50q-200 101 -200 450q40 -50 130 25l180 150q90 75 90 125q0 71 -300 170q-300 100 -412 100q-83 0 -180 -35t-157 -135h50q200 0 299 -100q100 -100 100 -349q0 -225 -130 -388t-320 -163
q-300 0 -350 51l24 22q24 22 24 71q0 109 -39 258q-39 148 -109 148v-200q0 -150 -65 -238q-66 -87 -183 -113q0 51 -87 89l-88 37q-176 76 -177 375q0 200 200 200h250v140q0 70 -133 166q-131 95 -273 95q-141 0 -291 -158q-213 155 -309 156q-95 1 -144 -99
q-50 -100 -50 -250q0 -124 25 -211t76 -87q50 0 50 97q0 71 -101 101q51 50 170 50q100 0 165 -78q65 -77 65 -174q0 -98 -47 -201t-141 -159q-62 -37 -62 -88q-174 50 -262 200q-87 150 -88 500v150q0 250 179 450l179 200q244 -68 392 -247q117 197 251 247
q133 -19 316 -128l137 -81q46 -27 96 -21q-50 -23 -50 -117v-285v-168z" />
    <glyph glyph-name="uni178e.a" horiz-adv-x="4200" 
d="M579 0q-425 0 -429 401v200q46 -30 248 -1q203 30 202 99q0 50 -162 51q-163 0 -288 -50v651l15 -25q15 -26 209 74t418 100q299 1 580 -123q278 -123 278 -230q0 -247 -175 -447l-175 -200q49 -83 109 -118t133 -35q82 0 137 69l71 96l47 -52q47 -52 103 -82
q70 -31 182 -31t167 51.5t55 154.5q-24 42 -105 69q-81 28 -244 28h-105v701l15 -25q15 -26 112 24l97 50q194 100 378 100q178 1 622 -176q20 41 59 71q83 65 269 105q219 -19 434 -123l107 -52q107 -51 158 -21q-50 -107 -51 -181v-775q0 -148 -49.5 -229t-149.5 -120
q0 50 -75 101l-76 50q-200 101 -200 450q40 -50 130 25l180 150q90 75 90 125q0 81 -275 190q-275 110 -395 110q-10 0 -19 -1q-11 -42 -11 -76v-775q0 -148 -49.5 -229t-149.5 -120q0 50 -75 101l-76 50q-200 101 -200 450q40 -50 130 25l180 150q90 75 90 125
q0 71 -325 170q-325 100 -397 100q-73 0 -160 -35t-167 -135h50q200 0 299 -100q100 -100 100 -299q0 -255 -150 -428t-290 -173q-110 0 -212 76l-101 75q-97 -151 -202 -151q-245 0 -420 138q-175 137 -175 472q19 -50 50 -50q240 0 395 210q77 106 49 182q-29 76 -164 124
q-270 94 -442 94q-173 0 -310 -35t-177 -85q260 30 355 -60q94 -90 94 -239q1 -201 -174 -250t-175 -97q0 -53 52 -53q41 -1 41 24t-47 25q44 50 129 50t129.5 -61t44.5 -142q0 -111 -86 -156q-85 -45 -85 -91zM3801 578q0 -70 99 -124v224zM2951 578q0 -70 99 -124v224z
" />
    <glyph glyph-name="uni178f.a" horiz-adv-x="2650" 
d="M2100 1066q-250 85 -436 85q-176 0 -429 -130q-336 129 -585 129q-223 1 -297 -50q108 -55 180 -135l-126 -52q-164 101 -257 37v381q20 -61 80 -61q71 0 208 58l412 172q280 -49 641 -209q204 159 341 209q239 -19 454 -123l107 -52q107 -51 158 -21q-50 -107 -51 -181
v-775q0 -148 -50 -229q-49 -81 -149 -120q0 50 -75 101l-76 50q-200 101 -200 450q40 -50 130 25l180 150q90 75 90 125q0 81 -250 166zM150 450q1 250 201 400q200 151 610 150q340 0 602 -112q87 -37 138 -17q-50 -71 -51 -121v-400q0 -150 -50 -237q-49 -88 -149 -114
q0 51 -75 89l-75 37q-150 76 -151 325q18 -50 92 0l221 118q-56 31 -161 57q-104 25 -362 25q-310 0 -465 -51t-155 -154q0 -85 106 -84q125 1 125 55q0 74 -101 74q51 60 150 60q100 0 175 -78q75 -77 75 -200q0 -122 -100 -172q-100 -49 -100 -100q-250 0 -374 128
q-126 127 -126 322zM2251 578q0 -70 99 -124v224zM1426 416q22 -38 74 -46v100z" />
    <glyph glyph-name="uni1790.a" horiz-adv-x="2650" 
d="M1600 1100q-60 0 -84 41l-20 -16q-153 -125 -439 -125q-106 0 -271 65q-166 65 -251 65q-105 0 -235 -130q151 0 300 -52q150 -52 150 -225t-140 -283q19 -50 134 -85t306 -35q205 0 328 60q122 60 122 180q0 90 -50 90t-50 -25t50 -25q-50 -100 -164 -100t-175 52.5
t-61 147.5q0 125 75 188q75 62 225 62q101 0 200 -100q100 -100 100 -289q0 -235 -200 -398t-600 -163q-350 0 -525 138q-175 137 -175 412q19 -50 50 -50q240 0 320 38q80 37 80 90q0 52 -119 52t-331 -30v651q20 -51 60 -51t140 62l100 63l201 125q626 -300 688 -300
t62 51q0 60 -83 125q-82 65 -267 64q100 260 225 260q124 0 249 -95q105 -80 121 -171q79 39 206 66q219 -19 434 -123l107 -52q107 -51 158 -21q-50 -107 -51 -181v-775q0 -148 -49.5 -229t-149.5 -120q0 50 -75 101l-76 50q-200 101 -200 450q40 -50 130 25l180 150
q90 75 90 125q0 81 -275 190q-275 110 -395 110t-80 -100zM2251 578q0 -70 99 -124v224z" />
    <glyph glyph-name="uni1791.a" horiz-adv-x="2650" 
d="M150 1311q20 -51 60 -51t140 60q301 180 559 180q291 0 516 -150q47 -31 84 -64q18 65 74 109q83 65 269 105q219 -19 434 -123l107 -52q107 -51 158 -21q-50 -107 -51 -181v-775q0 -148 -49.5 -229t-149.5 -120q0 50 -75 101l-76 50q-200 101 -200 450q40 -50 130 25
l180 150q90 75 90 125q0 81 -275 190q-275 110 -395 110q-57 0 -78 -23q48 -79 48 -167q0 -120 -78 -190q-77 -70 -232 -70q-240 0 -240 150t180 150q90 0 120 -50q-50 0 -50 -48q0 -49 50 -49q100 0 100 67q0 86 -164 133t-441 47t-426 -38q-149 -37 -169 -112
q151 0 300 -52q150 -52 150 -225t-140 -283q39 -90 114 -90q65 0 220 150q156 150 376 150q125 0 228 -89q102 -89 101 -228q1 -137 -87 -235q-87 -98 -212 -98t-188 50q-62 50 -62 150t50 150t150 50q0 -50 50 -50t50 45q0 85 -150 85q-130 0 -222 -120l-93 -120
q-185 -240 -285 -240q-150 0 -325 138q-175 137 -175 412q19 -50 50 -50q240 0 320 38q80 37 80 90q0 52 -119 52t-331 -30v661zM2251 578q0 -70 99 -124v224z" />
    <glyph glyph-name="uni1792.a" horiz-adv-x="2650" 
d="M2251 578q0 -70 99 -124v224zM650 1150q-253 0 -317 -100l-33 -50q226 0 338 -88q112 -87 112 -212q0 -200 -140 -260q19 -43 64 -68t114.5 -25t126.5 69l71 96l47 -52q47 -52 117 -82q70 -31 132 -31q63 0 140 61q78 62 78 192q0 100 -50 100t-50 -25t50 -25
q-50 -150 -155 -150q-245 0 -245 250t300 250q101 0 200 -100q100 -100 100 -299q0 -275 -150 -438t-260 -163q-90 0 -192 76l-101 75q-97 -151 -202 -151q-245 0 -420 138q-175 137 -175 412q19 -50 50 -50q170 0 275 32q105 33 105 86q0 52 -124 72t-306 -40v681
q20 -61 80 -61q71 0 208 58l412 172q280 -49 641 -209q204 159 341 209q239 -19 454 -123l107 -52q107 -51 158 -21q-50 -107 -51 -181v-775q0 -148 -49.5 -229t-149.5 -120q0 50 -75 101l-76 50q-200 101 -200 450q40 -50 130 25l180 150q90 75 90 125q0 81 -250 166
t-456 85q-156 0 -409 -130q-336 129 -585 129z" />
    <glyph glyph-name="uni1793.a" horiz-adv-x="2650" 
d="M1200 0q-300 0 -350 51l24 22q24 22 24 71t-34 178q-34 128 -114 128v-100q0 -150 -65 -238q-66 -87 -183 -113q0 51 -87 89l-88 37q-176 76 -177 375q50 100 250 100h200q0 100 -199 100q-169 0 -251 -50v661q20 -51 60 -51t140 60q301 180 600 180q290 0 495 -120
q44 -26 79 -55q21 40 59 70q83 65 269 105q219 -19 434 -123l107 -52q107 -51 158 -21q-50 -107 -51 -181v-775q0 -148 -49.5 -229t-149.5 -120q0 50 -75 101l-76 50q-200 101 -200 450q40 -50 130 25l180 150q90 75 90 125q0 81 -275 190q-275 110 -395 110q-31 0 -51 -7
q21 -48 21 -102q0 -165 -99 -278t-247 -113q-254 0 -254 175t171 175q130 1 180 -69q-50 0 -25 -41q25 -40 85 -40q40 0 40 55q0 97 -162 146t-389 49q-332 0 -481 -38q-149 -37 -169 -112q201 0 326 -47q124 -47 124 -200v-153q90 0 159.5 -52.5t118.5 -157.5
q32 -70 170 -70q167 0 260 80q92 80 92 300q100 -50 100 -149q0 -225 -130 -388t-320 -163zM2251 578q0 -70 99 -124v224zM483 450q26 -72 117 -80v80h-117z" />
    <glyph glyph-name="uni1794.a" horiz-adv-x="2650" 
d="M1380 -74q120 75 120 204v33q-250 -163 -650 -163q-350 0 -525 138q-175 137 -175 412q19 -50 50 -50q170 0 280 42q110 43 110 80q0 38 -99 43t-341 -15v681q20 -61 80 -61q71 0 208 58l412 172q280 -49 641 -209q214 159 341 209q239 -19 454 -123l107 -52
q107 -51 158 -21q-50 -107 -51 -181v-775q0 -148 -49.5 -229t-149.5 -120q0 50 -75 101l-76 50q-200 101 -200 450q40 -50 130 25l180 150q90 75 90 125q0 81 -250 166t-456 85q-156 0 -409 -130q-336 129 -585 129q-253 0 -350 -150q201 0 325.5 -72t124.5 -225t-140 -263
q19 -50 134 -85t306 -35q205 0 328 60q122 60 122 170q0 50 -250 50q0 350 260 350q141 0 141 -140l-1 -810q0 -230 -165 -350t-632 -119q-109 0 -184 -58q-76 -57 -119 -172q-100 230 0 389q101 160 390 160q321 0 440 76zM2251 578q0 -70 99 -124v224z" />
    <glyph glyph-name="uni1795.a" horiz-adv-x="2650" 
d="M150 1301q20 -51 60 -51t140 62l100 63l201 125q626 -300 688 -300t62 51q0 60 -83 125q-82 65 -267 64q100 260 225 260q124 0 249 -95q105 -80 121 -171q79 39 206 66q219 -19 434 -123l107 -52q107 -51 158 -21q-50 -107 -51 -181v-775q0 -148 -49.5 -229t-149.5 -120
q0 50 -75 101l-76 50q-200 101 -200 450q40 -50 130 25l180 150q90 75 90 125q0 81 -275 190q-275 110 -395 110t-80 -100q-60 0 -84 41l-20 -16q-153 -125 -439 -125q-106 0 -271 65q-166 65 -251 65q-105 0 -235 -130q226 0 338 -88q112 -87 112 -212q0 -200 -140 -260
q19 -43 64 -68t114 -25q70 0 127 69l71 96l47 -52q47 -52 117 -82q70 -31 132 -31q63 0 140 61q78 62 78 152t-50 90t-50 -25t50 -25q-50 -100 -164 -100t-175 52.5t-61 147.5q0 125 75 188q75 62 225 62q101 0 200 -100q100 -100 100 -289q0 -235 -150 -398t-260 -163
q-90 0 -192 76l-101 75q-97 -151 -202 -151q-245 0 -420 138q-175 137 -175 412q19 -50 50 -50q170 0 275 32.5t105 84.5q0 53 -124 73t-306 -40v651zM2251 578q0 -70 99 -124v224z" />
    <glyph glyph-name="uni1796.a" horiz-adv-x="2650" 
d="M1410 775q90 75 90 105q-1 31 -133 126q-131 95 -273 95q-141 0 -291 -158q-213 155 -309 156q-95 1 -144 -99q-50 -100 -50 -250q0 -124 25 -211t76 -87q50 0 50 97q0 71 -101 101q51 50 170 50q100 0 165 -78q65 -77 65 -174q0 -98 -47 -201t-141 -159q-62 -37 -62 -88
q-174 50 -262 200q-87 150 -88 500v150q0 250 179 450l179 200q244 -68 392 -247q117 197 251 247q133 -19 316 -128l63 -37q20 34 53 60q83 65 269 105q219 -19 434 -123l107 -52q107 -51 158 -21q-50 -107 -51 -181v-775q0 -148 -49.5 -229t-149.5 -120q0 50 -75 101
l-76 50q-200 101 -200 450q40 -50 130 25l180 150q90 75 90 125q0 81 -275 190q-275 110 -395 110q-15 0 -27 -2q-3 -20 -3 -45v-805q0 -148 -49.5 -229t-149.5 -120q0 50 -75 101l-76 50q-200 101 -200 450q40 -50 130 25l180 150v0zM1401 578q0 -70 99 -124v224zM2251 578
q0 -70 99 -124v224z" />
    <glyph glyph-name="uni1797.a" horiz-adv-x="2650" 
d="M150 551q0 179 200 315q13 9 28 17q-59 117 -228 117v331q20 -61 80 -61q71 0 208 58l412 172q280 -49 641 -209q204 159 341 209q239 -19 454 -123l107 -52q107 -51 158 -21q-50 -107 -51 -181v-775q0 -148 -50 -229q-49 -81 -149 -120q0 50 -75 101l-76 50
q-200 101 -200 450q40 -50 130 25l180 150q90 75 90 125q0 81 -250 166t-436 85q-176 0 -429 -130q-336 129 -585 129q-223 1 -297 -50q142 -42 177 -152q175 52 431 52q340 0 602 -112q87 -37 138 -17q-50 -71 -51 -121v-400q0 -150 -50 -237q-49 -88 -149 -114
q0 51 -75 89l-75 37q-150 76 -151 325q18 -50 92 0l221 118q-56 31 -161 57q-104 25 -362 25q-589 0 -589 -50q200 -25 300 -102q100 -78 100 -208q0 -145 -75 -218q-75 -72 -225 -72q-150 1 -225 61t-75 180q0 104 60 143t179 14q-39 -10 -39 -54q0 -43 95 -43t95 49
q0 80 -170 133q-170 52 -221 1v67v0zM2251 578q0 -70 99 -124v224zM1426 416q22 -38 74 -46v100z" />
    <glyph glyph-name="uni1798.a" horiz-adv-x="2550" 
d="M2151 578q0 -70 99 -124v224zM150 1351l15 -25q15 -26 82 24l201 150q117 -107 234 -150q118 -43 166 -26q-99 -273 -174 -274q-74 0 -145 35t-134 35q-74 0 -144 -120h70q180 0 305 -77q124 -77 124 -225t-140 -258q19 -50 134 -85t306 -35q205 0 317.5 60t112.5 160
q0 55 -81 82q-81 28 -244 28h-105v701l15 -25q15 -26 112 24l97 50q194 100 378 100q189 1 678 -198q70 -28 121 2q-50 -107 -51 -181v-775q0 -148 -49.5 -229t-149.5 -120q0 50 -75 101l-76 50q-200 101 -200 450q40 -50 130 25l180 150q90 75 90 125q0 71 -300 170
q-300 100 -412 100q-83 0 -180 -35t-157 -135h50q200 0 299 -100q100 -100 100 -299q0 -275 -200 -438t-600 -163q-350 0 -525 138q-175 137 -175 412q19 -50 50 -50q190 0 290 32q100 33 100 65.5t-99 42.5t-341 10v701zM826 742q115 -121 229 -141.5t266 -19.5
q-69 -125 -219 -157q-149 -31 -359 44q98 96 83 274z" />
    <glyph glyph-name="uni1799.a" horiz-adv-x="3350" 
d="M2320 188q-130 -188 -380 -188q-175 0 -342 72q-88 38 -168 91q-7 -7 -15 -13q-185 -150 -555 -150q-360 0 -535 202q-175 203 -175 596q0 351 100 526q100 176 299 176q125 0 188 -95t63 -285q0 -270 -75 -375t-174 -105q-151 0 -151 200q0 160 100 210q0 -50 69 -50
q110 0 110 75t-129 75q-140 0 -190 -100q-50 -101 -50 -242q0 -183 170 -336q169 -152 370 -152q355 0 468 60q112 60 112 160q0 55 -81 82q-81 28 -244 28h-105v701l15 -25q15 -26 82 24l201 150q117 -107 234 -150q118 -43 166 -26q-99 -273 -174 -274q-74 0 -145 35
t-134 35q-74 0 -144 -120h100q200 0 299 -100q100 -100 100 -299q0 -73 -11 -136q47 -43 109 -77q122 -68 252 -68q105 0 218 60q112 60 112 160q0 55 -81 82q-81 28 -244 28h-105v701l15 -25q15 -26 112 24l97 50q194 100 378 100q189 1 678 -198q70 -28 121 2
q-50 -107 -51 -181v-775q0 -148 -49.5 -229t-149.5 -120q0 50 -75 101l-76 50q-200 101 -200 450q40 -50 130 25l180 150q90 75 90 125q0 71 -300 170q-300 100 -412 100q-83 0 -180 -35t-157 -135h50q200 0 299 -100q100 -100 100 -299q0 -225 -130 -413zM2951 578
q0 -70 99 -124v224z" />
    <glyph glyph-name="uni179a.a" horiz-adv-x="1750" 
d="M483 416q26 -38 117 -46v100zM1351 578q0 -70 99 -124v224zM150 1351l18 -25q17 -26 78 24l183 150q148 -107 257 -150q148 -47 189 -10l41 36q81 74 185 124q133 -19 316 -128l137 -81q46 -27 96 -21q-50 -23 -50 -117v-805q0 -148 -49.5 -229t-149.5 -120q0 50 -75 101
l-76 50q-200 101 -200 450q40 -50 130 25l180 150q90 75 90 105q-1 61 -142 141l-91 55q-91 55 -213 55q-121 0 -186 -39q-64 -41 -118 -42q-123 0 -192 25q-68 25 -130 25q-75 0 -110 -100h88q88 0 241 -64q153 -65 204 -65q-51 -51 -51 -121v-400q0 -150 -65 -238
q-66 -87 -183 -113q0 51 -87 89l-88 37q-176 76 -177 375q22 -50 80 -44q56 7 371 135q-100 29 -203 44t-248 15v701z" />
    <glyph glyph-name="uni179b.a" horiz-adv-x="3300" 
d="M2901 578q0 -70 99 -124v224zM579 0q-425 0 -429 401v200q46 -30 248.5 -0.5t201.5 98.5q0 50 -162 51q-163 0 -288 -50v651l15 -25q15 -26 209 74t418 100q249 1 530 -123l278 -123q0 -354 -290 -684q19 -170 209 -210t338 -40t261 60q112 60 112 160q0 55 -81 82
q-81 28 -244 28h-105v701l15 -25q15 -26 112 24l97 50q194 100 378 100q189 1 678 -198q70 -28 121 2q-50 -107 -51 -181v-775q0 -148 -50 -229q-49 -81 -149 -120q0 50 -75 101l-76 50q-200 101 -200 450q40 -50 130 25l180 150q90 75 90 125q0 71 -300 170
q-300 100 -412 100q-83 0 -180 -35t-177 -135h70q200 0 299 -100q100 -100 100 -299q0 -275 -200 -438t-500 -163t-510 122.5t-290 467.5q19 -50 50 -50q160 0 330 230q170 211 -100 306q-270 94 -392 94q-173 0 -310 -35t-177 -85q260 30 355 -60q94 -90 94 -239
q1 -201 -174 -250t-175 -97q0 -53 52 -53q41 -1 41 24t-47 25q44 50 129 50t129.5 -61t44.5 -142q0 -111 -86 -156q-85 -45 -85 -91z" />
    <glyph glyph-name="uni179c.a" horiz-adv-x="2650" 
d="M2251 578q0 -70 99 -124v224zM2100 1066q-250 85 -436 85q-176 0 -429 -130q-336 129 -585 129q-253 1 -350 -100h111q619 0 929 -125t310 -374q0 -275 -250 -413t-550 -138t-500 112q-200 113 -200 378q0 155 100 232q100 78 300 78q150 0 225 -49q75 -48 75 -146
q0 -122 -102 -176q-103 -54 -298 11q50 100 -30 100q-120 0 -120 -50q1 -60 95 -120t225 -60q340 0 510 62q170 63 170 188q0 170 -212 254q-212 85 -636 85q-257 0 -302 -50v482q20 -61 80 -61q71 0 208 58l412 172q280 -49 641 -209q204 159 341 209q239 -19 454 -123
l107 -52q107 -51 158 -21q-50 -107 -51 -181v-775q0 -148 -50 -229q-49 -81 -149 -120q0 50 -75 101l-76 50q-200 101 -200 450q40 -50 130 25l180 150q90 75 90 125q0 81 -250 166z" />
    <glyph glyph-name="uni179d.a" horiz-adv-x="2650" 
d="M2100 1066q-250 85 -436 85q-176 0 -429 -130q-336 129 -585 129q-223 1 -297 -50q108 -55 180 -135l-126 -52q-164 101 -257 37v381q20 -61 80 -61q71 0 208 58l412 172q280 -49 641 -209q204 159 341 209q239 -19 454 -123l107 -52q107 -51 158 -21q-50 -107 -51 -181
v-775q0 -148 -50 -229q-49 -81 -149 -120q0 50 -75 101l-76 50q-200 101 -200 450q40 -50 130 25l180 150q90 75 90 125q0 81 -250 166zM151 411q0 289 200 439q200 151 610 150q340 0 602 -112q87 -37 138 -17q-50 -71 -51 -121v-143q65 24 137 58q-52 -181 -137 -248v-67
q0 -150 -50 -237q-49 -88 -149 -114q0 51 -75 89l-75 37q-150 76 -151 325q18 -50 92 0l13 7l-2 8q-26 93 142 93q26 0 54 3l14 7q-56 31 -161 57q-104 25 -362 25q-294 0 -442 -95t-148 -175q0 -40 50 -58q91 132 195.5 180.5t204.5 48.5q200 0 200 -176q0 -175 -199 -174
q-1 156 -112 156q-61 -1 -79 -78q-18 -78 91 -78q-51 -201 -202 -201q-148 0 -248 98t-100 313zM2251 578q0 -70 99 -124v224z" />
    <glyph glyph-name="uni179e.a" horiz-adv-x="2650" 
d="M1380 -74q120 75 120 204v33q-250 -163 -650 -163q-350 0 -525 138q-175 137 -175 412q19 -50 50 -50q170 0 280 42q110 43 110 80q0 38 -99 43t-341 -15v681q20 -61 80 -61q71 0 208 58l412 172q280 -49 641 -209q214 159 341 209q239 -19 454 -123l107 -52
q107 -51 158 -21q-50 -107 -51 -181v-775q0 -148 -49.5 -229t-149.5 -120q0 50 -75 101l-76 50q-200 101 -200 450q40 -50 130 25l180 150q90 75 90 125q0 81 -250 166t-456 85q-156 0 -409 -130q-336 129 -585 129q-253 0 -350 -150q201 0 325.5 -72t124.5 -225t-140 -263
q19 -50 134 -85t306 -35q183 0 300 48q-77 24 -97 97q-26 93 142 93q46 0 97 8q-36 34 -242 34q0 350 260 350q141 0 141 -140l-1 -203q65 24 137 58q-52 -181 -137 -248v-417q0 -230 -165 -350t-632 -119q-109 0 -184 -58q-76 -57 -119 -172q-100 230 0 389
q101 160 390 160q321 0 440 76zM2251 578q0 -70 99 -124v224z" />
    <glyph glyph-name="uni179f.a" horiz-adv-x="3350" 
d="M650 0q-250 0 -374 128q-126 127 -126 382q0 245 223 368q26 14 55 27q-131 40 -228 -5v451l25 -25q26 -26 131 24l316 150q199 -87 351 -125t278 -11q-168 -293 -262 -294q-131 0 -270.5 40t-256.5 40q-121 0 -155 -70q93 -6 171 -36t123 5q-7 -49 -20 -84
q173 35 410 35q410 0 609 -194q0 -206 -150 -386q19 -50 139 -75t268 -25t261 60q112 60 112 160q0 55 -81 82q-81 28 -244 28h-105v650q50 -59 121 -19q202 129 417 219q247 -19 519 -122l136 -52q136 -52 208 -22q-50 -107 -51 -248v-708q0 -148 -49.5 -229t-149.5 -120
q0 50 -75 101l-76 50q-200 101 -200 450q40 -50 130 25l180 150q90 75 90 125q1 41 -318 146t-409 105q-130 0 -322 -151h50q200 0 299 -100q100 -100 100 -299q0 -275 -200 -438t-500 -163t-500 122q-200 123 -200 328q19 -50 50 -50q160 0 230 52.5t70 124.5q0 73 -360 73
q-370 0 -545 -51t-175 -154q0 -85 106 -84q125 1 125 55q0 84 -101 84q51 50 150 50q100 0 175 -78q75 -77 75 -200q0 -122 -100 -172q-100 -49 -100 -100zM2951 578q0 -70 99 -124v224z" />
    <glyph glyph-name="uni17a0.a" horiz-adv-x="3400" 
d="M150 1351l15 -25q15 -26 82 24l201 150q117 -107 234 -150q118 -43 166 -26q-99 -273 -174 -274q-74 0 -145 35t-134 35q-74 0 -144 -120h70q180 0 305 -77q124 -77 124 -225t-140 -258q19 -50 134 -85t306 -35q205 0 317.5 60t112.5 160q0 55 -81 82q-81 28 -244 28
h-105v701l15 -25q15 -26 112 24l97 50q194 100 328 100q225 1 672 -176q20 41 59 71q83 65 269 105q219 -19 434 -123l107 -52q107 -51 158 -21q-50 -107 -51 -181v-775q0 -148 -49.5 -229t-149.5 -120q0 50 -75 101l-76 50q-200 101 -200 450q40 -50 130 25l180 150
q90 75 90 125q0 81 -275 190q-275 110 -395 110q-10 0 -19 -1q-11 -42 -11 -76v-775q0 -148 -49.5 -229t-149.5 -120q0 50 -75 101l-76 50q-200 101 -200 450q40 -50 130 25l180 150q90 75 90 125q0 81 -310 176q-310 94 -402 94q-103 0 -175 -35t-162 -135h50
q200 0 299 -100q100 -100 100 -299q0 -275 -200 -438t-600 -163q-350 0 -525 138q-175 137 -175 412q19 -50 50 -50q190 0 290 32q100 33 100 65q0 33 -99 43t-341 10v701zM3001 578q0 -70 99 -124v224zM2151 578q0 -70 99 -124v224z" />
    <glyph glyph-name="uni17a1.a" horiz-adv-x="3400" 
d="M150 1311q20 -51 60 -51t140 60q301 180 559 180q291 0 516 -150t225 -340q0 -120 -78 -190q-77 -70 -232 -70q-240 0 -240 150t180 150q90 0 120 -50q-50 0 -50 -48q0 -49 50 -49q100 0 100 67q0 86 -164 133t-441 47t-426 -38q-149 -37 -169 -112q151 0 300 -52
q150 -52 150 -225t-140 -283q39 -90 114 -90q65 0 220 150q156 150 376 150q125 0 228 -89q102 -89 101 -228q1 -137 -87 -235q-87 -98 -212 -98t-188 50q-62 50 -62 150t50 150t150 50q0 -50 50 -50t50 45q0 85 -150 85q-130 0 -222 -120l-93 -120q-185 -240 -285 -240
q-150 0 -325 138q-175 137 -175 412q19 -50 100 -50q190 0 270 38q80 37 80 90q0 52 -119 52t-331 -30v661zM3001 578q0 -70 99 -124v224zM1900 1351l15 -25q15 -26 112 24l97 50q194 100 378 100q189 1 678 -198q70 -28 121 2q-51 -107 -51 -181v-775q0 -148 -49.5 -229
t-149.5 -120q0 50 -75 101l-76 50q-200 101 -200 450q40 -50 130 25l180 150q90 75 90 125q0 71 -300 170q-300 100 -412 100q-83 0 -180 -35t-157 -135q100 0 225 -64q124 -65 175 -65q-50 -51 -51 -121v-150v-200v-800q0 -300 -300 -300q-200 0 -300 150
q-100 -150 -300 -150q-350 0 -350 260q160 0 206 55q45 55 44 80q0 25 -50 25t-50 -70q-150 0 -150 100q0 150 175 150t175 -150q0 -100 -50 -190q0 -40 100 -40q160 0 250 140q100 -140 270 -140q180 0 180 130v750q0 131 -25 175.5t-113 59.5t-212 15v701z" />
    <glyph glyph-name="uni17a2.a" horiz-adv-x="2650" 
d="M1426 416q22 -38 74 -46v100zM483 416q26 -38 117 -46v100zM150 1351l18 -25q17 -26 78 24l183 150q148 -107 257 -150q108 -43 164 -26q-96 -273 -194 -274q-99 0 -158 25q-58 25 -120 25q-75 0 -110 -100h88q88 0 241 -64q153 -65 204 -65q-51 -51 -51 -121v-400
q0 -150 -65 -238q-66 -87 -183 -113q0 51 -87 89l-88 37q-176 76 -177 375q22 -50 80 -44q56 7 371 135q-100 29 -203 44t-248 15v701zM785 763q119 -105 225 -125q106 -21 241 0q-47 -103 -175 -154q-127 -50 -314 -2q62 107 23 281zM2251 578q0 -70 99 -124v224z
M1150 1351l15 -25q15 -26 112 24l97 50q194 100 378 100q189 1 678 -198q70 -28 121 2q-50 -107 -51 -181v-775q0 -148 -49.5 -229t-149.5 -120q0 50 -75 101l-76 50q-200 101 -200 450q40 -50 130 25l180 150q90 75 90 125q0 71 -300 170q-300 100 -412 100q-83 0 -180 -35
t-181 -135q124 0 249 -64q124 -65 175 -65q-50 -51 -51 -121v-400q0 -150 -50 -237q-49 -88 -149 -114q0 51 -75 89l-75 37q-150 76 -151 375q19 -50 68 -44q48 7 166 71l117 64q-51 29 -139 44t-212 15v701z" />
    <glyph glyph-name="uni1783.sub.a" horiz-adv-x="1650" 
d="M1251 578q0 -70 99 -124v224zM150 1351l15 -25q15 -26 112 24l97 50q194 100 378 100q189 1 678 -198q70 -28 121 2q-50 -107 -51 -181v-775q0 -148 -49.5 -229t-149.5 -120q0 50 -75 101l-76 50q-200 101 -200 450q40 -50 130 25l180 150q90 75 90 125q0 71 -300 170
q-300 100 -412 100q-83 0 -180 -35t-181 -115l-20 -20q144 0 269 -64q124 -65 175 -65q-50 -51 -51 -121v-150v-200v-700q0 -400 -400 -400q-200 0 -300 100q-150 -101 -299 -100q-229 0 -365 75t-136 225q160 0 205.5 45t44.5 100q0 35 -50 35t-50 -80q-150 0 -150 100
q0 150 175 150t175 -150q0 -100 -100 -250q0 -50 250 -50t250 50t-100 50t-130 -30v280q20 -40 85 30l65 70q150 -80 200 -60q-20 -130 -80 -130q-36 0 -67 12.5t-53 12.5q-25 0 -52 -36q76 1 154 -34t78 -105q0 -110 250 -110t250 150v750q0 131 -25 175.5t-113 59.5
t-212 15v701z" />
    <glyph glyph-name="uni1788.sub.a" horiz-adv-x="1650" 
d="M1251 578q0 -70 99 -124v224zM150 1351l15 -25q15 -26 112 24l97 50q194 100 378 100q189 1 678 -198q70 -28 121 2q-50 -107 -51 -181v-775q0 -148 -49.5 -229t-149.5 -120q0 50 -75 101l-76 50q-200 101 -200 450q40 -50 130 25l180 150q90 75 90 125q0 71 -300 170
q-300 100 -412 100q-83 0 -180 -35t-181 -115l-20 -20q144 0 269 -64q124 -65 175 -65q-50 -51 -51 -121v-150v-200v-700q0 -400 -400 -400q-200 0 -300 100q-150 -101 -299 -100q-229 0 -365 75t-136 175q110 10 139.5 50t44.5 95q16 55 -273 55q-199 1 -293 -42
q-93 -43 -93 -100q0 -75 77 -75q72 1 72 36q0 48 -74 48q37 39 110 39t113 -46q40 -45 40 -134q0 -79 -73 -111t-73 -65q-134 0 -225 83q-92 82 -92 228q1 172 148 255q146 84 357 84q223 0 334 -50l111 -50q0 -190 -100 -300q0 -50 250 -50q240 0 240 50t-95 50t-125 -30
v280q20 -40 85 30l65 70q150 -80 200 -60q-20 -130 -80 -130q-36 0 -67 12.5t-53 12.5q-25 0 -52 -36q76 1 159 -34t83 -105q0 -110 240 -110q250 0 250 150v750q0 131 -25 175.5t-113 59.5t-212 15v701z" />
    <glyph glyph-name="uni178d.sub.a" horiz-adv-x="1650" 
d="M-374 -479l73 -24v57zM1251 578q0 -70 99 -124v224zM150 1351l15 -25q15 -26 112 24l97 50q194 100 378 100q189 1 678 -198q70 -28 121 2q-50 -107 -51 -181v-775q0 -148 -49.5 -229t-149.5 -120q0 50 -75 101l-76 50q-200 101 -200 450q40 -50 130 25l180 150
q90 75 90 125q0 71 -300 170q-300 100 -412 100q-83 0 -180 -35t-181 -115l-20 -20q144 0 269 -64q124 -65 175 -65q-50 -51 -51 -121v-1050q0 -400 -400 -400q-180 0 -286 187q-35 62 -155 63v-99q0 -64 -36 -99t-110 -52q0 21 -55 44l-56 22q-147 43 -147 195
q30 -23 96 10l198 97q-194 72 -298 72q-103 0 -214 -68q-156 67 -226 68q-70 0 -106.5 -25t-36.5 -90q0 -53 18.5 -90.5t55.5 -37.5t37 41q0 31 -74 44q37 21 125 21q73 0 121 -33q48 -34 48 -75q0 -43 -35 -87q-34 -45 -104 -69q-45 -17 -45 -39q-128 22 -192 87t-65 216
v65q0 109 131 196l132 86q179 -30 288 -107q86 86 184 107q98 -8 232 -56l101 -35q33 -11 70 -8q-37 -10 -37 -51l-1 -100q162 -1 244 -151q27 -50 198 -49q250 0 250 150v750q0 131 -25 175.5t-113 59.5t-212 15v701z" />
    <glyph glyph-name="uni1794.sub.a" horiz-adv-x="1650" 
d="M1251 578q0 -70 99 -124v224zM150 1351l15 -25q15 -26 112 24l97 50q194 100 378 100q189 1 678 -198q70 -28 121 2q-50 -107 -51 -181v-775q0 -148 -49.5 -229t-149.5 -120q0 50 -75 101l-76 50q-200 101 -200 450q40 -50 130 25l180 150q90 75 90 125q0 71 -300 170
q-300 100 -412 100q-83 0 -180 -35t-181 -115l-20 -20q144 0 269 -64q124 -65 175 -65q-50 -51 -51 -121v-1050q0 -50 50 -50l-50 -100q-50 -125 -120 -188q-70 -62 -160 -62q-85 0 -152 38q-68 37 -118 112q-50 -75 -122 -112q-73 -38 -168 -38q-180 0 -270 75t-90 225
t58 225q57 75 172 75q85 0 128 -38q42 -37 42 -112t-50 -112q-50 -38 -150 -38q0 100 -50 100t-50 -60q0 -45 51 -68q51 -22 152 -22q103 0 178 38q74 37 119 112q50 -75 118 -112q67 -38 152 -38q90 0 135 50t45 150v841q0 19 -113 39t-237 20v701z" />
    <glyph glyph-name="uni1799.sub.a" horiz-adv-x="1650" 
d="M1251 578q0 -70 99 -124v224zM-188 -412q113 -38 288 -38t288 75q112 75 112 225v550q0 131 -25 175.5t-113 59.5t-212 15v701l15 -25q15 -26 112 24l97 50q194 100 378 100q189 1 678 -198q70 -28 121 2q-50 -107 -51 -181v-775q0 -148 -49.5 -229t-149.5 -120
q0 50 -75 101l-76 50q-200 101 -200 450q40 -50 130 25l180 150q90 75 90 125q0 71 -300 170q-300 100 -412 100q-83 0 -180 -35t-181 -115l-20 -20q144 0 269 -64q124 -65 175 -65q-50 -51 -51 -121v-150v-200v-750q-30 -165 -181 -258q-151 -92 -369 -92q-250 0 -400 88
q-150 87 -150 262q0 150 75 225t225 75q125 0 188 -38q62 -37 62 -112t-44 -112q-44 -38 -131 -38q-75 0 -125 50q0 50 -50 50t-50 -50q0 -75 112 -112z" />
    <glyph glyph-name="uni179e.sub.a" horiz-adv-x="1650" 
d="M150 1351l15 -25q15 -26 112 24l97 50q194 100 378 100q189 1 678 -198q70 -28 121 2q-50 -107 -51 -181v-775q0 -148 -49.5 -229t-149.5 -120q0 50 -75 101l-76 50q-200 101 -200 450q40 -50 130 25l180 150q90 75 90 125q0 71 -300 170q-300 100 -412 100
q-83 0 -180 -35t-181 -115l-20 -20q144 0 269 -64q124 -65 175 -65q-50 -51 -51 -121v-510q74 26 157 65q-58 -202 -157 -261v-344q0 -50 50 -50l-50 -100q-50 -125 -120 -188q-70 -62 -160 -62q-85 0 -152 38q-68 37 -118 112q-50 -75 -122 -112q-73 -38 -168 -38
q-180 0 -270 75t-90 225t58 225q57 75 172 75q85 0 128 -38q42 -37 42 -112t-50 -112q-50 -38 -150 -38q0 100 -50 100t-50 -60q0 -45 51 -68q51 -22 152 -22q103 0 178 38q74 37 119 112q50 -75 118 -112q67 -38 152 -38q90 0 135 50t45 150v247q-39 -3 -80 1
q-121 14 -147 107t142 93q41 0 85 6v387q0 19 -113 39t-237 20v701zM1251 578q0 -70 99 -124v224z" />
    <glyph glyph-name="uni179f.sub.a" horiz-adv-x="1650" 
d="M150 1351l15 -25q15 -26 112 24l97 50q194 100 378 100q189 1 678 -198q70 -28 121 2q-50 -107 -51 -181v-775q0 -148 -49.5 -229t-149.5 -120q0 50 -75 101l-76 50q-200 101 -200 450q40 -50 130 25l180 150q90 75 90 125q0 71 -300 170q-300 100 -412 100
q-83 0 -180 -35t-181 -115l-20 -20q144 0 269 -64q124 -65 175 -65q-50 -51 -51 -121v-582q82 -8 181 -7q-60 -109 -181 -147v-344q0 -185 -151 -278q-151 -92 -414 -92t-399 75t-136 225q160 0 205.5 35t44.5 60q0 35 -50 35t-50 -80q-150 0 -150 100q0 150 175 150
t175 -150q0 -100 -50 -150q0 -50 240 -50q185 0 298 50q112 50 112 150v246q-111 4 -247 52q98 96 83 274q82 -87 164 -122v200q0 131 -25 175.5t-113 59.5t-212 15v701zM1251 578q0 -70 99 -124v224z" />
    <glyph glyph-name="uni1783.sub.alt.a" horiz-adv-x="1650" 
d="M1251 578q0 -70 99 -124v224zM150 1351l15 -25q15 -26 112 24l97 50q194 100 378 100q189 1 678 -198q70 -28 121 2q-50 -107 -51 -181v-775q0 -148 -49.5 -229t-149.5 -120q0 50 -75 101l-76 50q-200 101 -200 450q40 -50 130 25l180 150q90 75 90 125q0 71 -300 170
q-300 100 -412 100q-83 0 -180 -35t-181 -115l-20 -20q144 0 269 -64q124 -65 175 -65q-50 -51 -51 -121v-150v-200v-1300q0 -400 -400 -400q-200 0 -300 92q-150 -93 -299 -92q-229 0 -365 69t-136 207q160 0 205.5 41.5t44.5 92.5q0 32 -50 32t-50 -73q-150 0 -150 92
q0 138 175 138t175 -138q0 -92 -100 -231q0 -36 250 -36t250 36q0 46 -100 46t-130 -27v258q20 -37 85 27l65 65q150 -74 200 -55q-20 -120 -80 -120q-36 0 -67 11.5t-53 11.5q-25 0 -52 -33q76 1 154 -31.5t78 -96.5q0 -92 250 -92t250 156v1350q0 131 -25 175.5t-113 59.5
t-212 15v701z" />
    <glyph glyph-name="uni1788.sub.alt.a" horiz-adv-x="1650" 
d="M1251 578q0 -70 99 -124v224zM150 1351l15 -25q15 -26 112 24l97 50q194 100 378 100q189 1 678 -198q70 -28 121 2q-50 -107 -51 -181v-775q0 -148 -49.5 -229t-149.5 -120q0 50 -75 101l-76 50q-200 101 -200 450q40 -50 130 25l180 150q90 75 90 125q0 71 -300 170
q-300 100 -412 100q-83 0 -180 -35t-181 -115l-20 -20q144 0 269 -64q124 -65 175 -65q-50 -51 -51 -121v-150v-200v-1300q0 -400 -400 -400q-200 0 -300 92q-150 -93 -299 -92q-229 0 -365 69q-136 70 -136 162q110 9 139.5 46t44.5 88q16 51 -273 51q-199 1 -293 -39
q-93 -40 -93 -92q0 -70 77 -70q72 1 72 34q0 44 -74 44q37 36 110 36t113 -42t40 -124q0 -73 -73 -103t-73 -60q-134 0 -225 77q-92 76 -92 211q1 159 148 235q146 78 357 78q223 0 334 -46l111 -46q0 -176 -100 -278q0 -36 250 -36q240 0 240 36q0 46 -95 46t-125 -27v259
q20 -37 85 27l65 65q150 -74 200 -55q-20 -121 -80 -121q-36 0 -67 11.5t-53 11.5q-25 0 -52 -33q76 1 159 -31.5t83 -96.5q0 -92 240 -92q250 0 250 155v1350q0 131 -25 175.5t-113 59.5t-212 15v701z" />
    <glyph glyph-name="uni178d.sub.alt.a" horiz-adv-x="1650" 
d="M-374 -1096l73 -22v53zM1251 578q0 -70 99 -124v224zM150 1351l15 -25q15 -26 112 24l97 50q194 100 378 100q189 1 678 -198q70 -28 121 2q-50 -107 -51 -181v-775q0 -148 -49.5 -229t-149.5 -120q0 50 -75 101l-76 50q-200 101 -200 450q40 -50 130 25l180 150
q90 75 90 125q0 71 -300 170q-300 100 -412 100q-83 0 -180 -35t-181 -115l-20 -20q144 0 269 -64q124 -65 175 -65q-50 -51 -51 -121v-1650q0 -400 -400 -400q-180 0 -286 173q-35 57 -155 58v-91q0 -60 -36 -92t-110 -48q0 19 -55 41l-56 20q-147 40 -147 180
q30 -21 96 10l198 89q-194 67 -298 67q-103 0 -214 -63q-156 62 -226 63q-70 0 -106.5 -23t-36.5 -84q0 -49 18.5 -83.5t55.5 -34.5t37 38q0 29 -74 41q37 19 125 19q73 0 121 -30q48 -32 48 -70q0 -39 -35 -80q-34 -42 -104 -64q-45 -16 -45 -36q-128 20 -192 80
q-64 61 -65 200v60q0 101 131 181l132 80q179 -28 288 -99q86 80 184 99q98 -7 232 -52l101 -32q33 -10 70 -8q-37 -9 -37 -47l-1 -92q162 -1 244 -140q20 -36 198 -35q250 0 250 155v1350q0 131 -25 175.5t-113 59.5t-212 15v701z" />
    <glyph glyph-name="uni1794.sub.alt.a" horiz-adv-x="1650" 
d="M1251 578q0 -70 99 -124v224zM150 1351l15 -25q15 -26 112 24l97 50q194 100 378 100q189 1 678 -198q70 -28 121 2q-50 -107 -51 -181v-775q0 -148 -49.5 -229t-149.5 -120q0 50 -75 101l-76 50q-200 101 -200 450q40 -50 130 25l180 150q90 75 90 125q0 71 -300 170
q-300 100 -412 100q-83 0 -180 -35t-181 -115l-20 -20q144 0 269 -64q124 -65 175 -65q-50 -51 -51 -121v-1650q0 -50 50 -50l-50 -100q-50 -125 -120 -188q-70 -62 -160 -62q-85 0 -152 38q-68 37 -118 112q-50 -75 -122 -112q-73 -38 -168 -38q-180 0 -270 75t-90 225
t58 225q57 75 172 75q85 0 128 -38q42 -37 42 -112t-50 -112q-50 -38 -150 -38q0 100 -50 100t-50 -60q0 -45 51 -68q51 -22 152 -22q103 0 178 38q74 37 119 112q50 -75 118 -112q67 -38 152 -38q90 0 135 50t45 150v1441q0 19 -113 39t-237 20v701z" />
    <glyph glyph-name="uni1799.sub.alt.a" horiz-adv-x="1650" 
d="M1251 578q0 -70 99 -124v224zM-188 -1034q113 -35 288 -35t288 69q112 70 112 250v1150q0 131 -25 175.5t-113 59.5t-212 15v701l15 -25q15 -26 112 24l97 50q194 100 378 100q189 1 678 -198q70 -28 121 2q-50 -107 -51 -181v-775q0 -148 -49.5 -229t-149.5 -120
q0 50 -75 101l-76 50q-200 101 -200 450q40 -50 130 25l180 150q90 75 90 125q0 71 -300 170q-300 100 -412 100q-83 0 -180 -35t-181 -115l-20 -20q144 0 269 -64q124 -65 175 -65q-50 -51 -51 -121v-150v-200v-1376q-30 -153 -181 -239q-151 -85 -369 -85q-250 0 -400 81
t-150 243q0 138 75 208q75 69 225 69q125 0 188 -35q62 -34 62 -104q0 -69 -44 -103q-44 -35 -131 -35q-75 0 -125 46q0 46 -50 46t-50 -46q0 -70 112 -104z" />
    <glyph glyph-name="uni179e.sub.alt.a" horiz-adv-x="1650" 
d="M150 1351l15 -25q15 -26 112 24l97 50q194 100 378 100q189 1 678 -198q70 -28 121 2q-50 -107 -51 -181v-775q0 -148 -49.5 -229t-149.5 -120q0 50 -75 101l-76 50q-200 101 -200 450q40 -50 130 25l180 150q90 75 90 125q0 71 -300 170q-300 100 -412 100
q-83 0 -180 -35t-181 -115l-20 -20q144 0 269 -64q124 -65 175 -65q-50 -51 -51 -121v-510q74 26 157 65q-58 -202 -157 -261v-944q0 -50 50 -50l-50 -100q-50 -125 -120 -188q-70 -62 -160 -62q-85 0 -152 38q-68 37 -118 112q-50 -75 -122 -112q-73 -38 -168 -38
q-180 0 -270 75t-90 225t58 225q57 75 172 75q85 0 128 -38q42 -37 42 -112t-50 -112q-50 -38 -150 -38q0 100 -50 100t-50 -60q0 -45 51 -68q51 -22 152 -22q103 0 178 38q74 37 119 112q50 -75 118 -112q67 -38 152 -38q90 0 135 50t45 150v847q-39 -3 -80 1
q-121 14 -147 107t142 93q41 0 85 6v387q0 19 -113 39t-237 20v701zM1251 578q0 -70 99 -124v224z" />
    <glyph glyph-name="uni179f.sub.alt.a" horiz-adv-x="1650" 
d="M150 1351l15 -25q15 -26 112 24l97 50q194 100 378 100q189 1 678 -198q70 -28 121 2q-50 -107 -51 -181v-775q0 -148 -49.5 -229t-149.5 -120q0 50 -75 101l-76 50q-200 101 -200 450q40 -50 130 25l180 150q90 75 90 125q0 71 -300 170q-300 100 -412 100
q-83 0 -180 -35t-181 -115l-20 -20q144 0 269 -64q124 -65 175 -65q-50 -51 -51 -121v-582q82 -8 181 -7q-60 -109 -181 -147v-944q0 -185 -151 -278q-151 -92 -414 -92t-399 75t-136 225q160 0 205.5 35t44.5 60q0 35 -50 35t-50 -80q-150 0 -150 100q0 150 175 150
t175 -150q0 -100 -50 -150q0 -50 240 -50q185 0 298 50q112 50 112 150v846q-111 4 -247 52q98 96 83 274q82 -87 164 -122v200q0 131 -25 175.5t-113 59.5t-212 15v701zM1251 578q0 -70 99 -124v224z" />
    <glyph glyph-name="uni1780.au" horiz-adv-x="2650" 
d="M2301 1701q-50 0 -100 -60q-1 210 71 285q72 74 176 74q103 0 153 -69q50 -70 50 -170q-1 -101 -101 -222q-75 -90 -126 -228q84 -33 127 -7q-50 -107 -51 -181v-775q0 -148 -50 -229q-49 -81 -149 -120q0 50 -75 101l-76 50q-200 101 -200 450q40 -50 130 25l180 150
q90 75 90 125q0 81 -250 166t-436 85q-176 0 -429 -130q-336 129 -585 129q-223 1 -297 -50q85 -44 150 -109q44 -17 85 -65q41 -50 55 -132q36 53 113 107q145 100 345 99q200 0 462 -112q87 -37 138 -17q-50 -71 -51 -121v-400q0 -150 -50 -237q-49 -88 -149 -114
q0 51 -75 89l-75 37q-150 76 -151 325q18 -50 92 0l221 118q-56 31 -161 57q-104 25 -222 25q-134 0 -202 -20t-68 -60q0 -30 21 -50q-100 6 -160 56q-11 9 -20 19v-245q0 -149 -50 -237q-50 -87 -150 -113q0 51 -75 88q-113 56 -169 114q-57 59 -57 118q0 60 50 118
q50 57 150 113q-20 -56 0.5 -78.5t80.5 -22.5q70 0 70 151q0 200 -50 200q-1 -76 -38 -113q-38 -38 -112 -38q-75 0 -113 44q-37 44 -37 111q0 68 67 132q38 36 106 51q-102 62 -174 62v281q20 -61 80 -61q71 0 208 58l412 172q280 -49 641 -209q204 159 341 209
q239 -19 454 -123l41 -20q23 262 23 299q1 45 -49 45zM2251 578q0 -70 99 -124v224zM1426 416q22 -38 74 -46v100z" />
    <glyph glyph-name="uni1781.au" horiz-adv-x="2650" 
d="M2301 1701q-50 0 -100 -60q-1 210 71 285q72 74 176 74q103 0 153 -69q50 -70 50 -170q-1 -101 -101 -222q-75 -90 -126 -228q84 -33 127 -7q-50 -107 -51 -181v-775q0 -148 -49.5 -229t-149.5 -120q0 50 -75 101l-76 50q-200 101 -200 450q40 -50 130 25l180 150
q90 75 90 125q0 81 -275 190q-275 110 -395 110q-17 0 -30 -2v-49q0 -125 -88 -234q-87 -108 -350 -247q-262 -139 -602 -239q19 -50 134 -85t286 -35q172 0 366 150q97 75 136 158q38 82 18 173q100 -60 100 -201q0 -200 -172 -395q-173 -195 -528 -195q-400 0 -600 152
q-200 153 -200 448q58 -50 254 -35t572 191t375 232q0 61 -171 112q-172 50 -344 50q-341 0 -419 -80t-78 -125t60 -45q50 0 70 40q20 41 -30 41q10 69 125 69q136 0 136 -125q0 -225 -214 -225q-178 0 -257 98t-79 253q0 159 190 305q190 145 600 144q236 0 581 -180
q21 44 62 76q83 65 269 105q219 -19 434 -123l41 -20q23 262 23 299q1 45 -49 45zM2251 578q0 -70 99 -124v224z" />
    <glyph glyph-name="uni1782.au" horiz-adv-x="2650" 
d="M2301 1701q-50 0 -100 -60q-1 210 71 285q72 74 176 74q103 0 153 -69q50 -70 50 -170q-1 -101 -101 -222q-75 -90 -126 -228q84 -33 127 -7q-50 -107 -51 -181v-775q0 -148 -50 -229q-49 -81 -149 -120q0 50 -75 101l-76 50q-200 101 -200 450q40 -50 130 25l180 150
q90 75 90 125q0 81 -250 166t-436 85q-176 0 -429 -130q-336 129 -585 129q-223 1 -297 -50q108 -55 180 -135l-126 -52q-164 101 -257 37v381q20 -61 80 -61q71 0 208 58l412 172q280 -49 641 -209q204 159 341 209q239 -19 454 -123l41 -20q23 262 23 299q1 45 -49 45z
M151 411q0 289 200 439q200 151 610 150q340 0 602 -112q87 -37 138 -17q-50 -71 -51 -121v-400q0 -150 -50 -237q-49 -88 -149 -114q0 51 -75 89l-75 37q-150 76 -151 325q18 -50 92 0l221 118q-56 31 -161 57q-104 25 -362 25q-294 0 -442 -95t-148 -175q0 -40 50 -58
q91 132 195.5 180.5t204.5 48.5q200 0 200 -176q0 -175 -199 -174q-1 156 -112 156q-61 -1 -79 -78q-18 -78 91 -78q-51 -201 -202 -201q-148 0 -248 98t-100 313zM2251 578q0 -70 99 -124v224zM1426 416q22 -38 74 -46v100z" />
    <glyph glyph-name="uni1783.au" horiz-adv-x="3350" 
d="M2320 188q-130 -188 -380 -188q-175 0 -342 72q-97 42 -185 102l-13 -11q-200 -163 -550 -163t-525 138q-175 137 -175 412q19 -50 50 -50q190 0 315 112q125 113 125 326q0 106 -47 159q-48 53 -143 53q-149 0 -149 -75t130 -75q69 0 69 50q50 -24 51 -100
q-1 -90 -47 -170t-129 -80q-97 0 -161 88q-64 87 -64 282q0 200 100 315t231 115q145 0 232 -108t87 -324q0 -179 -48 -336q-47 -157 -142 -292q19 -50 134 -85t256 -35q205 0 317.5 60t112.5 160q0 55 -81 82q-81 28 -244 28h-105v701l15 -25q15 -26 82 24l201 150
q117 -107 234 -150q118 -43 166 -26q-99 -273 -174 -274q-74 0 -145 35t-134 35q-74 0 -144 -120h100q200 0 299 -100q100 -100 100 -299q0 -71 -13 -134q47 -44 111 -79q122 -68 252 -68q105 0 218 60q112 60 112 160q0 55 -81 82q-81 28 -244 28h-105v701l15 -25
q15 -26 112 24l97 50q194 100 378 100q168 1 574 -157q24 276 24 313q1 45 -49 45t-100 -60q-1 210 71 285q72 74 176 74q103 0 153 -69q50 -70 50 -170q-1 -101 -101 -222q-77 -92 -128 -234q4 -2 8 -3q70 -28 121 2q-50 -107 -51 -181v-775q0 -148 -49.5 -229t-149.5 -120
q0 50 -75 101l-76 50q-200 101 -200 450q40 -50 130 25l180 150q90 75 90 125q0 71 -300 170q-300 100 -412 100q-83 0 -180 -35t-157 -135h50q200 0 299 -100q100 -100 100 -299q0 -225 -130 -413zM2951 578q0 -70 99 -124v224z" />
    <glyph glyph-name="uni1784.au" horiz-adv-x="2650" 
d="M2301 1701q-50 0 -100 -60q-1 210 71 285q72 74 176 74q103 0 153 -69q50 -70 50 -170q-1 -101 -101 -222q-75 -90 -126 -228q84 -33 127 -7q-50 -107 -51 -181v-775q0 -148 -49.5 -229t-149.5 -120q0 50 -75 101l-76 50q-200 101 -200 450q40 -50 130 25l180 150
q90 75 90 125q0 81 -275 190q-275 110 -395 110q-31 0 -51 -7q21 -48 21 -102q0 -165 -99 -278t-247 -113q-254 0 -254 175t171 175q130 1 180 -69q-50 0 -25 -41q25 -40 85 -40q40 0 40 55q0 97 -162 146t-386 49q-291 0 -437.5 -50.5t-165.5 -99.5q176 0 288 -88
q112 -87 112 -212q0 -200 -140 -260q19 -50 134 -85t330 -35q208 0 352 120t224 311q0 -351 -178 -551q-177 -200 -532 -200q-440 0 -615 138q-175 137 -175 412q19 -50 50 -50q170 0 275 32q105 33 105 86q0 52 -124 72t-306 -40v650l15 -25q15 -25 55 -25t125 62
q254 188 604 188q291 0 496 -120q44 -26 79 -55q21 40 59 70q83 65 269 105q219 -19 434 -123l41 -20q23 262 23 299q1 45 -49 45zM2251 578q0 -70 99 -124v224z" />
    <glyph glyph-name="uni1785.au" horiz-adv-x="2650" 
d="M2301 1701q-50 0 -100 -60q-1 210 71 285q72 74 176 74q103 0 153 -69q50 -70 50 -170q-1 -101 -101 -222q-75 -90 -126 -228q84 -33 127 -7q-50 -107 -51 -181v-775q0 -148 -49.5 -229t-149.5 -120q0 50 -75 101l-76 50q-200 101 -200 450q40 -50 130 25l180 150
q90 75 90 125q0 81 -250 166t-456 85q-156 0 -409 -130q-336 129 -585 129q-253 0 -350 -150q201 0 326 -77q124 -77 124 -225t-140 -258q19 -50 134 -85t306 -35q205 0 328 60q122 60 122 220q0 150 -50 150t-50 -50t50 -50q-50 -150 -155 -150q-123 0 -184 62
q-61 63 -61 188t75 188q75 62 201 62q125 0 224 -100q100 -100 100 -299q0 -275 -200 -438t-600 -163q-350 0 -525 138q-175 137 -175 412q19 -50 50 -50q170 0 280 42q110 43 110 80q0 38 -99 43t-341 -15v681q20 -61 80 -61q71 0 208 58l412 172q280 -49 641 -209
q204 159 341 209q239 -19 454 -123l41 -20q23 262 23 299q1 45 -49 45zM2251 578q0 -70 99 -124v224z" />
    <glyph glyph-name="uni1786.au" horiz-adv-x="2650" 
d="M2301 1701q-50 0 -100 -60q-1 210 71 285q72 74 176 74q103 0 153 -69q50 -70 50 -170q-1 -101 -101 -222q-75 -90 -126 -228q84 -33 127 -7q-50 -107 -51 -181v-775q0 -148 -49.5 -229t-149.5 -120q0 50 -75 101l-76 50q-200 101 -200 450q40 -50 130 25l180 150
q90 75 90 125q0 81 -250 166t-456 85q-156 0 -409 -130q-336 129 -585 129q-253 0 -317 -100q111 0 264 -56t204 -56q-51 -51 -51 -121v-217q90 0 159.5 -52.5t118.5 -157.5q32 -70 170 -70q147 0 224 80q78 80 78 200q0 100 -50 100t-50 -25t50 -25q-50 -150 -155 -150
q-123 0 -184 62q-61 63 -61 188t75 188q75 62 225 62q101 0 200 -100q100 -100 100 -299q0 -275 -130 -438t-320 -163q-300 0 -350 51l24 22q24 22 24 71t-34 178q-34 128 -114 128v-100q0 -150 -65 -238q-66 -87 -183 -113q0 51 -87 89l-88 37q-176 76 -177 375
q0 100 200 100h250q-49 100 -242 100q-163 0 -208 -50v681q20 -61 80 -61q71 0 208 58l412 172q280 -49 641 -209q204 159 341 209q239 -19 454 -123l41 -20q23 262 23 299q1 45 -49 45zM2251 578q0 -70 99 -124v224zM483 450q26 -72 117 -80v80h-117z" />
    <glyph glyph-name="uni1787.au" horiz-adv-x="2650" 
d="M2301 1701q-50 0 -100 -60q-1 210 71 285q72 74 176 74q103 0 153 -69q50 -70 50 -170q-1 -101 -101 -222q-75 -90 -126 -228q84 -33 127 -7q-50 -107 -51 -181v-775q0 -148 -49.5 -229t-149.5 -120q0 50 -75 101l-76 50q-200 101 -200 450q40 -50 130 25l180 150
q90 75 90 125q0 81 -275 190q-275 110 -395 110t-80 -100q-47 0 -72 24l-22 -24q-143 -150 -300 -150q-205 0 -396 90q-190 90 -275 90q-105 0 -235 -130q226 0 338 -88q112 -87 112 -212q0 -200 -140 -260q19 -50 134 -85t330 -35q208 0 352 120t224 361q0 -401 -178 -601
q-177 -200 -532 -200q-440 0 -615 138q-175 137 -175 412q19 -50 50 -50q170 0 275 32.5t105 84.5q0 53 -124 73t-306 -40v651q20 -51 60 -51t140 62l100 63l201 125l293 -150q293 -150 375 -150t82 51q0 60 -83 125q-82 65 -267 64q100 260 225 260q124 0 249 -95
q105 -80 121 -171q79 39 206 66q219 -19 434 -123l41 -20q23 262 23 299q1 45 -49 45zM2251 578q0 -70 99 -124v224z" />
    <glyph glyph-name="uni1788.au" horiz-adv-x="4150" 
d="M3120 188q-130 -188 -380 -188q-175 0 -342 72q-82 35 -157 84q-198 -156 -491 -156q-300 0 -510 122.5t-290 467.5q19 -50 50 -50q160 0 330 230q170 211 -100 306q-270 94 -442 94q-173 0 -310 -35t-177 -85q260 30 355 -60q94 -90 94 -239q1 -201 -174 -250t-175 -97
q0 -53 52 -53q41 -1 41 24t-47 25q44 50 129 50t129.5 -61t44.5 -142q0 -111 -86 -156q-85 -45 -85 -91q-425 0 -429 401v200q46 -30 248.5 -0.5t201.5 98.5q0 50 -162 51q-163 0 -288 -50v651l15 -25q15 -26 209 74t418 100q299 1 580 -123q278 -123 278 -230
q0 -247 -290 -577q19 -170 209 -210t338 -40t261 60q112 60 112 160q0 55 -81 82q-81 28 -244 28h-105v701l15 -25q15 -26 67 24l156 150q127 -107 220 -150q92 -43 140 -26q-99 -273 -154 -274q-54 0 -125 35t-124 35q-64 0 -94 -120h100q200 0 299 -100q100 -100 100 -299
q0 -90 -22 -169q32 -23 70 -44q122 -68 252 -68q105 0 218 60q112 60 112 160q0 55 -81 82q-81 28 -244 28h-105v701l15 -25q15 -26 112 24l97 50q194 100 378 100q168 1 574 -157q24 276 24 313q1 45 -49 45t-100 -60q-1 210 71 285q72 74 176 74q103 0 153 -69
q50 -70 50 -170q-1 -101 -101 -222q-77 -92 -128 -234q4 -2 8 -3q70 -28 121 2q-50 -107 -51 -181v-775q0 -148 -49.5 -229t-149.5 -120q0 50 -75 101l-76 50q-200 101 -200 450q40 -50 130 25l180 150q90 75 90 125q0 71 -300 170q-300 100 -412 100q-83 0 -180 -35
t-157 -135h50q200 0 299 -100q100 -100 100 -299q0 -225 -130 -413zM3751 578q0 -70 99 -124v224z" />
    <glyph glyph-name="uni1789.au" horiz-adv-x="3500" 
d="M3151 1701q-50 0 -100 -60q-1 210 71 285q72 74 176 74q103 0 153 -69q50 -70 50 -170q-1 -101 -101 -222q-75 -90 -126 -228q84 -33 127 -7q-50 -107 -51 -181v-775q0 -148 -49.5 -229t-149.5 -120q0 50 -75 101l-76 50q-200 101 -200 450q40 -50 130 25l180 150
q90 75 90 125q0 81 -275 190q-275 110 -395 110q-15 0 -27 -2q-3 -20 -3 -45v-805q0 -148 -49.5 -229t-149.5 -120q0 50 -75 101l-76 50q-200 101 -200 450q40 -50 130 25l180 150q90 75 90 105q-1 61 -142 141q-142 80 -304 80q-121 0 -254 -158v-595q0 -148 -49.5 -229
t-149.5 -120q0 50 -75 101l-76 50q-200 101 -200 450q40 -50 130 25l180 150q90 75 90 105q-1 31 -133 126q-131 95 -273 95q-141 0 -291 -158q-213 155 -309 156q-95 1 -144 -99q-50 -100 -50 -250q0 -124 25 -211t76 -87q50 0 50 97q0 71 -101 101q51 50 170 50
q100 0 165 -78q65 -77 65 -174q0 -98 -47 -201t-141 -159q-62 -37 -62 -88q-174 50 -262 200q-87 150 -88 500v150q0 250 179 450l179 200q244 -68 392 -247q117 197 251 247q133 -19 316 -128l137 -81q76 -44 123 7l47 50q93 102 227 152q133 -19 316 -128l63 -37
q20 34 53 60q83 65 269 105q219 -19 434 -123l41 -20q23 262 23 299q1 45 -49 45zM2350 -300q0 -350 -442 -350q-84 0 -166 5.5t-165 16.5q-166 21 -537 178q-163 50 -347 50q-322 0 -442 -150q0 300 552 300q387 0 665 -150q279 -150 440 -150q276 0 276 250
q0 150 -110 150q-55 0 -55 -50t55 -50q0 -150 -111 -150q-165 0 -165 150q0 200 276 200t276 -250zM3101 578q0 -70 99 -124v224zM2251 578q0 -70 99 -124v224zM1401 578q0 -70 99 -124v224z" />
    <glyph glyph-name="uni178a.au" horiz-adv-x="2650" 
d="M1600 1100q-46 0 -71 24q-11 -13 -23 -25q-143 -150 -300 -150q-205 0 -396 90q-190 90 -275 90q-105 0 -235 -130q226 0 338 -88q112 -87 112 -212q0 -200 -140 -260q19 -43 64 -68t118 -25q82 0 137 69l71 96l47 -52q47 -52 103 -82q70 -31 132 -31q63 0 140 61
q172 145 178 492q50 -100 50 -249q0 -325 -150 -488t-260 -163q-90 0 -192 76l-101 75q-97 -151 -202 -151q-245 0 -420 138q-175 137 -175 412q19 -50 50 -50q170 0 275 32.5t105 84.5q0 53 -124 73t-306 -40v651q20 -51 60 -51t140 62l100 63l201 125l293 -150
q293 -150 375 -150t82 51q0 60 -83 125q-82 65 -267 64q100 260 225 260q124 0 249 -95q105 -80 121 -170q79 39 206 66q219 -19 434 -123l41 -20q23 262 23 299q1 45 -49 45t-100 -60q-1 210 71 285q72 74 176 74q103 0 153 -69q50 -70 50 -170q-1 -101 -101 -222
q-75 -90 -126 -228q84 -33 127 -7q-50 -107 -51 -181v-775q0 -148 -49.5 -229t-149.5 -120q0 50 -75 101l-76 50q-200 101 -200 450q40 -50 130 25l180 150q90 75 90 125q0 81 -275 190q-275 110 -395 110t-80 -100zM2251 578q0 -70 99 -124v224z" />
    <glyph glyph-name="uni178b.au" horiz-adv-x="2650" 
d="M2301 1701q-50 0 -100 -60q-1 210 71 285q72 74 176 74q103 0 153 -69q50 -70 50 -170q-1 -101 -101 -222q-75 -90 -126 -228q84 -33 127 -7q-50 -107 -51 -181v-775q0 -148 -49.5 -229t-149.5 -120q0 50 -75 101l-76 50q-200 101 -200 450q40 -50 130 25l180 150
q90 75 90 125q0 81 -275 190q-275 110 -395 110h-11q-9 -26 -19 -48q-51 -101 -156 -102q-44 0 -115 35t-134 35q-74 0 -144 -120h100q200 0 299 -100q100 -100 100 -299q0 -275 -200 -438t-550 -163t-525 138q-175 137 -175 412q19 -50 50 -50q190 0 315 112
q125 113 125 326q0 106 -47 159q-48 53 -143 53q-149 0 -149 -75t130 -75q69 0 69 50q50 -24 51 -100q-1 -90 -47 -170t-129 -80q-97 0 -161 88q-64 87 -64 282q0 200 100 315t231 115q145 0 232 -108t87 -324q0 -179 -48 -336q-47 -157 -142 -292q19 -50 134 -85t256 -35
q205 0 317.5 60t112.5 160q0 55 -81 82q-81 28 -244 28h-105v701l15 -25q15 -26 82 24l201 150q117 -107 176 -128q76 -25 76 42q0 87 -132 188q-133 100 -318 60q100 289 245 289q105 0 230 -89q124 -90 125 -406q64 25 152 44q219 -19 434 -123l41 -20q23 262 23 299
q1 45 -49 45zM2251 578q0 -70 99 -124v224z" />
    <glyph glyph-name="uni178c.au" horiz-adv-x="2650" 
d="M2301 1701q-50 0 -100 -60q-1 210 71 285q72 74 176 74q103 0 153 -69q50 -70 50 -170q-1 -101 -101 -222q-75 -90 -126 -228q84 -33 127 -7q-50 -107 -51 -181v-775q0 -148 -49.5 -229t-149.5 -120q0 50 -75 101l-76 50q-200 101 -200 450q40 -50 130 25l180 150
q90 75 90 125q0 81 -275 190q-275 110 -395 110q-15 0 -27 -2q-3 -20 -3 -45q0 -143 -88 -244q-87 -101 -350 -240q-262 -139 -572 -239q19 -50 79 -85t171 -35q262 0 436 122.5t174 317.5q150 0 150 -120v-629q-1 -201 -175.5 -201.5t-175.5 200.5q200 1 201 200v184
l-100 -109q-250 -275 -600 -275q-250 0 -450 152q-200 153 -200 448q58 -50 254 -35t572 191q391 187 391 250q-131 95 -273 95q-141 0 -291 -158q-213 156 -309 156q-155 0 -155 -109v-45q0 -45 60 -45q62 0 74 20q16 31 -34 31q-1 69 85 69q176 0 176 -171
q0 -149 -249 -149q-143 0 -222 98t-79 253q0 249 358 449q244 -68 392 -247q117 197 251 247q133 -19 316 -128l63 -37q20 34 53 60q83 65 269 105q219 -19 434 -123l41 -20q23 262 23 299q1 45 -49 45zM2251 578q0 -70 99 -124v224z" />
    <glyph glyph-name="uni178d.au" horiz-adv-x="3450" 
d="M3101 1701q-50 0 -100 -60q-1 210 71 285q72 74 176 74q103 0 153 -69q50 -70 50 -170q-1 -101 -101 -222q-77 -92 -128 -234q4 -2 8 -3q70 -28 121 2q-50 -107 -51 -181v-775q0 -148 -49.5 -229t-149.5 -120q0 50 -75 101l-76 50q-200 101 -200 450q40 -50 130 25
l180 150q90 75 90 125q0 71 -300 170q-300 100 -412 100q-83 0 -180 -35t-157 -135h50q200 0 299 -100q100 -100 100 -349q0 -225 -130 -388t-320 -163q-300 0 -350 51l24 22q24 22 24 71q0 109 -39 258q-39 148 -109 148v-200q0 -150 -65 -238q-66 -87 -183 -113
q0 51 -87 89l-88 37q-176 76 -177 375q0 200 200 200h250v140q0 70 -133 166q-131 95 -273 95q-141 0 -291 -158q-213 155 -309 156q-95 1 -144 -99q-50 -100 -50 -250q0 -124 25 -211t76 -87q50 0 50 97q0 71 -101 101q51 50 170 50q100 0 165 -78q65 -77 65 -174
q0 -98 -47 -201t-141 -159q-62 -37 -62 -88q-174 50 -262 200q-87 150 -88 500v150q0 250 179 450l179 200q244 -68 392 -247q117 197 251 247q133 -19 316 -128l137 -81q46 -27 96 -21q-50 -23 -50 -117v-453q90 0 160 -52q69 -53 110 -190q40 -138 178 -138q147 0 224 80
q58 61 58 120q0 72 -81 101t-244 29h-105v701l15 -25q15 -26 112 24l97 50q194 100 378 100q168 1 574 -157q24 276 24 313q1 45 -49 45zM3051 578q0 -70 99 -124v224zM1409 550q0 -162 91 -180v180h-91z" />
    <glyph glyph-name="uni178e.au" horiz-adv-x="4200" 
d="M3851 1701q-50 0 -100 -60q-1 210 71 285q72 74 176 74q103 0 153 -69q50 -70 50 -170q-1 -101 -101 -222q-75 -90 -126 -228q84 -33 127 -7q-50 -107 -51 -181v-775q0 -148 -49.5 -229t-149.5 -120q0 50 -75 101l-76 50q-200 101 -200 450q40 -50 130 25l180 150
q90 75 90 125q0 81 -275 190q-275 110 -395 110q-10 0 -19 -1q-11 -42 -11 -76v-775q0 -148 -49.5 -229t-149.5 -120q0 50 -75 101l-76 50q-200 101 -200 450q40 -50 130 25l180 150q90 75 90 125q0 71 -325 170q-325 100 -397 100q-73 0 -160 -35t-167 -135h50
q200 0 299 -100q100 -100 100 -299q0 -255 -150 -428t-290 -173q-110 0 -212 76l-101 75q-97 -151 -202 -151q-245 0 -420 138q-175 137 -175 472q19 -50 50 -50q240 0 395 210q77 106 49 182q-29 76 -164 124q-270 94 -442 94q-173 0 -310 -35t-177 -85q260 30 355 -60
q94 -90 94 -239q1 -201 -174 -250t-175 -97q0 -53 52 -53q41 -1 41 24t-47 25q44 50 129 50t129.5 -61t44.5 -142q0 -111 -86 -156q-85 -45 -85 -91q-425 0 -429 401v200q46 -30 248 -1q203 30 202 99q0 50 -162 51q-163 0 -288 -50v651l15 -25q15 -26 209 74t418 100
q299 1 580 -123q278 -123 278 -230q0 -247 -175 -447l-175 -200q49 -83 109 -118t133 -35q82 0 137 69l71 96l47 -52q47 -52 103 -82q70 -31 182 -31t167 51.5t55 154.5q-24 42 -105 69q-81 28 -244 28h-105v701l15 -25q15 -26 112 24l97 50q194 100 378 100q178 1 622 -176
q20 41 59 71q83 65 269 105q219 -19 434 -123l41 -20q23 262 23 299q1 45 -49 45zM3801 578q0 -70 99 -124v224zM2951 578q0 -70 99 -124v224z" />
    <glyph glyph-name="uni178f.au" horiz-adv-x="2650" 
d="M2301 1701q-50 0 -100 -60q-1 210 71 285q72 74 176 74q103 0 153 -69q50 -70 50 -170q-1 -101 -101 -222q-75 -90 -126 -228q84 -33 127 -7q-50 -107 -51 -181v-775q0 -148 -50 -229q-49 -81 -149 -120q0 50 -75 101l-76 50q-200 101 -200 450q40 -50 130 25l180 150
q90 75 90 125q0 81 -250 166t-436 85q-176 0 -429 -130q-336 129 -585 129q-223 1 -297 -50q108 -55 180 -135l-126 -52q-164 101 -257 37v381q20 -61 80 -61q71 0 208 58l412 172q280 -49 641 -209q204 159 341 209q239 -19 454 -123l41 -20q23 262 23 299q1 45 -49 45z
M150 450q1 250 201 400q200 151 610 150q340 0 602 -112q87 -37 138 -17q-50 -71 -51 -121v-400q0 -150 -50 -237q-49 -88 -149 -114q0 51 -75 89l-75 37q-150 76 -151 325q18 -50 92 0l221 118q-56 31 -161 57q-104 25 -362 25q-310 0 -465 -51t-155 -154q0 -85 106 -84
q125 1 125 55q0 74 -101 74q51 60 150 60q100 0 175 -78q75 -77 75 -200q0 -122 -100 -172q-100 -49 -100 -100q-250 0 -374 128q-126 127 -126 322zM2251 578q0 -70 99 -124v224zM1426 416q22 -38 74 -46v100z" />
    <glyph glyph-name="uni1790.au" horiz-adv-x="2650" 
d="M1600 1100q-60 0 -84 41l-20 -16q-153 -125 -439 -125q-106 0 -271 65q-166 65 -251 65q-105 0 -235 -130q151 0 300 -52q150 -52 150 -225t-140 -283q19 -50 134 -85t306 -35q205 0 328 60q122 60 122 180q0 90 -50 90t-50 -25t50 -25q-50 -100 -164 -100t-175 52.5
t-61 147.5q0 125 75 188q75 62 225 62q101 0 200 -100q100 -100 100 -289q0 -235 -200 -398t-600 -163q-350 0 -525 138q-175 137 -175 412q19 -50 50 -50q240 0 320 38q80 37 80 90q0 52 -119 52t-331 -30v651q20 -51 60 -51t140 62l100 63l201 125q626 -300 688 -300
t62 51q0 60 -83 125q-82 65 -267 64q100 260 225 260q124 0 249 -95q105 -80 121 -171q79 39 206 66q219 -19 434 -123l41 -20q23 262 23 299q1 45 -49 45t-100 -60q-1 210 71 285q72 74 176 74q103 0 153 -69q50 -70 50 -170q-1 -101 -101 -222q-75 -90 -126 -228
q84 -33 127 -7q-50 -107 -51 -181v-775q0 -148 -49.5 -229t-149.5 -120q0 50 -75 101l-76 50q-200 101 -200 450q40 -50 130 25l180 150q90 75 90 125q0 81 -275 190q-275 110 -395 110t-80 -100zM2251 578q0 -70 99 -124v224z" />
    <glyph glyph-name="uni1791.au" horiz-adv-x="2650" 
d="M2301 1701q-50 0 -100 -60q-1 210 71 285q72 74 176 74q103 0 153 -69q50 -70 50 -170q-1 -101 -101 -222q-75 -90 -126 -228q84 -33 127 -7q-50 -107 -51 -181v-775q0 -148 -49.5 -229t-149.5 -120q0 50 -75 101l-76 50q-200 101 -200 450q40 -50 130 25l180 150
q90 75 90 125q0 81 -275 190q-275 110 -395 110q-57 0 -78 -23q48 -79 48 -167q0 -120 -78 -190q-77 -70 -232 -70q-240 0 -240 150t180 150q90 0 120 -50q-50 0 -50 -48q0 -49 50 -49q100 0 100 67q0 86 -164 133t-441 47t-426 -38q-149 -37 -169 -112q151 0 300 -52
q150 -52 150 -225t-140 -283q39 -90 114 -90q65 0 220 150q156 150 376 150q125 0 228 -89q102 -89 101 -228q1 -137 -87 -235q-87 -98 -212 -98t-188 50q-62 50 -62 150t50 150t150 50q0 -50 50 -50t50 45q0 85 -150 85q-130 0 -222 -120l-93 -120q-185 -240 -285 -240
q-150 0 -325 138q-175 137 -175 412q19 -50 50 -50q240 0 320 38q80 37 80 90q0 52 -119 52t-331 -30v661q20 -51 60 -51t140 60q301 180 559 180q291 0 516 -150q47 -31 84 -64q18 65 74 109q83 65 269 105q219 -19 434 -123l41 -20q23 262 23 299q1 45 -49 45zM2251 578
q0 -70 99 -124v224z" />
    <glyph glyph-name="uni1792.au" horiz-adv-x="2650" 
d="M2301 1701q-50 0 -100 -60q-1 210 71 285q72 74 176 74q103 0 153 -69q50 -70 50 -170q-1 -101 -101 -222q-75 -90 -126 -228q84 -33 127 -7q-50 -107 -51 -181v-775q0 -148 -49.5 -229t-149.5 -120q0 50 -75 101l-76 50q-200 101 -200 450q40 -50 130 25l180 150
q90 75 90 125q0 81 -250 166t-456 85q-156 0 -409 -130q-336 129 -585 129q-253 0 -317 -100l-33 -50q226 0 338 -88q112 -87 112 -212q0 -200 -140 -260q19 -43 64 -68t114 -25q70 0 127 69l71 96l47 -52q47 -52 117 -82q70 -31 132 -31q63 0 140 61q78 62 78 192
q0 100 -50 100t-50 -25t50 -25q-50 -150 -155 -150q-245 0 -245 250t300 250q101 0 200 -100q100 -100 100 -299q0 -275 -150 -438t-260 -163q-90 0 -192 76l-101 75q-97 -151 -202 -151q-245 0 -420 138q-175 137 -175 412q19 -50 50 -50q170 0 275 32q105 33 105 86
q0 52 -124 72t-306 -40v681q20 -61 80 -61q71 0 208 58l412 172q280 -49 641 -209q204 159 341 209q239 -19 454 -123l41 -20q23 262 23 299q1 45 -49 45zM2251 578q0 -70 99 -124v224z" />
    <glyph glyph-name="uni1793.au" horiz-adv-x="2650" 
d="M2301 1701q-50 0 -100 -60q-1 210 71 285q72 74 176 74q103 0 153 -69q50 -70 50 -170q-1 -101 -101 -222q-75 -90 -126 -228q84 -33 127 -7q-50 -107 -51 -181v-775q0 -148 -49.5 -229t-149.5 -120q0 50 -75 101l-76 50q-200 101 -200 450q40 -50 130 25l180 150
q90 75 90 125q0 81 -275 190q-275 110 -395 110q-31 0 -51 -7q21 -48 21 -102q0 -165 -99 -278t-247 -113q-254 0 -254 175t171 175q130 1 180 -69q-50 0 -25 -41q25 -40 85 -40q40 0 40 55q0 97 -162 146t-389 49q-332 0 -481 -38q-149 -37 -169 -112q201 0 326 -47
q124 -47 124 -200v-153q90 0 159.5 -52.5t118.5 -157.5q32 -70 170 -70q167 0 260 80q92 80 92 300q100 -50 100 -149q0 -225 -130 -388t-320 -163q-300 0 -350 51l24 22q24 22 24 71t-34 178q-34 128 -114 128v-100q0 -150 -65 -238q-66 -87 -183 -113q0 51 -87 89l-88 37
q-176 76 -177 375q50 100 250 100h200q0 100 -199 100q-169 0 -251 -50v661q20 -51 60 -51t140 60q301 180 600 180q290 0 495 -120q44 -26 79 -55q21 40 59 70q83 65 269 105q219 -19 434 -123l41 -20q23 262 23 299q1 45 -49 45zM2251 578q0 -70 99 -124v224zM483 450
q26 -72 117 -80v80h-117z" />
    <glyph glyph-name="uni1794.au" horiz-adv-x="2650" 
d="M1380 -74q120 75 120 204v33q-250 -163 -650 -163q-350 0 -525 138q-175 137 -175 412q19 -50 50 -50q170 0 280 42q110 43 110 80q0 38 -99 43t-341 -15v681q20 -61 80 -61q71 0 208 58l412 172q280 -49 641 -209q214 159 341 209q239 -19 454 -123l41 -20
q23 262 23 299q1 45 -49 45t-100 -60q-1 210 71 285q72 74 176 74q103 0 153 -69q50 -70 50 -170q-1 -101 -101 -222q-75 -90 -126 -228q84 -33 127 -7q-50 -107 -51 -181v-775q0 -148 -49.5 -229t-149.5 -120q0 50 -75 101l-76 50q-200 101 -200 450q40 -50 130 25l180 150
q90 75 90 125q0 81 -250 166t-456 85q-156 0 -409 -130q-336 129 -585 129q-253 0 -350 -150q201 0 325.5 -72t124.5 -225t-140 -263q19 -50 134 -85t306 -35q205 0 328 60q122 60 122 170q0 50 -250 50q0 350 260 350q141 0 141 -140l-1 -810q0 -230 -165 -350t-632 -119
q-109 0 -184 -58q-76 -57 -119 -172q-100 230 0 389q101 160 390 160q321 0 440 76zM2251 578q0 -70 99 -124v224z" />
    <glyph glyph-name="uni1795.au" horiz-adv-x="2650" 
d="M2301 1701q-50 0 -100 -60q-1 210 71 285q72 74 176 74q103 0 153 -69q50 -70 50 -170q-1 -101 -101 -222q-75 -90 -126 -228q84 -33 127 -7q-50 -107 -51 -181v-775q0 -148 -49.5 -229t-149.5 -120q0 50 -75 101l-76 50q-200 101 -200 450q40 -50 130 25l180 150
q90 75 90 125q0 81 -275 190q-275 110 -395 110t-80 -100q-60 0 -84 41l-20 -16q-153 -125 -439 -125q-106 0 -271 65q-166 65 -251 65q-105 0 -235 -130q226 0 338 -88q112 -87 112 -212q0 -200 -140 -260q19 -43 64 -68t114 -25q70 0 127 69l71 96l47 -52q47 -52 117 -82
q70 -31 132 -31q63 0 140 61q78 62 78 152t-50 90t-50 -25t50 -25q-50 -100 -164 -100t-175 52.5t-61 147.5q0 125 75 188q75 62 225 62q101 0 200 -100q100 -100 100 -289q0 -235 -150 -398t-260 -163q-90 0 -192 76l-101 75q-97 -151 -202 -151q-245 0 -420 138
q-175 137 -175 412q19 -50 50 -50q170 0 275 32.5t105 84.5q0 53 -124 73t-306 -40v651q20 -51 60 -51t140 62l100 63l201 125q626 -300 688 -300t62 51q0 60 -83 125q-82 65 -267 64q100 260 225 260q124 0 249 -95q105 -80 121 -171q79 39 206 66q219 -19 434 -123l41 -20
q23 262 23 299q1 45 -49 45zM2251 578q0 -70 99 -124v224z" />
    </font>
</defs>
</svg>
